<?xml version="1.0" standalone="no"?>
<!DOCTYPE svg PUBLIC "-//W3C//DTD SVG 1.1//EN" "http://www.w3.org/Graphics/SVG/1.1/DTD/svg11.dtd" >
<svg>
<metadata>
Created by FontForge 20090622 at Sun Nov 18 20:48:33 2012
 By ffonts
Showboat. Copyright 1991 by David Rakowski.  Alle Rechte Vorbehalten.
</metadata>
<defs>
<font id="ShowboatRegular" horiz-adv-x="372" >
  <font-face 
    font-family="Showboat"
    font-weight="5"
    font-stretch="normal"
    units-per-em="1250"
    panose-1="0 0 0 0 0 0 0 0 0 0"
    ascent="1050"
    descent="-200"
    cap-height="1001"
    bbox="13 -66 1187.08 1050"
    underline-thickness="20"
    underline-position="-123"
    unicode-range="U+0020-U+2022"
  />
<missing-glyph horiz-adv-x="1050" 
d="M65 0v1050h920v-1050h-920zM920 65v920h-790v-920h790z" />
    <glyph glyph-name=".notdef" horiz-adv-x="1050" 
d="M65 0v1050h920v-1050h-920zM920 65v920h-790v-920h790z" />
    <glyph glyph-name=".null" horiz-adv-x="0" 
 />
    <glyph glyph-name="nonmarkingreturn" 
 />
    <glyph glyph-name="space" unicode=" " 
 />
    <glyph glyph-name="exclam" unicode="!" horiz-adv-x="298" 
d="M216 954q36 -21 52 -62q8 -21 12 -41t4 -47v-14v-12q-2 -10 -2 -14l-11 -105q-3 -38 -8.5 -83.5l-13.5 -109t-14.5 -110.5t-20.5 -128l-10 5q4 41 10 97.5t16 129.5l27 228q9 83 9 173q-6 13 -11 27q-5 10 -9 16q-5 11 -20 19l7 -51l2 -53q0 -52 -12 -159.5t-12 -160.5
q-8 -37 -18 -122.5t-17 -117.5l-25 15q-19 12 -28 28q-10 84 -27 168l-18.5 98.5t-25.5 125.5l-38 207q0 56 46 89q20 10 37 10q19 0 33 -7l65 -39h21zM257 105l7 -16l2 -17l-3 -23l-9 -22l-28 -20q-11 -5 -28 -7l-10 1l-19 9q-14 6 -15 17l10 6q-24 0 -47 20l-37 38
q-6 14 -6 32q0 23 13 36q6 8 18 17l25 11q31 0 71 -37t56 -45zM56 971q-24 -27 -30 -67q5 -49 11 -86t18 -91l42 -196q21 -99 33 -171l19 163q0 50 12 156t12 161q0 58 -9 103q-9 20 -26 30.5t-38 10.5q-24 0 -44 -13zM122 166q-15 -3 -24 -18t-9 -32l2 -15q6 -13 18 -22
q14 -7 30 -7l18 2q14 3 23 20q8 19 8 41q-3 15 -17 24.5t-30 9.5zM238 91v-12q-6 -22 -28 -37q-23 -13 -46 -13l9 -8q8 -5 24 -7q30 0 45 22q5 14 7 29q0 15 -11 26zM154 770q4 -3 5 -14l-1 -13q-13 -8 -33 -11l-50 -1q-13 16 -10 37l14 -1l33 2l25 2zM152 703
q-3 -17 -28 -17l-17 1q-12 0 -18 2l-9 -1l-5 24l27 9l26 5q24 0 24 -23zM149 660q-1 -3 -3 -7.5t-7 -11.5l-32 -1q-17 0 -20 13q0 18 9 19h14l21 1q17 0 18 -13zM146 616q3 -11 -8 -14l-20 -3l-7 1l-6 1q-7 0 -9 6q-3 13 7 16l20 6q22 0 23 -13zM139 580q6 -12 -7 -18
l-17 -5q-12 5 -12 12q0 6 12.5 9.5t23.5 1.5zM108 533q7 -7 14 -6l11 1q5 0 4 11l-10 4l-10 -3zM130 499h-12v12h12v-12zM137 477q-3 -3 -6 -3.5l-9 -1.5v8q10 0 12 -0.5t3 -2.5zM127 959l-9 -9q18 0 27 -15l13 -31l-4 -12h-33q-19 -3 -28 -4l-49 -3l-3 24q0 13 3 20.5
t16 10.5h12l8 3l-18 7q0 7 5 11l17 8h20q16 0 23 -10zM161 870l3 -15q0 -11 -16 -17q-8 -2 -14.5 -3t-15.5 -5l-25 -3l-19 -2q-14 0 -23 6q-7 7 -7 23v16l56 7l54 5zM158 820q3 -5 5 -16q0 -11 -15 -19q-11 -3 -16 -4t-17 -1l-10 1l-14 -1q-10 0 -16 -2q-10 0 -16 5t-6 18
l3 15l25 4l33 1l22 -1h22z" />
    <glyph glyph-name="quotesingle" unicode="'" horiz-adv-x="260" 
d="M196 927l19 -30q8 -14 10 -31q0 -33 -34 -61q-30 -22 -72 -39q-8 3 -7 8q37 11 62.5 28.5t37.5 50.5l2 18q0 15 -8 22q0 -40 -30.5 -67.5t-75.5 -42.5q-9 0 -22 6t-21 14l27 27q7 9 10 23q-14 6 -27 18t-16 26l-2 22q0 29 17 46.5t48 17.5q10 0 15 -1t17.5 -6.5
t29.5 -20.5q14 -11 20 -28zM70 956q-14 -19 -14 -39q0 -15 9 -27q6 -12 16 -18l28 -9l1 -12l-3 -10q11 12 21 9q3 -9 -6 -15q-3 -3 -12 -5q-6 0 -7 5l3 2l-12 -19q13 6 25 13t22 14q17 12 24 35q5 10 5 23q0 11 -4 22l-9 23q-6 10 -19 16.5t-30 6.5q-23 0 -38 -15zM152 940
v-6l-27 -4l-32 -3q-12 0 -23 4q4 11 11.5 18.5t18.5 11.5q36 4 52 -21zM157 922l2 -14q0 -15 -10 -18l-16 2l-19 -2l-19 -2q-14 0 -20 5l-7 16q8 13 28 13h15h12q8 2 12 2zM151 885l2 -9q0 -6 -6 -12l-14 -6q-10 -2 -14.5 7.5t-10.5 10.5q-7 -1 -9 -2l-5 5q8 4 25 4h16
q12 0 16 2z" />
    <glyph glyph-name="parenleft" unicode="(" horiz-adv-x="420" 
d="M302 992l-59 -194q-33 -111 -33 -270q0 -149 37.5 -290.5t109.5 -252.5q-27 3 -57.5 18.5t-96 70t-128 185t-62.5 267.5q0 108 33 200t89.5 167.5t129.5 127.5q12 3 20 -7zM335 950q0 -13 -4 -28t-16 -47q-19 -53 -36 -126t-17 -216q0 -153 39 -295.5t118 -261.5l-1 -3
q-83 112 -125.5 254.5t-42.5 300.5q0 59 4 115.5t13 107.5q18 101 60 199h8zM236 979q-84 -70 -137 -168q-25 -48 -40.5 -89t-20.5 -74.5t-8 -66t-3 -51.5q0 -136 52.5 -254t156.5 -205q-22 50 -39 106.5t-28.5 116.5t-17.5 122.5t-6 127.5q0 122 22.5 232t68.5 203z
M184 890q0 -17 -2 -23q0 -6 -11 -14h-17q-3 12 7 22t23 15zM167 841v-14q0 -9 -1.5 -19t-16.5 -11l-9 2l-18 3q0 16 7.5 28t24.5 14zM156 786l1 -6v-5q0 -14 -10 -23q-8 -5 -25 -7l-24 4q-1 16 9.5 28.5t28.5 12.5q11 0 20 -4zM144 733q0 -18 -3.5 -27t-17.5 -6l-45 3l-1 10
q0 11 9.5 16.5t25.5 5.5l20 -1zM78 689q-7 -1 -10 -13l-3 -20q6 -6 19 -6h12q12 0 18 -3q30 3 26 29q-3 14 -24 14zM134 611q-15 -9 -41 -9q-23 0 -37 12q0 14 5 19.5t17 5.5l31 -3l14 3q14 0 14 -17zM130 589q3 -12 -3 -22t-20 -12l-15 4l-27 -2q-15 0 -15 13l2 11
q6 5 15 8t21 3l20 -1q14 0 22 -2zM127 532q-5 -11 -15 -14.5t-28 -3.5l-28 1q-6 3 -8 12l4 13l28 2l22 3q18 0 25 -13zM130 490q-3 -18 -29 -18l-26 1q-11 0 -17 -3q-6 2 -6 20l25 3l28 4q14 0 25 -7zM130 437l-20 -7l-18 -1q-25 0 -36 8q3 14 27 14q25 0 34 -2q12 0 13 -5
v-7zM134 404q-9 -11 -33 -11l-22 1l-18 3q0 9 10 10l14 -1q6 0 9 3zM134 355q-10 -8 -29 -8h-24l-3 13h56v-5zM137 311q-5 -3 -17 -3l-22 1v12h39v-10zM140 285v-7l-18 -3q-9 0 -15 6q3 6 15 8q10 0 18 -4z" />
    <glyph glyph-name="parenright" unicode=")" horiz-adv-x="405" 
d="M127 942l3 12q116 -70 186 -185t70 -249q0 -44 -15.5 -126.5t-71 -191t-148.5 -202.5h-9q43 49 86 106q38 50 70 113.5t54.5 146.5t22.5 164q0 57 -12.5 108.5t-42 106.5t-76.5 104q-42 45 -105 89l-4 -3q77 -60 127.5 -148.5t77.5 -191.5q0 -167 -55 -307.5t-165 -256.5
l-12 -4q-9 0 -19 10l-19 20q17 48 32.5 104.5t26 112.5t16.5 116t6 114q0 112 -19.5 206.5t-63.5 181.5l-50 108l57 -30zM42 974l57 -129q29 -72 46 -164q8 -48 12 -89.5t4 -91.5t-4 -101t-13 -102q-15 -99 -45 -194q63 59 105 139.5t55.5 153.5t13.5 117q0 137 -60 259.5
t-171 201.5zM139 864q0 -10 -9 -15q-10 0 -14 2l-15 22l3 15q12 1 19 -7zM170 811q0 -7 -8 -11l-11 -4q-13 0 -18 5l-10 22q-1 6 4 10l8 5q12 3 19.5 -4t15.5 -23zM194 765q-3 -9 -11 -13l-16 -3l-11 1l-9 3l-5 31q9 6 22 6q30 0 30 -25zM216 718q-2 -13 -23 -13l-18 1h-14
q-7 7 -7 24l23 7l20 4q19 0 19 -23zM228 681q0 -14 -11 -16l-28 -5q-22 -3 -23 12q-3 12 11 15l17 4h21q13 0 13 -10zM240 637q6 -12 -5 -16l-25 -4l-20 -1q-13 0 -14 13v12l24 2l20 4q13 0 20 -10zM247 591q2 -7 -1.5 -11.5t-10.5 -3.5l-30 -4q-14 0 -20.5 3.5t-6.5 15.5
q8 0 21 5l24 5q13 0 24 -10zM185 548v-8q0 -6 4 -7l27 -1l23 3q9 3 15 13q-8 6 -23 6l-23 -3zM254 505v-7l-69 -3q3 14 25 14l24 -1q10 0 13 2zM247 462q-11 -7 -27 -7h-28l-3 9q11 7 28 7h30v-9zM240 431q0 -9 -11 -10q-17 0 -22 -3q-10 0 -15 6l17 7l17 3zM235 393
q-10 -10 -27 -10h-9l-5 2l-2 2l12 6l17 3zM219 347h-15q-7 0 -15 4q0 6 11 6l19 -1v-9zM201 323q-1 -6 -2 -7.5t-2 -2.5h-8v10h12z" />
    <glyph glyph-name="comma" unicode="," horiz-adv-x="255" 
d="M196 99l19 -30q8 -14 10 -31q0 -18 -8.5 -32.5t-25.5 -27.5q-29 -23 -72 -40q-8 3 -7 8q34 10 61 28.5t39 50.5l2 18q0 15 -8 22q0 -39 -31 -68t-75 -42q-9 0 -22 6t-21 14l27 27q7 9 10 23q-14 6 -27 18t-16 26l-2 22q0 29 17 46.5t48 17.5q10 0 15 -1t17.5 -6.5
t29.5 -20.5q14 -11 20 -28zM70 128q-14 -19 -14 -39q0 -15 9 -27q6 -12 16 -18l28 -9l1 -12l-3 -10q11 12 21 9q3 -9 -6 -15q-3 -3 -12 -5q-6 0 -7 5l3 2l-12 -19q13 6 25 13t22 14q17 12 24 35q5 10 5 23q0 11 -4 22l-9 23q-6 10 -19 16.5t-30 6.5q-23 0 -38 -15zM152 112
v-6l-27 -4l-32 -3q-12 0 -23 4q4 11 11.5 18.5t18.5 11.5q36 4 52 -21zM157 94l2 -14q0 -15 -10 -18l-16 2l-19 -2l-19 -2q-14 0 -20 5l-7 16q8 13 28 13h15h12q8 2 12 2zM151 57l2 -9q0 -6 -6 -12l-14 -6q-10 -2 -14.5 7.5t-10.5 10.5q-7 -1 -9 -2l-5 5q8 4 25 4h16
q12 0 16 2z" />
    <glyph glyph-name="hyphen" unicode="-" horiz-adv-x="384" 
d="M270 558l-112 -3l-119 -9l1 -12v-12v-20q0 -29 4.5 -43.5t23.5 -28.5l47 -3q33 0 99 7l98 8l4 23l-2 22l-1 26zM343 426q-31 -6 -58.5 -10.5t-56.5 -4.5l-135 -3v4l236 16q5 13 5 34l-1 26l1 16h4zM261 552l2 -20l1 -23v-16l-211 -14l-5 56l111 12q49 4 69.5 4.5
t32.5 0.5zM241 502q-17 -2 -45.5 -5t-49.5 -3l-78 -1v5q9 0 42 2t58 2l73 5v-5zM241 527q-23 -5 -37.5 -7t-27.5 -2l-77 -2l-23 -2q-6 0 -11 9v6q9 0 43 2t59 2l72 5l2 -6v-5z" />
    <glyph glyph-name="period" unicode="." horiz-adv-x="234" 
d="M191 102l9 -12l4 -11l-3 -8l-10 18q-3 7 -8 9q-4 -1 -3 -7l3 -5q0 -39 -19 -51l-26 -13q-2 0 -3.5 -2t-2.5 -3q5 -3 17 -5q14 0 24 5q15 9 21 25l11 27l2 -11q0 -8 -5 -17l-19 -26q-18 -10 -36 -10q-11 0 -42.5 15t-49 27.5t-17.5 46.5q0 27 18 45l22 12l21 4l15 -3
q14 -2 40.5 -25.5t36.5 -24.5zM59 129q-5 -7 -8 -24l-2 -26q2 -10 8 -15l21 -15l17 -2q24 0 42 21q10 10 10 29q0 10 -5 19q-3 14 -14 20t-26 8q-23 0 -43 -15zM122 126v-6l-26 -4h-18l-14 -2q-3 4 0.5 10t11.5 6l25 1q12 0 21 -5zM134 102q0 -6 -7 -7l-11 -1l-32 -3l-26 -2
l-2 9q9 6 31 6h16q18 0 26 4zM130 81q-3 -6 -11 -9l-17 -2q-24 0 -28 -2l-7 3q-1 3 -1 5zM106 58q2 -5 -2 -6l-8 -1l-8 2q4 7 10 7z" />
    <glyph glyph-name="question" unicode="?" horiz-adv-x="589" 
d="M499 874q20 -11 37 -33q14 -19 23 -47l3 -37q0 -74 -42.5 -116.5t-134.5 -100.5t-123 -96l-3 -18q0 -16 7 -26.5t23 -11.5q18 0 35.5 9t24.5 28q1 3 1 10q0 3 -2 13l-6 25l19 2q23 0 42 -8t34 -19q23 -23 37 -47.5t14 -49.5q0 -10 -5 -31t-17.5 -43.5t-55.5 -51
t-121 -28.5q-48 0 -92 21q-38 17 -59.5 74t-43.5 76q-13 44 -13 78q0 39 13 73t44 63l122 85l-3 9l-1 8q0 8 6 11l14 -16l46 45q12 14 12 37l-1 9q-28 31 -71 31q-6 0 -16.5 -1t-28.5 -4.5t-35 -38.5q0 -20 3.5 -33t12.5 -29l-40 -9q21 -9 41 -9q10 0 15 1q6 -2 6 -7l-6 -9
l-20 -3q-30 0 -69 30.5t-50 35.5q-30 37 -39 56.5t-9 41.5q0 48 27 87t75 66q54 24 120 24q45 0 82.5 -9.5t78.5 -36.5q37 -22 58 -39q18 -13 31 -41zM400 122q11 -11 18.5 -25t7.5 -29q0 -8 -5.5 -22.5t-14.5 -24.5t-23 -16q-9 -3 -26 -5q-23 0 -56 28t-55 31
q-29 29 -29 64q0 9 4 21t16.5 24.5t28.5 17.5l11 1q29 0 70 -30q37 -29 53 -35zM165 801q-9 -15 -9 -37q0 -27 11 -33l-2 15q0 21 12.5 34.5t36.5 29.5l21 5l23 2q48 0 78 -26l-10 19q-31 28 -77 28q-54 0 -84 -37zM520 833q3 -12 5 -22t2 -24q0 -32 -8 -56l-24 -64
q-35 -35 -71 -60l-100 -64q-37 -25 -59.5 -47.5t-22.5 -45.5l2 -11q25 48 88 89l120 75q63 45 84 106q3 15 5 29t2 27q0 23 -5 38q-4 18 -18 30zM469 361q-16 -51 -59.5 -87.5t-96.5 -36.5q-51 0 -92 12t-67 43q3 -20 21 -37q8 -6 21 -14t29 -16q17 -4 36 -7t35 -3
q43 0 76 11.5t60 37.5q18 21 28.5 41t10.5 40zM135 964q-41 -26 -68 -64q-25 -38 -25 -82l3 -27q3 -12 20 -29q17 -15 36 -21q-9 12 -12 29l-2 40q5 24 18 40t46 43q36 15 74 15q39 0 69 -18q27 -20 46 -51t19 -64l-3 -25q-21 -48 -77 -89l-107 -75q-54 -44 -71 -99l-3 -43
q0 -27 5.5 -47t18.5 -38l57 -42q35 -22 65 -22l16 1l-7 5q0 14 17 14l16 -1l11 3q12 -3 11 -16q14 3 27.5 7t25.5 10q22 11 42 34l20 57q0 11 -7 19q-6 15 -23 24t-25 3l1 -13q0 -15 -6.5 -28t-25 -30.5t-47.5 -17.5l-18 1l-38 10q-25 12 -42.5 36.5t-17.5 50.5
q23 72 126 140.5t124.5 93t29.5 50.5q3 12 5 25t2 28q0 47 -24 91t-76.5 69t-111.5 25q-60 0 -114 -22zM262 168q-32 -17 -32 -62q4 -18 20.5 -28.5t37.5 -10.5l16 2q16 10 25 24t9 31l-3 16q-3 13 -17.5 22t-33.5 9zM388 110l-4 -37q-7 -16 -21 -29q-10 -9 -30 -17l7 -5
l18 -4q30 0 41 20q8 19 10 33q0 25 -21 39zM78 814l-3 -16q-2 -7 -4 -9l-11 4q-3 4 -5 12l4 18q16 1 19 -9zM451 789l-10 -30l-16 1l-57 -3l-1 14q0 14 4 21t18 9l11 -1l16 2l15 2q14 0 20 -15zM437 743q-3 -15 -10 -23.5t-22 -10.5l-60 2q0 20 23 32l24 3l22 4q12 0 23 -7z
M400 699q-3 -14 -14 -26q-9 -12 -25 -15q-6 1 -10 1t-14 -2l-16 -2q-12 0 -20 7q9 26 42 32q10 0 18.5 0.5t38.5 4.5zM326 632q-12 -17 -35 -21l-54 -4q25 37 72 37l17 -2v-10zM250 591q-9 -21 -31 -30t-52 -9l-2 4q7 21 29 28t56 7zM190 540q0 -13 -7 -20t-22 -9h-39
q0 20 18 25l32 4h18zM165 488q1 -9 -6 -13l-21 -2h-17q-12 0 -18 3q-3 8 2 12l14 8h24q9 0 12 -1.5t5.5 -2.5t4.5 -4zM158 435l-28 -1q-18 0 -27 5q-3 7 4 10l15 6h36v-20zM403 428q0 -6 -8 -6l-15 1v9h13q6 0 10 -4zM177 404l-29 -3l-29 -1q-3 9 7 9q6 0 8 1q0 1 1 2h42v-8
zM400 391q-11 -11 -31 -11l-17 4q5 10 21 10q10 0 16 -2zM214 372l-26 -7l-26 -3l-20 3l-4 7l27 3l27 3q14 0 22 -6zM106 886q5 -9 -8 -26l-13 -18q-9 -7 -26 -5q-6 6 -6 13t4 15l9 16l31 6zM372 352v-7q-25 -5 -49.5 -8.5t-58.5 -3.5l-82 -4l-5 7q20 5 44 8.5t46 3.5z
M444 842q1 -4 1 -11q0 -8 -5 -16t-21 -5q-12 0 -19 -2l-13 -1q-16 0 -24.5 6.5t-5.5 25.5q0 13 13 14l23 1h14q10 0 16 2q17 0 21 -14zM380 925q-9 -5 -28 -8l-31 -2l-49 3l-55 4q-11 0 -22 -1t-21 -4q-19 -3 -36 -17l-26 -4q-16 0 -27 4q23 37 63.5 52.5t93.5 15.5l24 -1
l38 -3q33 -10 50 -19q16 -6 26 -20zM425 881v-12l-32 -4l-31 -3q-17 0 -27.5 7t-21.5 31l34 7l31 2l31 -3z" />
    <glyph glyph-name="A" unicode="A" horiz-adv-x="988" 
d="M572 922l286 -807l51 -63l-2 -6l-303 -4l-69 65q3 15 26.5 37.5t27.5 31.5l-42 122h-149q0 -12 9 -23t21 -16q17 -3 35 9l33 25q6 -11 9 -25l3 -27q0 -10 -1 -21t-4.5 -25l-5.5 -21.5t-8 -24.5q-9 -21 -30.5 -33.5t-45.5 -12.5q-12 2 -21.5 6.5t-15.5 15.5l6 16q3 6 13 3
l12 -19q4 -6 13 -10q23 4 40 21t29 43l3 28l3 28q0 16 -6 27q-16 -13 -44 -13q-24 0 -44 10l-3 -15q0 -15 6.5 -30t22.5 -16l12 1q11 0 11 -16q-5 -5 -21 -7l-11 1l-8 2q-12 15 -18.5 38t-12.5 84h-8q0 -29 -30 -90t-30 -92q0 -14 1 -19.5t8.5 -19.5t28.5 -31l-34 -5l-45 -1
l-50 -1q-27 0 -47 -5q-65 0 -110 51l-14 14l-4 13q0 8 9 14l77 76l260 785q23 10 41 10q32 0 81 -37q46 -34 59 -41zM345 929q-33 -81 -87 -240l-48 -141.5t-35 -96.5q-14 -40 -33 -82t-42 -88q-15 -17 -37 -17l-12 2l-5 13q0 7 21 11.5t26 14.5l46 79q19 63 69 200l69 196
l41 141l-10 1q-21 0 -32 -30t-19 -36q-42 -66 -86 -109t-101 -43q-5 3 -7 15l9 6q6 3 19 3h13q15 0 43.5 17t65.5 67.5t63 116.5l24 3l23 3q13 0 22 -6zM806 735q32 -39 54 -61q17 -17 52 -26v-10q0 -6 -8 -7q-35 8 -66 46l-46 56l-52 81q-36 63 -65 85q6 -41 35 -110
l35 -95l21 -7q12 -6 12 -15l-3 -10l-3 -4l17 -3q11 0 13 -12q3 -8 -4 -15l-16 -12q11 -3 16 -9q4 -3 4 -10v-27q5 -5 37 -59t70 -54l4 -9l-1 -13q-5 -6 -14 -6l-13 4q-34 31 -56 67t-42 87l-26 13q-5 6 -1 16l7 5q-9 3 -17 11t-8 17q0 5 6 13l7 3l5 5l-20 15l-19.5 48.5
l-27.5 64.5q-29 70 -43 119q57 -6 99 -87t57 -95zM620 914l72 -201l115 -327l100 -286h-10l-94 262l-112 312l-80 240h9zM303 907q-6 -35 -22 -71q-13 -34 -39 -81l-20 -9q0 -1 1 -3.5t6.5 -10t4.5 -16.5q-3 -6 -14 -6t-17 -3l9 -22q-10 -10 -53.5 -67.5t-92.5 -57.5h-10
l-2 11q0 11 25 14t33 12q17 14 46 54l30 41l-7 24q1 5 12 7h14l8 1q-1 3 -2 5.5t-6 7t-4 16.5q37 15 60.5 76t39.5 78zM379 3l-136 -1q-17 0 -49 -1t-47 -1v8l38 2l68 1h27h50l29 4l-7 24l19 -18q8 -5 8 -18zM943 3l-79 -1l-82 -1h-18q-66 0 -126 6l19 8l286 -3v-9zM337 338
l-39 -113q0 -6 -9 -31t-9 -34q0 -14 15 -26l64 179l80 4l48 -1h36q9 0 10 8l-5 14h-191zM374 880l15 15l12 -1l21 1l22 1q17 0 21 -2q6 0 16 -7l8 -24q0 -8 -8 -13l-18 1l-27 -1l-24 -1q-32 0 -41 19l-15 -45l11 18h35l37 1h26h16q11 -3 15 -4l5 -11l3 -12q0 -9 -8 -14
l-18 -2h-14l-34 1l-33 1q-25 0 -33 -2q-9 10 -8 17l-12 -31l5 7q8 3 19 3q10 0 15 -6q3 -8 -6.5 -27t-20.5 -16l8 -8l-1 -15l-7 -14l-12 -3q-15 0 -22 17q2 9 3 11t5 8t15 4l-11 16l-187 -567l-35 -33q-27 -25 -34 -40l179 -4q-5 18 -26 36l-40 36q7 16 33.5 109t58.5 134
h225l12 -10l46 -125q25 -68 42 -127l-43 -49h241l-64 52q-4 10 -30 81q-52 141 -62 170l-100 291l-35 102q-26 74 -60 160q-17 6 -28 6q-26 0 -37 -48q-9 -46 -16 -56zM547 663l-28 -2l-31 -2q-18 0 -26.5 4t-17.5 19q-3 12 8 15l25 -4l19 1l20 2q15 0 23 -6.5t8 -26.5z
M344 694l3 -10q0 -11 -13 -21l-19 4l-2 10q0 19 20 19zM562 640q-3 -12 -13 -16l-28 -4h-24q-11 0 -16 -2l-14 5q-5 3 -8 10q0 11 9 16l22 4l31 -1q15 0 21 3l15 -5q5 -1 5 -10zM330 643l-2 -16q-3 -9 -15 -9l-15 7q-3 10 2.5 17.5t16.5 9.5q8 0 13 -9zM572 606q6 -6 6 -15
l-4 -12l-18 2l-29 -3l-20 -2q-11 0 -17.5 1.5t-15.5 9.5q0 20 21 20l22 -1q10 0 15 3l13 -2l16 1zM310 606l3 -10q0 -13 -13 -17q-12 0 -17 8q1 8 9 16q8 6 18 3zM295 545q-4 -5 -16 -5q-6 0 -6 10l3 14l9 3q13 0 14 -13q-2 -7 -4 -9zM589 545l-20 -5l-25 -1h-24l-24 1
q-7 11 -7 20q15 3 27 5t25 2q29 0 48 -10v-12zM603 506l-31 -1l-28 -1q-25 0 -39 5q-6 14 15 17q8 -3 19 -3l17 1l17 1q26 0 30 -19zM283 503q-4 -2 -19 -4q-6 3 -6 10q0 6 3 9.5t10 5.5q6 0 12 -6t0 -15zM269 484l4 -9q0 -12 -12 -15q-7 0 -9 1l-6 4q-3 10 4.5 16t18.5 3z
M615 479q-11 -16 -32 -16l-24 2l-20 3l-16 -3l-3 12q0 6 7 7h21l23 1l24 -1q11 0 20 -5zM498 465q10 -10 10 -16l-60 -6l-66 -2h-12h-38l-38 1h-11q-3 1 -5 6l1 9l19 8h200zM623 433q-19 -8 -44 -8q-24 0 -44 8q-3 7 6.5 10.5t10.5 4t2 1.5q5 -3 21 -5l28 2q14 0 20 -13z
M261 442q3 -12 -9 -15q-6 0 -14 4q-6 3 1 11l11 4q6 0 11 -4zM246 405q1 -6 -2 -7l-7 -2h-7v12q13 0 16 -3zM633 403l-25 -7l-27 -3q-15 0 -27 6l25 6l27 4q15 0 27 -6zM230 366l-3 -7l-12 3q-2 9 9 9q6 -3 6 -5zM635 366q-13 -11 -32 -11l-14 1l-12 3v10l16 -1h22
q15 0 20 -2zM516 770q3 -8 -2 -12l-9 -8q11 -2 17.5 -6.5t9.5 -15.5q4 -12 -5 -16l-19 -3l-16 2l-18 -1q-12 0 -18 -2q-14 0 -22.5 6t-8.5 24l19 12q-16 0 -27 6.5t-11 21.5q0 10 11 14l17 -1l20 1l22 1q17 0 25.5 -4t14.5 -19zM219 335v-7h-11v10q8 0 11 -3zM638 328h-39
v10h25q13 0 14 -10zM401 755l50 -143q29 -79 42 -125l-22 -5l-26 -1h-30q-22 0 -29 -2l-91 2q12 59 40 136l54 151zM447 968q-3 3 -9 3l-24 -4q-12 -1 -16 -26q0 -23 -7 -30l20 -6l18 -1l38 3l-9 32q-3 16 -11 29zM428 616l-39 -120h18q9 0 13 7l22 80q0 20 -14 33zM452 545
l-11 -27q-3 -11 -1 -22h18l13 3zM459 750l-12 3z" />
    <glyph glyph-name="B" unicode="B" horiz-adv-x="945" 
d="M759 900q48 -33 83 -74q32 -38 38 -67l5 -32v-11q0 -53 -24.5 -95.5t-71.5 -75.5l-61 -42l61 -50q8 0 22 -6t52.5 -45t38.5 -125q0 -38 -19 -87.5t-85 -105.5q-61 -53 -138 -71l-125 -11l-137 -3l-113 1l-111 1v5l474 15q39 10 71.5 25.5t67.5 42.5q64 51 91 119l15 68
q0 24 -4 45.5t-13 41.5q-17 40 -53 63q0 -12 14.5 -30t17.5 -29l6 -30l3 -31q0 -48 -21.5 -91t-76 -87.5t-151.5 -64.5t-221 -20h-71l-70 1h-50l-67 -4q-37 25 -54.5 44t-23.5 36l61 54l-10 753l-36 27q-30 21 -30 41q16 0 72 2.5t84 2.5l156 5q131 0 228.5 -21.5
t175.5 -83.5zM150 985l-27 -3l-27 1q-15 0 -26 -6l29 -26q14 -11 22 -24l14 -754l-46 -50l486 6q72 15 126 51t72 82q16 46 16 78q0 43 -27 91t-93 86.5t-143 46.5v8q66 16 97 27q28 8 62 33q40 22 60.5 62.5t20.5 89.5l-1 15l-1 13q-45 105 -139.5 139.5t-236.5 34.5
l-87 -1q-14 0 -42 -1t-43 -1h-25h-26zM832 815q9 -14 12 -32l4 -40l-1 -26v-24q-9 -51 -52.5 -88t-109.5 -72l13 -12l15 -3q24 12 47 27t44 35q40 37 58 84q6 26 6 51q0 59 -36 100zM602 846q14 -37 14 -77q0 -61 -29 -102q-30 -49 -79.5 -67t-121.5 -18l-74 2l-53 2l-5 74
l-1 90v86l1 88q31 5 65 8t66 3q38 0 65.5 -2t63.5 -9q27 -9 52 -31t36 -47zM709 873v-10l-30 -2l-26 -2q-17 0 -27 5.5t-15 20.5v12l27 2l24 3q14 0 25 -5q13 -3 22 -24zM228 858l-10 1l-23 -3l-24 -3q-24 0 -24 25q0 13 16 14l26 1l39 -1v-34zM235 824q-9 -17 -34 -17
l-19 1q-12 0 -18 2l-12 -1l-3 13l1 17l22 6l24 3q14 0 24 -5t15 -19zM736 827v-12q-10 1 -34 -3l-30 -4q-25 0 -32 23q-3 10 6 13l21 4l13 -1h12l17 2q17 0 21.5 -4t5.5 -18zM651 916q-18 -9 -33 -9t-55 18.5t-60 21.5l-49 4l-68 1l-74 -1l-77 -1q-3 -6 -3 -21q0 -13 -4 -20
q-9 -6 -26 -6l-26 3l-26 3q3 17 -12.5 34t-18.5 25q27 0 45 1q88 5 108 5l119 6q83 0 142 -12.5t118 -51.5zM748 775q-6 -5 -21 -8.5t-42 -3.5h-30q-6 8 -8 21q0 12 13 13l17 -1l19 1l19 1q29 0 33 -23zM232 785v-11q0 -7 -2 -11q-6 -4 -10 -4h-68l-3 15l1 19l23 2l26 2
l20 -3q7 -1 13 -9zM651 751q-5 -3 -8 -14q0 -10 -3 -13q12 -6 43 -9q32 0 38 -2q22 6 22 31l-24 6l-26 2l-24 -1h-18zM228 744q3 -3 5 -15l-1 -12q-10 -3 -20.5 -5t-22.5 -2l-19 1q-12 0 -18 2v31h76zM721 698q-3 -14 -13 -23q-9 -6 -23 -6l-22 1q-15 0 -23 2l-14 -1l-5 7
q3 14 14.5 20t27.5 6l31 -3zM232 690q3 -11 -5 -18q-7 -4 -19 -8h-17l-17 -1q-21 0 -22 16q3 8 12 14l23 4q15 0 21 -2q11 0 24 -5zM235 632q-22 -8 -45 -8q-22 0 -38 8q3 3 3 17l50 6q30 0 30 -23zM679 656q0 -9 -11.5 -17.5t-22.5 -10.5l-51 4q1 15 9 18.5t13 4.5t17 1
l32 -1zM599 610q-9 -9 -24 -14.5t-31 -5.5l-11 1q6 9 19 15.5t28 6.5zM238 594q-4 -6 -16 -10l-22 -3l-23 2q-15 2 -22 5q0 13 8.5 18.5t21.5 5.5l26 -3l21 -3zM499 555l-261 -3q-3 -4 -15 -11l-26 -4l-18 1q-11 0 -17 2l-7 17l10 10l167 -1q27 0 83 -1t84 -1v-9zM578 540
q-8 -6 -25 -6q-13 0 -20 2l-19 9q9 6 24 6l22 -3q9 -2 11 -3t7 -5zM606 429l11 -54l5 -55q0 -25 -1 -36.5t-7 -31.5q-6 -28 -27 -55q-15 -17 -37 -23.5t-50 -6.5l-29 1l-30 1h-175l-9 364l9 7l39 -3l41 -1h54q104 0 146 -26.5t60 -80.5zM228 521q6 -9 -2 -14l-15 -8
q-5 3 -14 3l-25 -3q-11 0 -17 12q5 4 14 7q15 6 33 6zM645 511q-12 -7 -30 -7q-21 0 -37 5l-10 16l15 -1l28 1l20 -3q7 -1 14 -11zM691 475v-6l-16 1l-19 -1l-20 -1l-23 3q-8 3 -14 13l17 -1h18l20 1q17 0 22 -2q8 0 15 -7zM232 469q-9 -3 -17.5 -5t-19.5 -2q-19 0 -36 7
q5 13 27 13q25 0 33 -2q12 0 13 -5v-6zM728 438q-11 -3 -22.5 -5t-26.5 -2l-29 1l-26 3l2 15l95 -2zM227 435l-25 -6l-18 -3q-11 0 -22 9q7 10 24 10h34l3 -4zM747 404v-5l-17 1l-38 -2l-27 -2q-18 0 -29 3q-1 6 1 8l8 4q15 -3 48 -3q35 0 54 -4zM220 399l-28 -4
q-16 0 -27 4q15 9 36 9q11 0 19 -4v-5zM755 373q0 -9 -11 -9q-16 0 -19 -3l-15 1l-18 -1h-12q-23 0 -25 12h100zM223 365v-7l-30 -3q-17 0 -26 6q6 11 26 11q19 0 30 -7zM755 338v-11l-20 2l-23 -1q-14 0 -22 -2q-19 0 -30 12l33 3l37 -2zM213 327q-6 -6 -16 -6q-9 0 -14 2
l-9 3q-2 9 8 9q13 0 16 3l12 -3q3 -4 3 -8zM339 861v-260l16 -1l11 3l-2 228l9 11l56 1h23h23q10 2 14 2h25t26 -2q12 0 22 -3t25 -9q-24 17 -61 25.5t-74 8.5h-27t-33 -2h-28t-25 -2zM388 827l-7 -3l4 -223q41 0 75 6t68 26.5t53 56.5q10 18 15 37.5t5 44.5l-1 15l-1 13
q-13 9 -36 14.5t-41 5.5l4 -15q-7 -13 -23 -13l-19 1l-13 -3q-29 -20 -45 -59q-8 -21 -12 -38t-4 -39t2 -29h10l5 2v6q11 35 40 57t67 30q15 -6 14 -19q-6 -6 -18 -6h-23q-28 -8 -45 -35l-28 -50l-17 -3q-20 0 -26 15l6 86q15 47 38.5 81.5t63.5 34.5zM388 418l1 -116
q0 -19 1 -58t1 -59l48 -3l39 -2q34 0 57.5 6.5t44.5 28.5q27 48 27 107q0 38 -13 70q-27 15 -59.5 21t-73.5 6l-37 -1h-36zM351 457l-5 -4v-199l5 -3q-7 -14 -7 -30l1 -18l1 -18h27l-4 234l12 16h32l33 1q45 0 73 -4q10 -1 25 -3.5t36 -9.5q-17 20 -45 28.5t-61 8.5l-42 -1
h-19t-21 -2h-22q-13 3 -19 4zM514 346q6 -3 6 -8q0 -4 -5.5 -8.5t-12.5 -4.5l-15 3l-18 8q-10 7 -21 26l-17 37q-6 2 -9 -4l-3 -6l-1 -13q0 -41 25 -74.5t64 -55.5l12 -1q26 0 37 20v20q8 5 12 -2l4 -13q0 -13 -6.5 -21.5t-18.5 -14.5l-20 -5q-13 0 -28 7l-28 15
q-27 27 -47 61q-17 32 -17 66q0 23 5 36l6 1h5q21 0 36.5 -36.5t36.5 -36.5q10 0 18 4z" />
    <glyph glyph-name="C" unicode="C" horiz-adv-x="949" 
d="M727 984q18 -3 44 -29l36 -31l55 -250l14 -13l12 -8q0 37 -21 114q-10 39 -15 65.5t-5 47.5l10 -10l49 -243h-11q-30 25 -98.5 94.5t-122 103.5t-118.5 34h-18l-36 -6q-27 -6 -60.5 -27t-57.5 -59q-9 -22 -17.5 -51t-13.5 -60t-8 -68t-3 -68q0 -98 16 -193
q16 -68 29 -98.5t53 -45.5l50 -3q79 0 141.5 31.5t92 77.5t36.5 77q3 15 5 31t2 34v18l-1 10q22 -3 37 -19l44 -51q22 -32 36.5 -69.5t14.5 -74.5q0 -34 -11 -59q-48 -91 -139 -138.5t-202 -47.5q-80 0 -153.5 33t-132.5 91l12 7q-107 66 -168 180t-61 247q0 131 64 242.5
t139 147.5t111 44t74 8q55 0 104.5 -11t101.5 -31l9 -1h5q23 0 49 12zM608 788l4 -34q0 -38 -20 -77.5t-56 -75.5l-20 1l7 -14q6 -7 8 -15q0 -8 -11 -15l-22 7q3 -6 3 -16q0 -23 -21 -20q3 -3 3 -9l-3 -7q-34 -7 -45.5 -33.5t-18.5 -61.5l-4 -42q0 -49 28 -84
q19 -16 35.5 -24t34.5 -8q12 0 18 1t14 7q14 9 18 26q0 19 -18 28l-21 -10q-3 3 -3 8q0 2 4.5 10t16.5 8q12 1 22.5 -7.5t13.5 -21.5q3 -17 -8.5 -33.5t-23.5 -23.5l-19 -7l-11 -1q-14 0 -27 5l-46 26q-36 24 -51 57t-15 74q0 43 28.5 146.5t28.5 136.5l-6 17v14q13 6 19 -6
l7 -14q0 -48 -32.5 -138t-32.5 -133q0 -21 1.5 -30.5t2.5 -14t6 -16.5q6 63 20 100q13 40 50 59q-3 4 -4 17l11 2l11 1q0 5 -8.5 12t-10.5 13q0 6 4.5 11.5t14.5 5.5q12 0 19 -7q3 -3 5.5 -4.5t4.5 -1.5l-13 18l-5 12q0 7 11 11l14 -3q18 0 30 22l19 37l16 37q8 24 8 45
t-5 31q-3 10 -13 11h-16q-4 6 -5 9q5 9 19 11q13 0 22.5 -7.5t12.5 -21.5zM710 553q4 -1 7.5 -9.5t1.5 -14.5q-3 -3 -10 -5q-1 1 -2 1q-8 4 -13 10q-9 11 -16 12q-60 0 -112.5 -37t-93.5 -95l-14 -35q-6 -18 -6 -33q0 -14 9 -32q0 -7 11 -18l12 -14q-9 -5 -16.5 1t-19.5 31
q-3 11 -5 20t-2 21q0 45 26 77l64 67q36 29 69 46t65 17q25 0 45 -10zM513 891q-55 0 -104 -30.5t-72 -83.5q-17 -56 -32 -134q-5 -31 -8 -67.5t-3 -72.5q0 -85 17 -152.5t58 -123.5q-8 24 -15 53t-13 60t-9 63t-3 62l-1 42v42q0 89 12.5 151t55.5 111q64 64 156 64
q10 0 22.5 -1t26.5 -4q-13 13 -40 16zM637 940q-25 9 -51 17q-12 4 -54 15q-22 5 -51.5 9t-50.5 4q-41 0 -110.5 -20.5t-140.5 -104t-96 -167t-25 -145.5q0 -93 36 -180t104 -149q30 -24 63.5 -42.5t74.5 -34.5q77 -27 156 -27q31 0 45.5 1t46.5 8t81.5 30.5t94 71
t50.5 107.5l3 25q0 41 -28 75q0 -68 -38.5 -135.5t-104.5 -96.5q-65 -34 -150 -34q-69 0 -126 24q-64 22 -103 84q-35 58 -47 135l-1 67l-1 70q0 122 22 207.5t94 148.5q26 17 58.5 27.5t59.5 10.5q85 0 172 -62l143 -100l-48 182l-34 -17q-15 -5 -31 -5zM490 571h-6l11 -6z
M865 322l2 -7l1 -14l-3 -31l-3 -28q-18 -61 -73.5 -105t-128.5 -75q-23 -8 -54 -13l-58 -4q-69 0 -140 21.5t-133 61.5q62 -62 148.5 -87.5t184.5 -25.5q85 9 157 58.5t112 127.5q6 18 6 37q0 22 -3.5 37t-5 20.5t-9.5 26.5zM223 793l-7 -23q-3 -9 -18 -11q-6 3 -21 3h-15
q-10 0 -13 2l-3 10q0 11 15 23l32 -1zM208 748q0 -17 -2 -22q0 -5 -9 -11l-74 3q-1 3 -1 6.5v4.5q0 8 5 15q7 7 23 8l30 -3q19 -3 28 -1zM198 682q-12 -9 -31 -9l-22 2l-24 2l-13 -1l1 20q2 6 11 9l18 -3l17 1l17 1q12 0 18 -3.5t8 -18.5zM190 660q3 -3 3 -10v-12l-22 -5
l-28 -1l-49 3q2 15 9.5 21t21.5 6l27 -3l21 -2zM183 615q4 -2 5 -11l-1 -10l-50 -3q-29 0 -50 7q3 11 10 14.5t21 5.5l28 -3l23 -2q10 0 14 2zM182 573q2 -5 2 -7l-1 -9q-14 -3 -27.5 -5t-28.5 -2l-26 1q-7 0 -20 7l6 18zM245 841q3 -9 -4 -15l-13 -11h-49q-4 5 -1 13l15 16
l11 -1l25 1zM697 935q14 -18 20 -37l19 -72q-100 74 -168.5 100.5t-124.5 26.5q-27 0 -48 -4q-24 -3 -36 -10l-40 -21q-29 -16 -42 -16q-11 0 -20 4q33 33 86 52t107 19q29 0 39 -1.5t24.5 -5.5t32 -10.5t38.5 -16.5q42 -18 70 -18q15 0 23.5 2t19.5 8zM183 529q3 -9 -4 -13
l-18 -2l-74 4v12q2 8 8 9l19 -1h14l14 1q15 0 23.5 -2t17.5 -8zM183 491v-8l-23 -3l-23 -1h-28l-19 4l-3 6l8 11h25t25 -2q20 0 38 -7zM183 454v-10l-20 -2l-24 -1h-37l-3 18h22l23 1q27 0 39 -6zM187 418q-9 -9 -28 -9l-26 3l-25 6l27 4l29 -2zM197 382l-15 -5l-19 -1h-20
l-18 1v12l34 1l20 -1q10 0 18 -7zM201 351l-29 -4h-15l-18 4q6 9 19 9l28 -5l15 1v-5zM281 891q-1 -11 -10 -20l-22 -16l-44 4q4 15 20.5 25.5t34.5 10.5q13 0 21 -4z" />
    <glyph glyph-name="D" unicode="D" horiz-adv-x="1005" 
d="M697 904q25 -14 56 -45l56 -56h15q64 -64 100 -145.5t36 -169.5q0 -47 -27 -148.5t-144.5 -210t-212.5 -119.5l-121 -10l-65 -1l-123 2l-98 3v8l88 -1l92 -1q116 0 199.5 12.5t159 54t132.5 124.5q51 63 78.5 140t27.5 157q0 44 -9 92q-15 45 -34.5 83.5t-50.5 72.5
q54 -108 54 -236q0 -72 -17 -134t-68.5 -140.5t-149 -138t-213.5 -59.5h-24l-15 2l-303 3l-70 70l65 76v742l-41 41q-12 12 -12 28h404q55 -9 109 -33t126 -63zM80 988l43 -50v-763l-46 -48l77 4l132 -6l123 -5q55 0 99.5 6t83.5 20q77 26 129 101q49 59 76 137t27 162
q0 124 -56 229q-60 130 -178 174.5t-288 44.5l-114 -3zM613 914q-7 -7 -23 -7h-18h-10q-39 29 -85.5 39.5t-107.5 10.5l-63 -1h-30t-33 -2q-3 -6 -3 -20t-3 -19t-10 -8l-12 1l-18 -1l-15 -1q-22 0 -32 13l2 10q0 7 -18 22l-18 18l10 7l54 -3l57 -1h50l50 1q88 0 156 -11.5
t120 -47.5zM593 834q30 -52 43.5 -116t13.5 -131q0 -61 -9 -126l-21 -123q-12 -58 -38 -95.5t-65 -60.5q-36 -11 -80 -16l-101 -3h-74l-9 10l2 712l2 37q0 14 13 20h55q131 0 187 -27t81 -81zM234 892l7 -21l-3 -10l-44 -4q-25 0 -44 4l-5 18q0 9 8 13l23 4l31 -3zM672 865
q-11 -6 -37 -9l-27 -2l-18 22q-6 8 -4 19l19 1q23 0 38 -7q14 -5 29 -24zM239 830q0 -14 -7 -20l-25 -4l-23 1l-11 -1l-20 5q-9 3 -6 16q-3 9 4 12l15 7h21q28 0 36 -3.5t16 -12.5zM713 818v-10q-12 2 -30 -2l-29 -4q-16 0 -21.5 5t-8.5 15l-3 8q-2 6 4 9l13 -1l20 1l20 2
q13 0 21 -4.5t14 -18.5zM231 793h-22l-21 1q-24 0 -41 -7v-16l3 -11l13 1l20 -1q14 0 22 -2q14 0 21 4t12 19zM737 777v-15q-12 2 -33 -2l-30 -4q-24 0 -33 19q0 11 11 12q11 0 14 4l13 -1l25 1l18 -3q8 -2 15 -11zM231 714q-9 -6 -27 -6l-24 1l-16 2l-14 -1l-4 13l4 18
l23 3l18 1l17 -1l23 -3v-27zM762 722v-12l-102 -3q-3 3 -3 13l-1 14q15 1 28.5 2.5t32.5 5.5q16 0 26 -5q11 -3 19 -15zM234 683q-6 -9 -20 -13l-27 -4l-30 3h-10v26l17 -1h16l18 1l22 -3q8 -1 14 -9zM771 691l7 -22l-24 -5l-28 -1h-28l-26 1q-5 3 -7 12q0 9 5 15h101z
M231 648q0 -27 -12 -25l-74 3q-2 16 4.5 21.5t23.5 5.5zM790 626l-25 -5l-29 -1h-30l-28 1q-9 5 -9 13q1 2 2 4.5t4 6.5l29 3l33 -2l27 -2l19 1q3 -6 3 -9q0 -6 4 -10zM231 599q-3 -18 -25 -18l-20 1l-14 2q-11 0 -18 -4l-9 10q3 9 11 12l21 4l16 -1h18l13 1zM795 583
q-15 -3 -28 -5t-30 -2l-33 1l-29 3q-6 15 6 18l25 4l17 -2l19 1l21 1q26 0 32 -19zM227 546q-22 -8 -41 -8q-22 0 -41 8q3 8 12 13l21 4l20 -2q16 0 26 -2q3 -7 3 -13zM793 537l-37 -3h-15h-12q-9 2 -13 2l-41 8q0 12 17 12q9 0 14 3l89 -3zM224 513q-6 -17 -23 -17l-20 2
l-17 3l-14 -2q-6 3 -6 10q0 6 3 9h20l21 1q24 0 36 -6zM793 510v-12l-108 -4q-9 3 -10 13q4 6 7 8l57 -1q31 0 54 -4zM224 472v-5l-38 -4q-24 0 -39 4q8 12 26 12l27 -4zM790 468v-5l-21 -3l-22 -1l-25 1l-24 1l-16 -1v15h25l26 1l31 -1q12 0 26 -7zM219 429l-37 -4
q-20 0 -28 11q8 6 28 6l37 -1v-12zM780 436v-7l-98 -3v12h27l29 1zM212 402q-9 -6 -21 -9l-29 -2l-1 14l13 -1h20q14 0 18 -2zM764 398q-11 -14 -40 -14l-27 3l-22 4q0 6 5 7q7 0 10 4l22 -3l24 -1h28zM207 367v-8l-14 -3l-15 -2q-14 0 -17 10l32 7q6 0 14 -4zM747 355h-69
l4 12l65 -7v-5zM203 333v-5q-7 -3 -22 -5l-19 1q0 11 15 13l17 -1zM725 328v-10h-38v12q24 0 38 -2zM351 861l-3 -253l-4 -255l-2 -174h24l4 658l7 5h36l36 1h33t36 -4q27 -3 59 -16q-19 22 -49.5 30.5t-69.5 8.5l-42 -1l-39 -1h-16zM389 822l-1 -211q0 -38 -1 -112t-1 -109
l-1 -211q15 0 21 -2h14q38 0 72 12t63 39q19 36 33.5 75.5t24.5 83t15 86.5t5 88q0 105 -28 216q-25 27 -63.5 36.5t-88.5 9.5l-33 -1h-31zM548 753l-3 -10q0 -6 -5 -9l-19 21q-14 19 -28 19q-7 0 -19.5 -5t-25.5 -23q-2 -3 -8 -15t-9 -24q0 -34 16 -73l34 -73l14 1
q8 0 7 -10l-5 -18l21 -6q11 -1 6 -15q-12 -11 -12 -25q0 -10 9.5 -34t9.5 -34q0 -66 -11 -105q-9 -40 -49 -64l-22 -3l-19 3q-4 2 -11 12q0 12 12 12q5 -3 6 -5l13 -14q16 0 27 11q5 5 10 12q10 13 13 18q17 43 17 95q0 51 -17 95l9 28l-14 4q-9 1 -14 9q0 12 9 18
q-22 3 -39 39q-16 38 -23 45q-5 -8 -10 -24l-3 -29l1 -31l7 -33q0 -11 1 -18t6 -31l8 -45q0 -35 -29 -48q-3 8 5.5 12.5t8.5 11.5q0 23 -4 49l-7 44.5t-6.5 45t-3.5 45.5q0 32 7 57l16 9l-3 44q0 25 3 37t10.5 23.5t26.5 22.5l28 15q19 0 35 -8t23 -26zM500 746
q-11 -3 -18 -14.5t-7 -26.5l2 -20l22 -48q18 -36 42.5 -66.5t68.5 -30.5q6 -3 6 -7q0 -3 -3 -8q-41 0 -74 30q-29 29 -58 81l-17 44l-5 29q0 15 7 29l10 10q4 3 12 5q6 0 12 -7z" />
    <glyph glyph-name="E" unicode="E" horiz-adv-x="876" 
d="M650 995l39 -32q34 -26 46 -41q8 -39 16.5 -75t14.5 -57q13 -50 48 -92q0 19 -10 57q-4 16 -14 48q-19 66 -25 104h7q33 -103 64 -232q-33 6 -93 64t-78.5 67.5t-59 16t-95.5 6.5l-59 -1l-60 -1q-5 -37 -7 -59t-2 -53l-3 -108l32 -4q36 0 67.5 17.5t57.5 54.5
q43 -10 60.5 -41.5t17.5 -77.5l-4 -67l-4 -57q0 -24 5 -42l11 -16l16 -15l5 47l1 59v14v12l-1 40v40l14 -13l-3 -31l-1 -34l1 -47l1 -47l-1 -31v-18q-3 -10 -4 -14q-19 10 -52 41q-30 32 -48 43h-168l-4 -118l-3 -119q18 -4 32.5 -6t32.5 -2q79 0 149 44.5t144 124.5
q17 -7 35 -30l28 -36l-54 -224l-16 -12l-613 -3q-18 9 -38 32l-35 43l68 72q0 40 1 136.5t1 100.5l4 269l2 235l-61 65l7 8zM616 781q0 -15 -5 -18q-11 0 -19 16t-22 18l-13 1q-18 0 -45 -14t-45 -18l12 -20l-4 -7l-32 -3l4 -10q-1 -3 -3 -6t-8 -9.5t-8 -14.5l-7 -29
q-6 -21 -3 -33q14 18 29.5 34.5t32.5 29.5q32 26 72 26q6 -5 6 -16l-22 5q-18 0 -33 -9l-39 -29q-17 -29 -30 -42.5t-28 -10.5l-3 27q0 48 30 75l-3 23q3 6 10 7l24 -7l-16 19q0 12 17 12l10 -3q18 14 34 19.5t26 7.5t23 2q19 0 32.5 -4.5t25.5 -18.5zM452 378l38 -40
q13 -11 32 -11q9 0 13 2l8 9l8 4l7 -3q3 -3 3 -9l1 -10q-5 -6 -19 -8l-19 3l-20 2q-23 6 -44 33l-35 50q-7 -11 -7 -23q0 -10 4 -21l6 -18q2 -6 11.5 -9t12.5 -9l-19 -27l34 -3q4 -4 2 -12l-9 -10l31 -25q26 -21 45 -18l13 19q4 6 16 3l2 -18q-12 -12 -30 -12q-13 0 -18 2
l-25 10q-3 12 -27 17.5t-24 14.5l5 14l-20 5q-6 3 -7 13q-3 7 2 12l13 12q-11 6 -17 16l-13 60q0 16 17 16q12 0 20.5 -8t8.5 -23zM826 241q-5 -32 -9 -52t-11 -40l-42 -142l-14 -7l-302 1q-50 0 -150 1t-151 1v5l603 7q13 28 34.5 109t36.5 117h5zM79 985q5 -8 26.5 -27
t25.5 -36l-3 -237l-6 -292l-3 -222l-42 -49l292 1q50 0 150 1t150 1l50 183l-58 -56q-19 -19 -38 -27q-36 -36 -88 -48.5t-121 -12.5l-58 1l-55 1h-25q-16 0 -26 -2l-8 11l1 214l2 136l5 12h38l39 1q90 0 133 -18.5t71 -53.5v175q-21 -20 -43.5 -33t-51.5 -13l-41 -4
q-13 0 -20 2.5t-11 9.5q0 52 1 84.5t2 61.5q0 23 5 49.5l7 37.5h62l63 1l68 -1q14 0 31 -1t35 -4q-15 7 -32 12.5t-41.5 10t-45.5 6.5t-47 2h-29.5t-26.5 -2l-71 -6l-7 -259q-8 -5 -19.5 -8t-26.5 -3q-28 0 -47 11q0 46 0.5 95.5t1.5 101.5q0 48 13 142l66 1h25h26
q11 2 16 2q53 0 92.5 -5t76.5 -18q69 -21 122 -90l-53 159zM336 454v-274h12q9 0 12 3l1 135q0 36 8 116l162 2q-20 11 -50.5 18t-59.5 7h-18t-22 -2zM235 781q0 -16 -7 -20t-25 -6l-11 1l-15 4l-21 -1q-13 0 -13 19q-3 10 6 13l20 6l12 -2l29 2q21 0 25 -16zM231 736
q0 -13 -6 -19l-19 -4l-26 1q-14 0 -22 -4l-7 3q-5 0 -8 4v18q0 12 12 12l12 -1l20 2l19 2q18 0 25 -14zM230 690q0 -10 -8 -17.5t-21 -4.5l-11 1l-22 -1q-18 0 -28 10q-6 11 3 16.5t19 7.5q42 0 48 -2q7 0 20 -10zM140 647v-14q0 -8 7 -11l16 1l20 -1l14 -1q14 0 21 2.5
t12 17.5q-13 13 -42 13q-15 0 -27.5 -2t-20.5 -5zM223 607v-15q-21 -7 -40 -7q-20 0 -40 7q-4 11 4 14l18 4l15 -3h17h26zM513 510q-36 30 -85 39t-121 9h-50q-14 -8 -36 -13l-45 -3h-29q-3 3 -3 11l-1 11l12 7l106 -3l67 -3q21 0 45.5 0.5t55.5 7.5q40 7 77 34h10zM223 522
q3 -15 -9 -19l-71 4q0 6 6 13t24 7q16 0 25 -2zM219 473l-28 -6l-23 -3q-16 0 -25 5q3 17 29 17l17 -1l17 -1l10 1q3 -3 3 -5v-7zM235 832q6 -17 -9 -26q-12 -5 -22 -5q-8 0 -12 1h-22l-20 1q-9 2 -9 16l3 14q3 6 11 10l23 4l19 -1l19 -1l10 1zM216 436q-25 -7 -39 -7
q-17 0 -27 5q10 10 27 10l18 -3zM619 968l19 -49q6 -15 6 -29l-1 -12q-37 44 -91.5 61.5t-124.5 17.5l-91 -4l-89 -4q-4 -1 -7 -8l-2 -11q0 -16 -3 -22q-15 -6 -36 -6q-19 0 -29 2l-20 3q1 15 -14 33t-17 29zM211 403q-10 -10 -27 -10q-12 0 -18 2l-13 5q9 7 27 7l15 -1z
M204 363h-46q0 8 15 10h28l3 -6v-4zM199 336q-3 -9 -14 -10l-23 1l-4 2q12 9 29 9q9 0 12 -2zM235 881l-4 -23h-84l-4 15q0 24 25 24h20q19 0 30 -3t17 -13z" />
    <glyph glyph-name="F" unicode="F" horiz-adv-x="858" 
d="M776 914l43 -193l-10 -2q-5 0 -16 6l-13 10q-46 53 -111.5 71t-158.5 18l-66 -1h-30t-34 -2q0 -9 -2 -39t-2 -51l-4 -85v-24l2 -25q3 -3 9 -3l18 2q5 35 7 54.5t2 45.5l3 103l21 1l24 1q55 0 94 -16q41 -15 56 -39t18 -40l2 -36q-2 -11 -14 -12l-15 -1l-3 10q0 5 9 19.5
t9 22.5t-8 16q-26 40 -71 56t-99 16l-13 -19l4 -177q26 3 37 11l71 63q18 -3 40 -28l40 -46v-229q9 -15 22 -28l7 77l2 83v76l6 -62l2 -70l-1 -67l-1 -64q-18 8 -55.5 46.5t-59.5 51.5h-42l-43 1l-44 -1q-20 0 -38 -5l-3 -336l31 -31l34 -34l-19 -9l-67 -1l-72 -1h-36h-23
q-13 2 -17 2q-24 0 -60 7v5l260 3q-3 12 -18 19t-33 7l-13 -1l-83 -3l-59 -2q-58 0 -97 11q-5 10 -31.5 33t-23.5 45l58 50l5 752l-34 31q-28 25 -28 43l623 -2zM597 313q6 -6 1 -12l-11 -10q-35 6 -68 33q-29 26 -46 63v12q18 -33 51 -56.5t73 -29.5zM451 301l3 -9
q0 -6 -5 -11l-13 -9l24 -9q8 -3 10 -12l-3 -10l-13 -4q-6 0 -10 -5q3 -3 14 -3t15 -5q0 -12 1.5 -23t10.5 -29l25 -41q37 -40 67 -60.5t67 -20.5q20 0 33 5q9 14 14 17q7 0 12 -1t6 -11q0 -8 -3 -14q-21 -18 -52 -18q-24 0 -50 10l-53 27q-34 26 -56.5 61t-43.5 79l7 5
l-18 4q-15 3 -13 15q-3 10 11 13.5t10 13.5l-28 4l-3 9q0 13 15 18q-8 15 -12 34l-3 41v34q4 -4 6.5 -16t2.5 -32q0 -38 25 -47zM448 396q16 -62 65.5 -116.5t111.5 -71.5q8 -3 23 4l21 8q8 0 14 -12q3 -9 -4 -16l-15 -10q-58 0 -104.5 34t-71 71t-33.5 58l-16 51h9z
M336 449l-5 -337l8 -11q4 -8 12 -8l4 329l10 8l155 4q-15 8 -42 13t-49 5l-47 -1h-21.5t-24.5 -2zM72 985q0 -15 24 -36l26 -20l-5 -759l-46 -46h210l-40 31l-1 137q0 18 -1 51.5t-1 48.5l1 72v29t4 42l51 1h19h16q12 2 17 2q69 0 112 -14t74 -59l3 47l-4 71l-3 61
q-30 -37 -81.5 -50.5t-115.5 -13.5l-47 1l-43 1l2 198l3 146l11 10l61 1l66 1q145 0 213.5 -27.5t113.5 -82.5q-12 42 -22.5 74.5t-13.5 40t-23 40.5zM343 859l-9 -262l21 4v101q0 60 10 134l88 2l69 2q25 0 47.5 -1t41.5 -4q32 0 76 -17q-38 23 -71.5 28.5t-58.5 7.5t-62 2
l-39 -1h-38q-46 0 -75 4zM226 592q0 -11 -9 -16l-20 -4l-19 1q-12 0 -19 2h-6l-5 -2q-8 0 -19 9q0 12 9.5 18t23.5 6l22 -1q14 0 22 -2l13 1zM516 604l3 -45l-3 -44q-15 -3 -32.5 9.5t-29.5 17.5q-22 3 -42 5t-40 2l-99 2h-27l-3 6v9l46 -1l51 -1q39 0 53.5 1.5t37.5 6.5
q40 8 70 32h15zM227 551q-3 -8 -1 -16q-15 -6 -31 -6l-31 3l-31 3l-4 10q0 6 4 9q12 3 24 5t26 2q30 0 44 -10zM226 503l-28 -8l-27 -2q-13 0 -21 2l-17 8q3 19 32 19l19 -1q14 0 22 -2l13 1l4 -8zM219 458l-33 -3l-23 -2q-16 0 -25 5v19q11 -2 31 2l30 5q21 0 21 -17z
M227 830l1 -11q0 -10 -3.5 -15.5t-11.5 -5.5q-6 2 -10 -1q13 4 19 -4q3 -6 5 -23l-1 -14l-16 -6q13 -7 16 -19q0 -14 -2 -20q0 -5 -9 -10q9 -7 10 -23l-3 -15l-15 -5l-19 -1h-22l-18 -3q7 -5 21 -7l16 1q11 0 17 2q9 0 14 -1.5t10 -9.5q0 -12 -5 -20.5t-18 -7.5l-16 4
l-17 -1q-12 0 -18 -2q-25 0 -25 19l2 11l12 9q-9 10 -11 26l3 13l15 7q-19 6 -19 29q0 9 4 14l4 1l4 6q-12 9 -12 25l4 15q4 7 32 7q29 0 34 5q-29 0 -51.5 3.5t-18.5 18.5q0 11 9.5 17t23.5 6l22 -1q16 0 24 -2h9l5 2zM219 434q3 -10 -4 -14l-20 -2h-12h-14l-21 1
q-6 1 -10 11l29 7l25 4q16 0 27 -7zM215 391q-9 -3 -19 -5t-22 -2q-18 0 -29 7q4 6 13 7l18 2l19 -1l20 -3v-5zM646 969q12 -16 20 -37l14 -52q-37 26 -77 42q-20 8 -35.5 12.5t-51.5 13.5l-278 -3q-5 -5 -7 -22q0 -16 -5 -21h-21q-7 0 -14 -4l28 -5q12 -2 12 -17l-3 -13
q0 -8 -9 -11l-16 2l-22 -1q-14 0 -21 -2q-15 0 -21 4t-6 21q0 11 6 14l15 2h15q16 0 22 6l-34 4q-30 0 -30 20q0 9 2 14l-22 18q-7 9 -5 22zM210 363v-10l-32 -4q-19 0 -30 7l18 7l25 3zM200 332v-10l-24 -4q-15 0 -23 7q3 10 20 10q10 0 16 -2zM204 744v6l-58 -2l-7 -6z
M213 693l-3 8l-60 -1l3 -8z" />
    <glyph glyph-name="G" unicode="G" horiz-adv-x="916" 
d="M657 991l64 -37q36 -26 36 -58l-1 -9q12 -65 21 -96t26 -51q-3 19 -7 39t-10 42l-23 100h8l53 -211q-26 9 -61 31l-67 43q-30 23 -73.5 36.5t-88.5 13.5q-74 0 -131 -33q-25 -26 -39.5 -61.5t-14.5 -80.5l-8 -175q17 -167 28.5 -217t75.5 -98l15 -3q15 0 32 11l33 24
q30 33 42.5 74t12.5 91l-4 78l-4 82l-37 34l-23 33l274 -1l36 -33q18 -19 15 -38q-33 -13 -45 -38t-12 -60l4 -63l5 -45v-12l-2 -12q0 -21 6 -48l13 -51q-11 -6 -22 -6t-29 5l-28 5q-41 -66 -104.5 -112t-133.5 -46l-37 2l-32 2q50 -26 111 -26q77 0 118.5 33t60.5 54
q8 9 16 20t19 28l94 3q3 13 -8 35q-8 21 -10 32l-6 50l-2 59l1 63l1 60l35 39q11 10 25 13q-3 -11 -24 -32q-20 -18 -25 -26l1 -23l1 -16l-1 -52v-20v-17q-2 -12 -2 -17q0 -50 8 -82.5t32 -59.5q-6 -13 -21 -19l-34 -4l-27 1l-24 1q-50 -66 -108 -102.5t-128 -36.5
q-142 18 -262.5 122.5t-161 197t-49.5 137.5q-4 23 -6 44t-2 47q0 81 24 158q12 39 30 72.5t44 65.5q62 70 134 113t150 43h26q14 -3 29 -5t38 -12l42 -11l39 -5q18 0 32 5.5t27 18.5zM525 767l2 -10v-10q0 -21 -12 -51l-24 -62q-2 -3 -9 -5l-18 -1l8 -9q6 -6 6 -12l-3 -7
q-3 -1 -7 -3.5t-12 -5t-7 -16.5q-20 -9 -27 -22l-25 -55q19 16 39 27t42 14l44 -10q12 -3 18 -21q0 -17 -13 -14q-2 13 -10.5 24.5t-17.5 11.5q-30 0 -55 -15t-40 -40l-12 -25q3 3 7 -1l8 -7q0 -10 -5.5 -17.5t-16.5 -9.5l-12 3q-6 5 -6 15l3 13q13 0 14 10l-3 11l-3 13
q0 6 4 10q0 17 26 59t26 61h20l-4 12q-3 9 -1 17q23 0 37 28l23 44l4 38q0 19 -10 30l-34 21q8 12 16 12q9 0 23 -15q10 -12 17 -30zM504 423q0 -10 -17 -14q-14 -1 -20 -7q-11 -8 -17 -20l-4 -27l2 -24l4 -25q1 -10 15 -31l14 -21q-17 0 -30 22l-14 36q0 11 -2 17v20l3 36
q3 14 11 24.5t17 16.5t20 6q12 0 18 -9zM393 409q0 -57 13.5 -96.5t51.5 -63.5l29 -7l10 16q4 5 13 2q6 -6 7 -14q0 -8 -4 -16l-15 -6l-19 -2q-11 0 -15 2q-33 19 -54 57t-33 125q5 3 16 3zM395 847q-56 -41 -76 -110.5t-20 -160.5l2 -80l2 -74q17 -117 34 -168.5t79 -84.5
q-42 39 -59 96l-12 67t-10.5 72t-6.5 70t-2 76q0 32 1 60t5.5 63.5t19.5 91.5l15 20q9 15 23.5 27t53.5 24q17 5 37 8t43 3h23.5t21.5 -2q13 0 20.5 -1t27.5 -7q-24 11 -56 18t-65 7q-51 0 -101 -15zM600 952l-98 19q-22 4 -47.5 7t-44.5 3h-33q-14 -3 -29.5 -5t-77.5 -34
q-64 -30 -134 -128.5t-78 -164.5l-6 -77v-20q0 -118 58.5 -221t160.5 -179q65 -42 154 -42q77 0 132 35q39 15 67 59l53 84l22 -17l14 -2l8 1l-8 59l2 30v32q-3 18 -4 27l-3 50q0 41 11.5 67t45.5 42l-224 1l49 -49q0 -17 -2 -24v-17l2 -76l3 -55q0 -62 -15 -107t-59 -79
q-26 -12 -45 -18t-44 -6h-12l-56 12q-46 11 -91.5 92t-59.5 190l-1 65l-1 71q0 138 31 225.5t87 111.5t76 27l32 3q67 0 148 -54l125 -92l-45 172zM232 829l-6 -19q-3 -8 -12 -14h-13q-6 0 -9 -3q19 3 19 -19l-2 -8q-3 -7 -5.5 -11t-21.5 -4l-18 1q-11 0 -20 -6q5 -3 18 -3
l17 1q17 0 23 -10q0 -16 -7 -23q-5 -3 -22 -5l-18 1l-18 1q-13 0 -19 -3l-9 3q-6 0 -9 7q0 14 13 23q6 4 13 6t18 2l-15 6q-6 3 -8 12q1 2 2 4.5t5 6.5q6 18 23 15l-3 11q1 7 2 9l8 16q17 10 36 10l16 -2q11 0 22 -5zM187 696q4 -2 5 -14q0 -11 -4 -16l-47 -4h-25l-25 1
l-4 13q0 13 11 21zM183 622l-29 -1l-27 -1l-25 1q-12 0 -23 5q-4 14 3.5 20.5t16.5 8.5l84 -7v-26zM179 586l-100 -4l-5 13q0 8 10.5 12t27.5 6l67 -3v-24zM176 568l4 -10q0 -6 -5 -10l-21 -4l-36 -4q-18 0 -24 2l-19 10l7 16h94zM709 558q1 -7 -4 -14l-15 -11l-21 3l-21 -1
l-18 -1q-15 0 -27 6q-9 6 -13 22l15 1l14 1l46 -3zM178 508q-12 -5 -29 -5l-30 2l-25 3l-13 -1q-3 9 -3 15q17 9 38 9h12.5t17.5 -4l33 -9zM690 510q-3 -5 -11 -8.5t-22 -3.5l-27 2l-21 4q-4 4 -4 7q0 9 10 12l14 -1l28 1q12 0 18 -2q9 0 15 -11zM178 489l3 -15
q-13 -3 -25 -5t-26 -2q-30 0 -47 11q-3 7 3 10q8 2 12 5zM688 469l-50 -8q-18 0 -30 9q-3 11 8 15l14 -1l27 1q16 0 22 -3t9 -13zM181 447v-10q-18 -6 -43 -6l-22 1l-24 6v15h20l20 1q20 0 27 -2q12 0 22 -5zM685 436l-15 -6l-17 -2h-18q-13 0 -21 2q3 13 29 13l22 -2
q13 -2 20 -5zM638 944q21 -39 21 -81h-12q-49 39 -105.5 64.5t-112.5 25.5q-40 0 -76 -13q-13 -3 -43 -27.5t-50 -24.5q-11 0 -22 5q33 37 87 59q26 10 53 15t59 5q17 0 27 -2q17 0 23 -2l67 -20q30 -8 52 -8q17 0 32 4zM184 403l-24 -4l-28 -3q-19 0 -25 16l22 1l19 2
l22 -3q8 -1 14 -9zM264 881q-7 -30 -25 -34l-24 -4q-18 0 -30 6q12 36 56 36q12 0 23 -4zM678 400q-8 -9 -26 -9q-13 0 -33 5l-4 8l33 1q17 0 30 -5zM189 370l-22 -3l-23 -3q-14 0 -23 10q11 3 21.5 5t22.5 2l24 -3v-8zM677 362l-27 -3q-17 0 -28 4q2 12 13 12l34 -4z
M195 344q-9 -11 -27 -11q-16 0 -29 8q6 6 25 6zM672 339l-42 -3q7 7 19 7q11 0 15 -2z" />
    <glyph glyph-name="H" unicode="H" horiz-adv-x="1020" 
d="M776 991l-6 -8q-2 -2 -8 -1l-40 1l-40 1q-40 0 -68 -7l48 -50l4 -339l-7 -7l-289 3l-9 299q8 17 16.5 24.5t22.5 10.5l-24 -34l3 -285l35 -3h15l14 2q-3 16 -20 30l-28 28q21 3 36 -19l31 -42l190 2l-2 326l-75 66l3 7h76l62 -1h25.5t34.5 -4zM914 939q0 -12 -18 -26.5
t-21 -22.5l5 -770l12 -17q11 -14 21 -14l-3 473l-2 316l13 15q7 8 18 8q3 -8 -4 -15l-12 -11l2 -813l25 -27q21 -20 23 -34l-82 -1q-13 0 -39 -1t-40 -1h-30h-20q-12 2 -16 2q-14 0 -22 1t-36 6l3 7q3 3 9 1l243 2q0 6 -9 15t-18 12l-253 2l-65 68q35 20 49.5 51.5
t14.5 72.5q0 12 -1 30t-4 42l-4 54q0 30 5 45q-25 7 -51 7q-24 0 -47 -6q4 -8 10.5 -18.5t20 -29t39.5 -27.5q2 -12 -12 -12q-5 0 -13 6t-35 43q-24 36 -49 43l-134 -4l1 -341q3 -13 22.5 -33t22.5 -35l-257 1l-5 5l9 10h223q3 8 -5 15l-10 10l-265 8l-54 64l55 64l-3 242
l-6 289l-3 217l-34 30l-32 37l271 1q3 -7 26 -26q23 -17 23 -30q0 -6 -4 -14l-31 -33l6 -293q-5 -16 -28 -16l-22 1l-23 4l-8 9l-8 332q6 13 23 28l20 19l-12 7l-201 -1l49 -55l12 -740q0 -12 -18 -32.5t-21 -32.5l209 3l-49 49v353l240 2l162 3l4 -35q0 -18 -5 -37l-322 -3
v-334l13 -14q10 -11 21 -8l3 322l288 1l4 -47l1 -57l-1 -72l-1 -70q-4 -11 -22 -29l-20 -20l67 -7l80 -2h69l5 7l-45 46l-9 748q3 10 18 25l32 32l-24 7l3 12l17 3q22 0 44 -28t32 -33zM799 990q-2 -6 -7 -6t-8 2v5zM799 967q-12 -5 -23 -39q-8 -32 -30 -32l-18 1h-17
q-19 0 -28 3.5t-9 18.5l3 18q-1 6 -12 15l-11 13l52 6l41 2q23 0 52 -6zM255 965l-15 -26q-11 -19 -10 -35l-30 -6l-25 -2q-15 0 -30 6q3 19 -7 33l-19 31l8 7zM476 917q-28 -6 -47 -30.5t-29 -56.5l1 -12v-25q0 -20 4 -31.5t21 -19.5q-3 -2 -4 -2q-8 -4 -15.5 -6t-4.5 -14
q0 -12 14 -12q20 0 25 -3q-3 -5 -5 -15q0 -13 20.5 -37t20.5 -40q11 -6 16 -6q6 0 18 6l-12 46l-5 43v16q3 11 5.5 21.5t22 18.5t21.5 19l-26 3q-18 -9 -27 -27q-7 -19 -7 -41l4 -53l5 -36q-12 6 -24.5 34t-23.5 36l9 11q3 6 -1 11t-10 5l-18 -3q-6 0 -10 7q4 4 6 5l12 3
q6 6 8 13q-2 3 -3 4q-4 5 -10 9l-16 15l-3 23l1 25l2 17q14 27 30 45t31 22l21 4q11 0 21 -5q9 -2 23 -12q13 -7 13 -17q0 -6 -9 -21.5t-5 -24.5q10 -3 18.5 1t12.5 14q2 14 -2 27q-3 15 -14 26q-8 10 -23.5 15.5t-31.5 5.5zM777 881q2 -8 2 -10q0 -8 -7 -15t-26 -7l-5 -3
q3 -3 8 -3l14 2q7 -3 9.5 -5.5t4.5 -14.5l-4 -23q0 -6 6 -14l2 -11q0 -12 -9 -18t-21 -6h-6l-5 2l-33 -1q-15 0 -21.5 4.5t-6.5 20.5q12 7 13 16l-7 14q-7 11 -7 17q0 7 2 10l24 10l-20 6q-9 3 -7 15l3 14q0 10 11 11l21 -1h22q19 0 25 -2q10 0 18 -8zM233 870
q2 -11 -4 -15.5t-20 -7.5l20 -7l3 -12l4 -13q0 -6 -4 -10l-15 -7q19 -5 19 -23l-1 -8v-8l-84 -3q-7 4 -7 16q0 9 4 18l23 3l27 -1l19 3q-6 5 -20 6l-16 1h-16q-9 0 -17 2t-8 16q0 8 5 19l22 5q-11 0 -17 7.5t-8 19.5l3 14l15 5l20 1l20 -1l18 -1q7 0 9.5 -2.5t5.5 -16.5z
M779 732q0 -22 -12 -27q7 -7 8.5 -11.5t2.5 -12.5t0 -13q-23 -6 -47 -6q-27 0 -48 7l3 22q0 8 11 8h14q7 0 10 7l-22 3q-17 0 -17 16l1 16q3 6 11 7l14 -1l18 1l18 1q24 0 35 -17zM238 732q3 -13 -10 -22l-16 2l-21 -2l-20 -2q-17 0 -27 10q0 19 2 23l10 7h24q23 0 36 -2.5
t22 -13.5zM238 688q2 -8 -1.5 -16t-14.5 -7l-3 -4q18 0 18 -20l-3 -15l-36 -4h-22l-21 1q-6 9 -6 21t9 18q-16 1 -11 18q3 12 10 16l22 4l20 -1l20 -2l12 1zM781 648q3 -9 -0.5 -16.5t-14.5 -8.5l-14 1l-19 -1q-12 0 -18 -2q-12 0 -20 4l-12 12q3 8 13 14l22 4l22 -1
q14 0 22 -2l13 1zM781 602q0 -13 -7 -17t-23 -6l-21 1q-14 0 -22 2l-12 -1q-9 5 -9 15l3 10l20 5l24 1l20 -1h20zM240 592q-17 -6 -43 -9l-43 -1l-5 10v12l18 5l21 1l18 -1h18l13 1q3 -3 3 -9v-9zM666 554l-247 -3l-174 -2q-5 -4 -19 -7l-23 -2l-31 1l-18 -1q-3 3 -3 10v12
h67h58h49h43h37h32h28h25h21h19h16h15h13h38l39 1h11zM780 557q-8 -20 -33 -20l-18 1l-20 2l-13 -1q-6 3 -7 13q0 8 7 14l15 -1h16l18 1q16 0 21 -2q6 0 14 -7zM777 520v-12q-18 -7 -38 -7h-12q-6 0 -16 2l-14 2q0 12 8 16l20 4l13 -1l17 -1l17 3zM233 524q4 -9 -2.5 -15.5
t-12.5 -6.5q-3 0 -9 2h-30q-16 0 -25 6q-1 15 15 16l18 -1l12 3zM773 469h-20q-13 0 -21 -2q-16 0 -21.5 2.5t-13.5 11.5q9 6 21 6l20 -2l23 -2l12 1v-15zM236 474l-24 -6l-24 -3q-14 0 -31 6q3 16 28 16h20t24 -2q8 -6 7 -11zM773 438q-9 -6 -25 -8l-24 3l-24 3q3 13 26 13
h19.5t22.5 -2zM232 436q-9 -9 -32 -9l-19 1q-12 0 -18 2v15l22 1l15 1q21 0 32 -11zM771 405v-10l-32 -3l-39 3v7l26 3l27 3zM229 399l-10 -7l-18 -2q-15 0 -23 2l-15 3q3 13 27 13q21 0 39 -9zM548 381l4 -10q0 -6 -5 -10l-3 -3q3 -2 16 -4q11 0 13 -12q1 -8 -10 -14
q-12 -3 -13 -7l34 -13l-4 -11q0 -9 -8 -9q8 -16 8 -34q0 -20 -5 -33l-22 -49q-15 -20 -46 -20l-22 2q-15 6 -15 23l3 11l11 4q5 0 18 -12t21 -12t18 11q15 10 19.5 29t4.5 42v16q-6 8 -6 19q0 8 6 19l-19 4q-6 1 -7 11q6 5 8 12q-1 3 -3 5.5t-9 7.5t-8 10l9 12l-28 22l-9 -6
q10 -22 10 -45q0 -27 -8 -48q-16 -28 -45 -28l-16 3l-2 10q0 10 23.5 17.5t28.5 24.5q7 11 7 23q0 10 -7 31l-6 25q10 -2 19.5 1t17.5 1q1 -7 7 -11zM764 363l-29 -4q-17 0 -29 4q7 10 29 10q20 0 29 -10zM223 367q-6 -6 -24 -6h-20h-12l1 8l31 1q16 0 24 -3zM755 334
l-10 -7l-13 -3q-18 0 -21 10h44zM216 334q-4 -6 -19 -7h-23q0 9 16 10l13 -1zM731 846l-21 3zM216 661h-4l-20 -3z" />
    <glyph glyph-name="I" unicode="I" horiz-adv-x="468" 
d="M352 922q-13 -6 -24 -15l-19 -23l9 -759q7 -7 10 -13.5t10 -7.5l7 12l-9 749q7 11 17 18l26 20l7 -5l-35 -37l9 -787l57 -69l-77 -1l-81 -1h-13h-12l-41 1q-22 0 -41 4l9 8l222 -2q3 6 -3 12l-12 14q-12 3 -21.5 4t-29.5 1q-12 0 -31.5 -1t-45.5 -4l-57 -4
q-55 0 -90.5 17t-59.5 66l56 66l-9 743q-6 9 -33 29.5t-27 40.5l85 1q14 0 42.5 1t43.5 1l51 -1h31q15 -3 22 -4q4 -8 31 -32q26 -21 26 -42zM269 981l-106 -1l-113 -1l46 -43l8 -760l-49 -54l225 -2l4 5l-58 50q0 33 -1 114.5t-1 130.5l-4 272l-2 235zM237 972
q-3 -9 -16 -25t-15 -32l-92 -3q0 16 -18 36l-19 22l74 3l43 -1h43zM207 890v-28l-20 -5l-24 -1l-27 1l-22 3l-4 17l1 20l31 4l33 4q16 0 21.5 -3.5t10.5 -11.5zM205 851l3 -17l-1 -21l-21 -8q3 -4 14 -7q8 0 10 -12l2 -11q0 -14 -23 -14h-20q-13 0 -17 -2q-3 3 -10 3l-21 -3
q-6 0 -12 6q-3 16 5.5 28t22.5 9l-14 3q-11 3 -13 12v28l46 3zM204 752q6 -3 6 -14l-2 -11q0 -7 -2 -9l-24 -8q3 -3 13 -3q9 0 12 -3t3 -12l-1 -16l-27 -9q3 -3 6 -3.5l9 -1.5q13 0 12 -13l-1 -19l-20 -5l-23 -1l-48 3l-3 15v16l12 2l11 1q20 0 29 3q-5 5 -21 7l-18 -1
q-11 0 -14.5 3.5t-3.5 18.5t22 15h14h8l5 3q-6 3 -14 3l-18 -1q-17 0 -17 17q0 18 9 21l23 4l24 -1q16 0 25 -2zM208 606q2 -9 0 -15.5t-12 -6.5l-17 1l-29 -1q-18 0 -24.5 2.5t-12.5 13.5q3 12 11 16l24 4l20 -1q14 0 22 -2l13 1zM208 560q-2 -11 -11 -15l-22 -4l-21 1
l-20 2h-6l-5 -2l-9 11q-3 8 2 13l18 6l24 1l22 -1h23zM207 520q-3 -9 -12 -12.5t-23 -3.5l-26 2l-24 2l-3 16q12 3 23.5 5t24.5 2q28 0 40 -11zM204 472l-29 -3l-26 -3q-23 0 -27 19l30 1l22 1h30v-15zM203 443q-3 -8 -9.5 -11.5t-16.5 -3.5l-20 1l-13 1l-10 -1q-5 5 -7 15
q12 0 19 2l20 2q18 0 37 -5zM198 401l-21 -4l-22 -2l-22 3q3 14 24 14l38 -1l2 -5zM191 367q-11 -6 -26 -6q-13 0 -25 6v7h16l21 1q11 0 14 -8zM187 340q0 -11 -12 -13l-24 1l-4 11q10 1 18 1h22z" />
    <glyph glyph-name="J" unicode="J" horiz-adv-x="683" 
d="M563 994q3 -7 29.5 -28.5t26.5 -33.5q0 -11 -19 -21q-7 -1 -16 -12l-10 -11l-2 -588q0 -75 -45.5 -142t-95.5 -86q-16 -6 -44 -15q-19 -6 -37 -11q-32 -6 -59 -6q-54 0 -96 24q16 -24 49 -38q32 -12 71 -12h19q10 0 24 2l55 10q77 24 129.5 99.5t62.5 162.5l2 581l26 26
q9 9 19 12q0 -14 -13 -24l-24 -17l-2 -588q-9 -87 -72 -165q-59 -75 -120 -94t-105 -19q-42 0 -75.5 11.5t-69.5 48.5l-66 74q-30 36 -52 79t-22 93l1 24q0 8 5 21q3 14 18 31l12 11.5t20 15.5q18 6 37 6t39 -6q18 -4 38 -16q19 -17 37 -36q15 -16 28 -33q24 -30 24 -69
l-3 -24l-34 -39q16 -7 31 -7l24 3q17 13 27.5 32.5t14.5 41.5l-3 468q-14 2 -28 -14q-10 -13 -17 -31l-6 -54l-2 -39l3 -42q3 -14 15 -34q0 -26 -7.5 -36t-22.5 -12l-13 -3q-10 0 -18 5l-14 11q-3 5 -5 17l3 14l6 16l-50 66q-42 57 -84 78l-20 -2l-15 -1q-3 6 0 12q5 6 12 6
q60 -9 103 -64l72 -90l-13 -36q0 -14 19 -21q8 -2 10 -2q8 0 14 6q10 10 15 26q-3 17 -18 30l1 18v16l-1 27v28q0 40 7 64q6 26 31 48l20 -4l-3 32l4 65l5 50q0 40 -13 64t-52 38l-7 13l15 5zM242 980q0 -7 -16 -11l-16 -3l-22 -18q-3 -13 -5 -26t-2 -28v-30q3 -14 4 -20
q5 -25 13 -50l-6 -10q-6 -6 -6 -11l26 1q12 0 16 -3.5t7 -12.5q2 -9 -3 -15t-23 -9q-3 3 -8 -1l-7 -7l10 -13l24 6l10 -3q3 -4 5 -15q-2 -6 -4 -8l-17 -10q0 -9 17 -9l32 -128l-3 -3q-5 11 -9 21.5t-10 29.5l-15 62l-14 11q-10 8 -8 19l22 15q-3 3 -16 3h-12l-16 3
q-6 3 -7 16q0 9 18 17q17 6 19 12l-4 9l-33 -3q-8 5 -8 17q0 6 3.5 13t5.5 20q0 12 -9 39t-9 46q3 34 14 57t35 36h16q8 0 11 -6zM324 296h-7q0 38 -6 80l-16 88q15 -26 23 -71q6 -42 6 -97zM323 254q0 -22 -7 -37.5t-26 -25.5q-5 3 7 22l13 23q0 16 -7 34l-12 36
q12 -3 18 -19zM541 983l-233 2l48 -49l9 -674q-6 -32 -23 -57q-14 -23 -38.5 -36.5t-54.5 -13.5t-50 10l-31 23q-12 12 -13 26l3 12q23 6 41 20q18 12 21 32q5 13 5 30q0 21 -9 39.5t-26 36.5q-29 20 -63 20l-12 -1q-25 -6 -42 -23q-18 -15 -25 -38.5t-7 -40.5
q0 -37 17 -63.5t60 -77.5q28 -23 67 -37q38 -12 80 -12q56 0 96 20q54 19 91 73t37 105l2 621zM471 736q-4 -9 -18 -15l-28 -4l-29 1q-3 3 -5 3h-7v27l21 1q18 0 27 2h35zM470 679l-32 -3l-29 -2h-11q-6 0 -14 2v27l32 3l33 3l21 -3v-27zM383 655v-12q0 -5 5 -8l78 -1l7 17
q-13 13 -36 13l-27 -3zM473 606v-12l-22 -1l-25 -1l-24 1q-7 2 -16 8v12l48 4q29 0 39 -11zM468 766l-12 1l-28 -3l-19 -2q-11 0 -17 3t-11 10q-4 26 22 26l65 -2v-33zM469 571q0 -22 -22 -22l-23 3l-22 3h-6l-5 -2q-6 3 -6 10q0 6 3 9l41 3l17 -1zM499 972q-1 -9 -19.5 -26
t-15.5 -34l-12 1l-28 -4l-26 -4q-12 0 -18 6.5t-6 27.5l-24 19q-6 6 -4 15zM469 516q-15 -6 -33 -6q-19 0 -27 2l-18 3q-4 2 -2 9q3 5 8 8l72 -1v-15zM465 489l3 -5q-15 -9 -38 -9l-18 1q-12 0 -18 2v12zM469 875q0 -21 -32 -21l-20 1l-20 2l-12 -1q-5 5 -7 21q0 13 8 21
l15 -1l18 1l19 1q15 0 22 -4.5t9 -19.5zM460 444l-37 -3q-15 0 -26 4l21 6q9 3 23 3l19 -3v-7zM460 409l-21 -4l-16 -2q-14 0 -22 7q8 6 23 6l17 -1l15 3zM446 380q-2 -8 -13 -9l-19 -1l-3 3q3 9 14 9zM441 340l-15 -4q-9 0 -10 7h14q6 0 11 -3zM471 822q-4 -4 -16 -7
l-22 -2h-24q-17 0 -21 -2q-5 5 -7 15l4 18l22 3l58 -3z" />
    <glyph glyph-name="K" unicode="K" horiz-adv-x="975" 
d="M805 998q5 -10 26 -27.5t21 -28.5q0 -9 -32 -38l-78 -76l-102 -107l-104 -112l52 -86l59 -93l117 -175l151 -214l-10 -5l-322 8l-58 61l56 61l-82 123q-12 -6 -22 -19t-10 -30q0 -9 4 -17q4 -4 7 -14l5 -17q-12 -6 -20 4l-10 20l-1 14q0 33 23 55l19 10l-13 21l-12 19
q-19 -10 -27 -39l-8 -53q3 -27 9 -45t28 -31q9 -3 20 4l16 8q5 0 13 -9q3 -6 -5 -14l-10 -8q-48 0 -71 45q-4 15 -6 29t-2 32q0 30 7.5 51.5t27.5 41.5q-3 3 -8 11q-11 18 -12 19q-10 21 -22 31q-20 -3 -34 -27l-3 -150l-3 -158l23 -28l-65 -4l-45 -1l-87 1q-13 0 -41.5 1
t-44.5 1l-67 66l65 68l-6 747l-35 28q-26 20 -32 42l167 2l130 2l33 -43l15 -25l-53 -45l-1 -69l-1 -67q0 -70 7 -120q7 0 16 12t15 15l2 210l22 24q8 8 24 13q-24 -21 -33.5 -43t-9.5 -53l3 -45l3 -49l-3 -39l12 4l223 230l-84 92zM776 984l-65 1l-64 1l-43 -1h-26
q-12 -3 -17 -4l35 -34q27 -24 34 -43l-363 -373l-10 10l-2 372q6 16 27 34l40 33l-263 5l64 -61l6 -747l-55 -58l241 -2l-58 55l-1 259l89 88h14l241 -353l-47 -51h272l-91 77l-283 433zM881 917l-291 -312l25 -43q5 4 18.5 18t20.5 23q17 22 28 45q5 2 13 -1l10 -3q5 3 7 5
q-1 3 -3 6t-6 8q-7 8 -7 17q3 9 15 9l15 -3l15 -11q3 3 -3 16l-6 14q0 5 11 8q20 0 63 27t54 31l18 6l22 3q18 0 30 -12l-8 -15q-18 9 -36 9q-27 0 -50.5 -14.5t-70.5 -49.5l-12 6q-5 3 -10 -2l14 -26q0 -6 -7 -12l-19 6q-9 6 -16 8l-8 -3l11 -11q6 -6 6 -13l-2 -7
q-11 -9 -21 -9l-9 3q-6 -16 -19 -30l-53 -54l45 -69q29 12 61 12q48 0 86 -28l12 -18q3 -6 0 -16q-4 -7 -14 -8l-8 3l1 11q0 14 -6.5 24.5t-21.5 13.5q-25 7 -52 7t-48 -6l5 -25l61 -93l95 -147l73 -118l-131 192l-49 76q-35 54 -50 79q-43 70 -97 168l289 305h10zM871 601
l-18 2h-15q-52 0 -101 -20t-88 -55q73 34 117 52q39 14 90 14q16 0 22.5 -23t22.5 -20l4 20q-3 8 -15 16zM432 10v-7l-129 1l-132 1v7l244 -2l-3 15q2 -1 4.5 -2t5.5 -4zM920 2l-274 -1v7l138 -3zM389 449l-45 -42l1 -290q0 -6 6 -14l16 -12l6 294l23 26q9 9 9 18
q0 10 -16 20zM233 843l3 -10v-13l-20 -6l-22 -2l-22 1l-23 1l-2 12l1 15l23 2h20h42zM621 843q0 -9 -9 -18l-17 -15h-27q3 13 14.5 24.5t26.5 11.5zM575 795q0 -8 -8 -16l-15 -15l-30 1q0 11 12 20l25 13l7 -1q7 0 9 -2zM232 767l-80 -3q-4 2 -5 11l1 17l19 2l20 1l22 -1h23
v-27zM235 733q-3 -16 -32 -16h-19q-10 0 -18 0.5t-14 2t-6 8.5l1 13l14 6l16 2l30 -3l25 -1zM528 746q0 -9 -8 -16l-17 -11h-15q-8 0 -12 4q12 24 41 24zM238 694q-21 7 -44 7l-23 -1q-15 0 -23 -2l4 -25l14 1l17 -1h19l22 1q6 2 14 8v12zM482 697q-1 -7 -11 -17
q-7 -9 -14 -10l-21 4q9 25 34 25zM238 645v-12q-11 1 -35 -3l-28 -4q-11 0 -16 2.5t-11 10.5q6 9 14 13l19 4l21 -2l15 -1l14 1zM436 652q-3 -12 -15 -24l-7 1h-4q-12 0 -18 3q12 21 34 21zM237 599v-8l-41 -4q-9 0 -20 1t-22 4v16l13 -1l22 2l22 2q17 0 26 -12zM436 594
q-6 -6 -25 -6l-31 3l-8 9q-3 3 3 7l16 2l19 2q9 0 16 -3.5t10 -13.5zM273 972q-1 -11 -24 -29q-19 -14 -19 -32q-16 0 -26 -2l-30 -4q-11 0 -17.5 2.5t-11.5 9.5q5 15 -13.5 30.5t-19.5 25.5l15 -1h16l44 1h16h13q10 2 14 2zM237 547l-22 -1l-25 -1l-25 1q-6 2 -14 8
q9 17 33 17l18 -1q12 0 19 -2l13 1l2 -10zM462 548l-28 -5l-32 -1l-36 1l-36 1q9 9 27 15t38 6q25 0 36 -2l25 -3zM237 511l-28 -3l-28 -3l-19 3v16l75 -4v-9zM309 511l-12 -4q-9 -3 -15 0q-3 6 2 10l10 6l13 -3q2 0 3 -2t-1 -7zM486 509q-21 -7 -46 -7q-29 0 -46 8
q10 13 35 13h24t28 -2q2 -3 3 -6zM516 471q-12 -9 -39 -9h-13q-7 0 -19 2l-21 3v12h19l21 1q21 0 29 -2q9 0 23 -7zM268 470q-18 -6 -42 -6h-15h-11q-8 2 -12 2l-26 3v9l107 -1zM236 877q4 -9 -3 -14.5t-19 -3.5h-26q-20 0 -31.5 3.5t-11.5 19.5q0 10 9 15l17 -2l17 1l17 1
l20 -3q8 -1 11 -17zM541 436q-7 -5 -20 -8l-25 -2l-25 1l-20 3l-5 6l44 3zM229 435q-6 -3 -21 -5l-22 1l-18 1v9l61 -1v-5zM561 398q-11 -6 -32 -6l-28 1l-16 -1l-4 10l41 -1zM229 398q-11 -7 -28 -7q-14 0 -20 2l-10 2v7l12 -1l24 1q14 0 22 -4zM222 367q-13 -8 -27 -8
q-9 0 -16 4l-3 1l17 5l15 2q9 0 14 -4zM583 361q-14 -6 -36 -6q-23 0 -41 6l23 3l14 1l15 -1zM594 330q-9 -6 -23 -6q-15 0 -21 2l-13 3v5l29 1q17 0 28 -5zM213 333l3 -5l-10 -3h-15v9zM608 965l23 -30q23 -29 42 -29l11 1q23 15 38 29t24 33l-35 4l-15 1q-23 0 -34 -2z
M669 894q4 -9 -4 -20q-8 -8 -24 -16l-23 4q6 15 15.5 24.5t22.5 9.5q9 0 13 -2z" />
    <glyph glyph-name="L" unicode="L" horiz-adv-x="814" 
d="M324 998q14 -14 22.5 -23.5t13.5 -17.5l17 -26l-47 -45l-3 -702l8 -2l10 -3l7 12l5 681l21 18q16 13 23 15q1 -7 -9 -17l-23 -18l-1 -686l36 -3q75 0 136.5 45.5t133.5 127.5q15 -3 30 -15l43 -39q-3 -28 -11 -60.5t-24 -83.5l-31 -106l-572 -3l-68 69l55 64q0 31 1 111
t1 130l4 272l2 232l-24 28l-43 35l4 12l125 -1zM552 883q-76 -81 -113 -192q-20 -62 -30 -109q-13 -60 -13 -114q0 -34 -4 -125t-4 -148h27q17 0 26 10q17 95 62 172t119 120l27 2l17 -3q6 -1 7 -16l9 -3q12 0 14 15q-6 13 -19 16.5t-37 3.5q-87 -27 -135 -108.5t-75 -193.5
l-10 -3l-10 -3q-6 4 -8 6q0 70 3 133.5t10 129.5q13 125 44 241q38 84 69 129t88 55l13 -13q5 -4 12 -3q5 -2 6 5q0 5 3 8q-13 16 -37 16q-36 0 -61 -28zM673 658l-18 4l-11 1q-41 0 -77 -42l-55 -68l4 -18l5 -15q0 -7 -6 -13l-31 7l12 -17q10 -12 8 -27q-5 -9 -13 -9
q-13 6 -25 8l-8 -4l11 -25l-27 -103l-22 -112l-6 1q0 52 16 110l27 99q-3 9 -6 17t-8 19q0 8 15 13l19 -6l15 -1q0 6 -17 15t-17 19q0 7 5 12.5t13 5.5l12 -3l17 -7l-12 26q27 48 69.5 90t90.5 54q14 -6 19 -11q6 -3 6 -9zM777 269q-4 -28 -12.5 -63.5t-22.5 -79.5l-31 -114
l-16 -11q-39 0 -158.5 2t-162.5 2l-228 5v5l545 -2l12 18l69 238h5zM68 984l55 -49q0 -35 -1 -118t-1 -131l-4 -270l-2 -240l-44 -49h64h58h51h45h39h35h30h26h23h20h18h15h13h12h34l36 1h10q14 30 25 79l21 90q-51 -74 -128.5 -105t-177.5 -31h-25q-14 0 -32 2l-30 2l-12 9
l2 450l3 314l49 49h-57l-58 1h-49zM222 828q-3 -9 -11 -14l-17 -4l-31 2l-18 -3q-9 3 -9 16l1 10l2 10l25 3l27 3q25 0 31 -23zM141 799l-3 -18l-1 -13l21 -3l24 -1q21 0 35 6l1 19q-6 12 -23 12l-19 -2l-22 -2zM220 739q4 -13 -6 -17l-18 -3l-11 1l-27 -2q-21 0 -21 17
q3 19 28 19l49 -3zM216 678q-11 -6 -31 -6l-19 1l-17 1q-12 0 -13 16l3 11l16 5l20 1l26 -1l15 -3v-25zM252 972q-2 -7 -21 -29q-13 -16 -20 -31l-17 2l-18 -1l-16 -1q-15 0 -23.5 6t-8.5 26l-20 24q48 8 88 8h23zM219 657q3 -20 -6.5 -23.5t-24.5 -3.5h-20q-9 0 -14 -2
q-19 0 -19 18q0 6 4 13l33 2l20 -1zM221 608q-3 -11 -16 -15l-27 -4h-18l-16 1l-10 12q8 8 18 12.5t28 6.5q15 0 22 -2l16 -3zM221 562q-3 -8 -14 -12l-20 -4l-30 2l-20 3q0 11 6 17q5 3 19 5l52 -3zM220 512l-23 -4l-16 -1q-28 0 -45 7q0 15 13 15l17 -1q9 0 13 4l41 -4
v-16zM223 481q-12 -9 -39 -9l-25 1l-20 3q2 9 8 12.5t19 3.5l19 -1l20 -2l11 1zM215 435l-33 -2l-23 1l-17 6l5 9l68 -5v-9zM211 401l-11 -4l-18 -1q-22 0 -36 7q14 7 31 7l14 -1l20 -1v-7zM210 367l-21 -3l-17 -2q-11 0 -20 6q16 8 34 8q15 0 24 -9zM205 340
q-2 -7 -4.5 -9.5t-9.5 -2.5h-14q-13 0 -18 8q5 6 18 6l14 -1zM220 889q1 -4 1 -11t-4 -14t-25 -7l-31 -1q-21 0 -24 18q-2 4 -2 10q0 7 6.5 12.5t23.5 7.5l13 -2l20 1q19 0 22 -14z" />
    <glyph glyph-name="M" unicode="M" horiz-adv-x="1122" 
d="M1034 947q-1 -11 -17.5 -27.5t-21.5 -27.5l1 -389q0 -65 1 -194t1 -193l17 -15l7 5v774l38 39q2 -9 -13.5 -28t-17.5 -26l1 -779q2 -13 23 -35.5t18 -38.5h-269v6l243 7q6 8 0 15l-15 12l-38 3l-75 -6l-71 -5q-53 0 -84 16.5t-46 67.5q32 12 43.5 35t11.5 56l-3 46l-2 31
q0 19 6 37q-9 4 -10 13q3 10 6.5 17t3.5 15l-1 15v20q0 20 -6 29l-151 -435l-54 -4v9l15 -2q35 0 53.5 62.5t22.5 66.5l121 355l-3 29l-4 31l-53 -139l-68 -189l-64 -177q-17 -9 -31 -9q-25 0 -50 28l-45 56q-17 54 -69 190l-59 155l4 -387l38 -38q21 -24 27 -44l-115 1
q-18 0 -56.5 1t-59.5 1l3 7l121 2l84 3l-9 17q-3 7 -15 13l-40 4q-24 0 -73 -7l-69 -6q-42 0 -69.5 15.5t-45.5 61.5l87 90l-8 707l-29 31q-25 26 -28 42l77 3l75 3q49 0 90 -10l80 -60l167 -432q5 0 11 12l7 25q-16 59 -41 119l-51 129l-44 120l3 3l35 -81l50 -127l55 -136
q20 50 37 97l40 113l79 232l17 -2h19l80 4l58 5q40 0 69 -11t48 -42zM625 949q8 -25 10.5 -45t2.5 -38q0 -53 -11 -96t-37 -120h-10l-22 64q-19 55 -19 80q0 21 5 34t21 29l-11 -28l-4 -29q0 -18 1 -26t5.5 -22.5l10 -31t16.5 -43.5q16 42 28.5 95.5t12.5 102.5v33l-6 25
q-3 10 -15.5 25.5t-25.5 19.5q-7 3 -16 -6q-6 -9 -11 -9q-7 3 -9 5q0 13 9 21l16 2q17 0 32.5 -11.5t26.5 -30.5zM955 983h-52l-50 1q-20 0 -45.5 -1t-54.5 -4l-212 -613l-15 -15l-56.5 140.5l-60.5 158.5l-121 324h-188l-4 -6q30 -12 40 -38.5t10 -60.5l-1 -22v-21
q0 15 16 16l22 -2q16 0 16 17l7 -19l265 -720h37l250 708q3 8 3 23l1 24q1 9 10 16l5 -5l6 -556l-2 -28l1 -37q0 -24 2 -37q0 -34 -9 -56t-37 -39h227l-52 47l-9 754zM145 813l1 -208l4 -198l2 -184q4 -29 -34 -62q-39 -30 -45 -45l200 2l-79 82v385l-25 -7q-16 0 -16 22
q12 8 19 8q18 3 22 -15v72q-8 -6 -20 -6t-21 6l-3 14q0 12 10 16l21 4q6 0 9 -7v22l-6 -7q-23 0 -32 10l-1 12q0 10 9 15h18q11 0 12 -7l-3 16l-3 -2q-21 -3 -32 8l-5 19q0 12 10 15q17 0 22 -2q7 0 11 -2v12l-26 -3q-8 0 -19 15zM311 506l-30 75l7 -448q0 -7 11 -17l12 -10
v400zM893 895l-1 -18q0 -15 -10 -19l-87 4l-3 33l25 5l25 2l28 -3zM758 868l-12 -9l-20 -1q-3 10 2 18l8 15q3 6 7 7l5 2q6 -4 8.5 -8.5t2.5 -14.5zM305 868v-7l-12 -4l-11 1l-24 -2l-17 -1l-22 3q-7 3 -13 19q3 9 10 12l19 4l25 -1l18 3q11 3 17.5 -6t9.5 -21zM184 877v-24
h-31l-3 12l2 22l16 3q15 0 16 -13zM893 835q0 -15 -10 -20.5t-27 -5.5l-28 1l-18 1q-12 3 -15 15q0 24 11 24h13l32 1q15 0 26 -3q9 -1 16 -13zM743 847l3 -6l1 -5l-3 -13l-6 -7l-10 -3h-15q-2 8 -2 10q0 9 7 16.5t25 7.5zM315 842l9 -25q0 -5 -8 -8l-20 -3l-23 -1h-34
l-8 17q-2 7 -2 20h86zM924 978q-2 -7 -20 -24.5t-15 -34.5l-32 -5l-38 -1h-32l-32 1h-9q-5 12 4.5 29.5t11.5 27.5l78 3zM731 796l-4 -24q0 -9 -14 -9h-17l-3 9l3 12l8 12q6 -2 14 1q9 3 13 -1zM886 768l-83 -5q-7 5 -8 17q0 10 7 18l84 -2v-28zM342 771v-5q-21 -7 -44 -7
l-24 1l-20 3l-5 14l-1 12l27 3l29 3q16 0 24 -5q8 -3 14 -19zM889 741q2 -12 -8 -19q-10 -5 -41 -5l-11 2l-18 -1q-16 0 -16 19q4 6 15 11l23 3l19 -1h16l14 1zM360 722q-7 -5 -20 -8l-20 -1l-26 1l-21 3l-7 12v12l55 8q14 0 23.5 -5t15.5 -22zM713 747q0 -15 -1.5 -18.5
t-3.5 -6t-7 -5.5l-14 -1q-7 0 -9 6q-3 12 3 18.5t32 6.5zM889 692q0 -14 -15 -16l-20 2l-10 -3l-42 5l-1 16q0 9 6 9l14 -1l17 1l17 1q24 0 34 -14zM696 702v-11q0 -7 -2 -13t-13 -6l-19 3q-2 11 5.5 20t19.5 9zM379 675l-26 -6l-26 -2q-18 0 -24 2l-19 11v13q2 6 9 6l17 -3
l20 2l20 2q11 0 18.5 -5t10.5 -20zM886 657l1 -15q0 -12 -13 -12h-21l-22 -1q-13 0 -18 2.5t-11 10.5q3 9 12 12l22 4l23 -1l15 -1zM390 638q-11 -15 -42 -15q-14 0 -20 2l-10 2q-9 -3 -15 11q-4 12 8 13l15 -1q6 0 9 3h18l22 -3q9 -1 15 -12zM681 647q-3 -13 -19 -17h-11
l-4 8q0 7 9 15l14 1q7 0 11 -7zM190 632l-4 -8q-2 -2 -7 -1h-14q-6 4 -8 7q0 16 10 17q21 0 23 -15zM882 615l-44 -3l-35 -4v-9q2 -7 4 -9l14 1l18 -1l18 -1q13 0 19.5 2.5t12.5 9.5zM405 590l-27 -3l-28 -3q-18 0 -30 9q3 9 12 12l22 4l25 -2l23 -2zM659 608q5 -5 1 -14
q-4 -6 -13 -8h-11l1 22h22zM288 919l-14 -12l-23 2l-37 -3l-35 -3h-16l-11 4l3 14q0 11 -16 26l-17 17l8 4l27 -3l37 3l38 3q28 0 42 -11q14 -9 14 -41zM886 569q0 -11 -1.5 -16t-10.5 -5l-18 -1h-18q-21 0 -35 7q5 19 27 19l23 -3l22 -3h6zM647 563q2 -6 -10 -19h-12
q-5 4 -5 7q-3 6 0 10q2 3 12 8h10q5 -4 5 -6zM421 548q-22 -8 -45 -8q-27 0 -41 11q5 15 22 15l17 -2l20 -2q12 0 20 4l4 -8zM190 548q-3 -8 -20 -8l-10 1l-4 8q0 9 11 10h16q7 -1 7 -11zM882 529l4 -9q0 -6 -7 -12q-4 -2 -15 -2l-17 2h-17h-14q-5 0 -13 6q6 17 32 17l18 -1
q12 0 18 -2zM632 521q0 -14 -16 -14q-7 0 -9 2q-3 5 2.5 11t12.5 6zM436 509q-14 -3 -24.5 -5t-22.5 -2l-23 1q-7 2 -16 8l3 13l14 -1l18 1l19 1q13 0 20 -3t12 -13zM187 514v-8h-23v15h14q8 0 9 -7zM879 487q2 -7 -1.5 -11.5t-10.5 -4.5l-18 1l-17 -1q-18 0 -25 13
q12 6 34 6zM365 479l7 -14h82v7q-9 15 -30 15l-30 -4zM617 487q5 -6 -2 -12l-10 -6l-7 1l-6 5q0 9 5 10zM184 475v-10h-14q-7 0 -10 7q3 5 12 7q8 0 12 -4zM877 442q-16 -7 -34 -7l-15 1l-14 2q3 12 17 13l19 -3l17 -2l10 2v-6zM605 438q-2 -6 -10 -6l-12 1v15l13 1
q9 0 9 -11zM456 433l-20 -3l-24 -1q-17 0 -32 6q11 11 35 11q20 0 26 -2q10 0 15 -2v-9zM187 433q-12 -6 -18 -6l-6 7q2 6 4 8h12q8 0 8 -9zM874 408q-3 -12 -24 -12l-13 1l-20 3q0 12 24 12q13 0 20 -2zM471 396l-26 -3l-24 -3q-17 0 -22 15l21 2l23 2q11 0 17 -2t11 -11z
M590 405q-3 -3 -6 -3.5l-9 -1.5v8q10 0 12 -0.5t3 -2.5zM182 393h-15v10h15v-10zM871 366q-11 -7 -26 -7l-14 1l-12 3q0 13 19 13l33 -1v-9zM577 370l-1 -7l-4 -4l-6 1l-6 3q3 7 5 9q7 5 12 -2zM469 370q0 -10 -6 -16q-6 3 -14 3l-19 -1q-15 0 -16 14h55zM179 354h-12v9h12
v-9zM565 336q-3 -6 -7 -6q-3 0 -8 3l3 10zM871 336q-9 -7 -22 -7q-11 0 -24 4q5 6 21 6t25 -3zM474 336l4 -7q-6 -6 -20 -6l-26 1v9zM179 328q-2 -4 -4 -4h-8v5q5 1 7.5 0.5t4.5 -1.5z" />
    <glyph glyph-name="N" unicode="N" horiz-adv-x="913" 
d="M842 935l-69 -64l-3 -279l-5 -284l-3 -263h-69q-23 28 -51.5 67l-52.5 74l-117 183q-60 100 -90 145q6 -55 24 -111t45 -112l20 -24q10 -11 34 -11q6 -3 7 -10l-4 -15q-42 0 -66 47q-21 60 -33 84l-46 148q-6 4 -12.5 4.5t-5.5 10.5q3 3 8 3l9 -3l10 -6q-9 21 -14 30.5
t-18 29.5l-34 53l-1 -157q0 -26 -1 -79t-1 -80l1 -130l7 -100q18 -15 37 -39l35 -40l-64 -6l-70 -2h-13h-12l-41 1h-39v10l209 5q3 6 -4 16l-11 13l-22 4l-26 1l-69 -6q-47 -6 -69 -6q-39 0 -68 15q-26 15 -43 57q29 39 85 95v716q-7 9 -38 27t-38 38l219 7q12 -11 61 -37
l53 -27l88 -138l92 -142l61 -92v60q-33 42 -108 162l-87 138h15l91 -145l89 -134v271l-86 76l4 11l23 -3l26 -1h41q24 3 36 4l54 5q23 0 40 -3t33 -11q27 -11 47 -51zM867 889l-59 -52l-9 -822q-17 -9 -36 -9t-36 7q5 9 24 9h15q23 0 23 18l-1 9l2 250l4 292l2 253l71 69
l4 -8zM348 434l1 -18l2 -17l-3 -19q-1 -7 -7 -13q3 -3 18 -5.5t15 -12.5l-2 -9l-15 -7q-12 -3 -12 -11q3 -3 14 -3l13 -1q7 0 10 -12q0 -8 -14 -14l-17 -6l25 -75q23 -72 44 -95q14 -27 48 -30l65 -4q-1 -14 -15 -22q-29 0 -51 6t-44.5 29t-39 65t-30.5 101q-7 3 -12.5 9.5
t-5.5 12.5l3 8l25 12q-3 6 -13 7h-12q-5 0 -8 8q0 12 5.5 20.5t17.5 8.5q-22 0 -22 20q0 10 5 15l2 18q0 23 3 34h7zM575 980l51 -49q21 -21 15 -38l7 5l10 3q9 0 15 -5q8 -3 12 -13q-3 30 31 58q13 11 24.5 22t16.5 17h-182zM685 877l-14 -25l-8 -3l-11 2l-11 11v-40l10 27
l21 -1q8 0 13 -8v37zM144 856v-24l10 12l-7 5q-3 5 -3 7zM277 844l-23 3l-12 -3h35zM641 810v-27l10 15l15 1q16 0 19 -13v21q-9 -6 -22 -8q-12 0 -22 11zM685 771q0 -17 -19 -17l-15 2l-10 2l4 -20l10 11l17 -1q9 0 13 -7v30zM287 655l-15 27l-3 -542l18 -19v534zM84 973
l16 -13l17 -8q6 -3 18.5 -18.5t12.5 -20.5v18q-3 6 -16 13l-15 9q-1 5 1 7l6 8h115l26 -37q6 -8 11 -27l-10 -9l-6 -1h21q21 -15 27 -38l-7 -8q-3 -3 -9 -1q21 3 31 -13q9 -7 11 -24q0 -14 -13 -15h20q18 -9 27 -34q-5 -5 -19 -10l-24 -3l-20 1l-20 1l-13 -1q-21 12 -25 34
l10 6q6 3 18 3h17q11 0 19 3l-15 2l-27 -2l-18 -1q-17 0 -27 7t-10 25l1 11l8 7q-20 0 -37 20l-5 21q5 6 9 8l-15 -1q-22 0 -31 12v-27q1 6 6 10t16 6q9 -5 11 -18l1 -19q-8 -6 -10 -12q1 -3 2 -5.5t7.5 -11t3.5 -17.5q-9 -8 -9 -15l4 -12q3 -5 5 -15l-4 -11q-1 -7 -8 -8
q-3 -2 -11 -2l-10 9l-3 15q0 12 9 21l-10 6l1 -22l-1 -28l-1 -25q0 -20 5 -31l8 9q9 0 22 -5l3 -19q0 -11 -5 -15l-11 -4l-21 7l-3 -470l-69 -74h182l-69 76v394l-16 -17q-5 -2 -11 1l-7 4l-3 15q0 9 6 12l9 5q3 -1 5.5 -1.5t6.5 -5.5q3 -2 6.5 -4t4.5 -2l2 124l2 115
q5 2 11 -5l447 -708l13 1q13 0 21 3v451l-13 -3q-12 0 -21 10q0 17 7 24l15 3q11 0 15 -8v20q-4 -3 -18 -5q-12 0 -19 8q0 23 8 27h12q12 0 17 -5v17l-25 -2q-8 0 -14 7q-3 6 -1 17q0 15 22 15l18 -3v10l-3 5q-5 -6 -14 -6l-15 3l-12 3v-285l-3 -26q0 -8 -12 -11l-123 185
l-133 208l-63 98l-62 92l-92 -2zM178 726l-1 -13q-2 -6 -11 -6q-21 -3 -18 12q-3 21 11 24q15 0 19 -17zM424 667l-4 -5l-17 2q-18 0 -27 -2l-30 -4q-14 0 -22.5 5.5t-12.5 21.5q6 6 18 11l25 3l25 -1q16 0 26 -2zM727 970q-4 -11 -28 -32q-20 -16 -29 -30q-18 0 -40 26
l-21 28v8h118zM451 625l-37 -3l-31 -4q-16 0 -24 4t-18 18q29 12 65 12h16l17 -2l10 -13q2 -3 2 -12zM178 640q3 -21 -12 -24q-18 5 -18 16q0 6 6 13.5t15 1.5zM474 594q6 -11 -5 -15l-18 -3l-25 1l-17 -3q10 -10 26 -10l18 2l19 2q10 0 18 -4q7 0 10 -6t3 -17q-7 1 -12 1
q-3 0 -17 -2l-40 -6q-28 0 -37 25l12 8l-32 16q-12 7 -9 23l38 4l29 5q14 0 23 -5q9 -3 16 -16zM171 537h-17l-3 12q0 15 12 18q12 0 12 -17q0 -6 -4 -13zM682 559q2 -15 -12 -18q-15 -3 -15 8q-6 15 11 18zM530 510q-3 -5 -5 -7l-7 -3l-19 3l-29 -3l-19 -2q-11 0 -19 4.5
t-12 16.5l33 5l28 2q19 0 30 -3.5t19 -12.5zM678 519q0 -12 -7 -16q-7 0 -14 4q-4 4 -1 12q3 6 11 7q8 0 11 -7zM175 503q-3 -6 -11 -6l-6 1l-4 2l-1 15q0 5 6 7q20 3 16 -19zM550 473v-8l-33 -3l-26 -2q-16 0 -28 4t-19 16l30 1h11q7 0 21 2q18 0 28 -2t16 -8zM678 480
q2 -6 -7 -12q-13 0 -16 5q-1 12 13 13q2 -1 4.5 -2t5.5 -4zM175 473v-11q-1 -6 -9 -4h-10l-3 9q0 7 6 16q6 2 10 -0.5t6 -9.5zM675 439l-1 -8q0 -4 -1.5 -4.5t-6.5 1.5q-11 -2 -11 10q0 8 10 8q6 0 10 -7zM572 439q5 -15 -12 -15l-18 -1l-16 3l-15 -1q-10 0 -15 -2
q-14 0 -22 15q23 7 46 7q16 0 25 -2zM171 434q0 -7 -1 -9t-11 -2v16l8 -1zM394 726v-15q-13 1 -41 -3l-30 -4q-14 0 -22.5 4t-16.5 18q-3 12 7 15l23 5h19l26 1q16 0 24 -6q4 -3 11 -15zM587 397l-29 -6l-22 -2q-22 0 -31 12l26 5l25 3q20 0 31 -12zM675 404l-5 -10
q-11 0 -15 7q0 9 11 9q6 0 9 -6zM171 397q0 -6 -2 -8h-10v12l6 -1zM596 370q-7 -13 -28 -13q-18 0 -35 7q6 11 27 11q15 0 22 -2zM675 364q-3 -3 -10 -3l-10 3q-3 10 10 11l8 -3q2 -2 2 -8zM169 359h-10q0 5 10 5v-5zM602 328q-6 -3 -16 -3t-17 7q6 6 22 8l11 -3v-9z
M671 332l-3 -6q-3 -4 -5 -4q-7 3 -7 8q0 3 4 7q8 -3 11 -5zM169 332v-4h-10v5z" />
    <glyph glyph-name="O" unicode="O" horiz-adv-x="976" 
d="M740 865q65 -34 112.5 -102.5t63.5 -136t16 -115.5q0 -131 -67.5 -248.5t-184.5 -205.5q-46 -26 -99.5 -41.5t-105.5 -15.5q-21 0 -43 3t-55 11q-59 13 -139 105l-125 160q-69 116 -69 263q0 117 49 209q44 100 132 174.5t191 74.5q95 0 172.5 -35t151.5 -100zM348 973
q17 4 39 7t41 3q60 0 110 -17t85 -53q0 -7 -1 -9t-2 -3q-30 0 -47 3t-28 21q-45 33 -113 33q-56 0 -79 -13q-19 -10 -53 -36q-30 -22 -47 -22q-10 0 -25 6q11 27 40 42l50 26q-50 -19 -94.5 -56t-104 -127t-59.5 -253q0 -58 12 -111t52.5 -123.5t122 -129.5t178.5 -59
q102 0 185 51.5t143 143.5q29 52 45 113t16 127q0 80 -22 153t-70 141.5t-123.5 112t-158.5 43.5q-23 0 -44.5 -3t-47.5 -11zM840 751q18 -24 27 -49l23 -74q9 -51 9 -100q0 -142 -70 -263.5t-194 -197.5q-18 -8 -38 -15t-54 -15t-79 -8q-70 0 -126 28q54 -27 85 -38
q12 -3 25 -5t28 -2q122 0 228.5 83.5t162.5 205.5q52 102 52 211q0 37 -4 65t-16 61q-18 60 -59 113zM672 863l-12 -13l-7 3v-8l6 1h5q26 0 41 -28q-3 -9 -11 -13l-23 -2h-14q-16 -4 -25 12l-9 20q-1 4 3 8l7 5q-14 0 -25 12l-15 23q0 12 16 13l15 -1h14zM263 886
q2 -14 -6.5 -27t-20.5 -18h-8q4 -2 5 -11l-4 -16l-5 -14q-11 -7 -31 -7h-22h-13l-4 8l7 13l7 12l23 9l-3 9q0 8 9 19l24 20l19 2q13 3 23 1zM738 763q-11 0 -32 -5l-31 -5q-30 0 -30 24q0 9 3.5 12.5t17.5 4.5l22 -1l14 3q12 3 21 -7q10 -9 15 -26zM214 781l1 -11
q0 -10 -4 -19t-13 -12q9 -3 9 -16q0 -9 -4 -20q-6 -6 -26 -6l-22 -1q-11 0 -12 -8h33q14 0 23 -9q3 -24 -16 -33q8 -3 9 -9l2 -18l-21 -10l-25 -3l-31 1l-24 -3q-10 0 -11 13l1 9l3 8l15 12q-9 3 -9 12l2 18q3 8 21 11q16 0 23 7h-22q-8 0 -12 5q0 14 5.5 25.5t18.5 14.5
q-6 3 -6 10q0 1 1 3.5t7 9.5l8 13q5 5 20 8l17 2l17 -1zM563 895q51 -68 75 -157t24 -190l-3 -78q0 -20 -2 -36q-5 -30 -7 -46q-18 -80 -50.5 -140.5t-96.5 -93.5q-27 -12 -64 -12q-38 0 -72 14.5t-62 42.5q-49 68 -72.5 157.5t-23.5 184.5q0 52 3.5 85t7 57t10.5 61
q12 66 54 124t86 67t66 9q34 0 65.5 -12.5t61.5 -36.5zM755 729q3 -14 -19 -17q-20 0 -26 -3l-14 1h-13q-23 0 -23 19v10l25 3l34 4q25 0 36 -17zM668 698v-19q0 -5 7 -11l13 1l20 -1l24 -1l25 3q9 3 16 13q-3 11 -14 15.5t-30 6.5l-33 -3zM785 631q-7 -5 -28 -8l-21 -2
l-27 1l-26 1q-5 8 -7 19q0 9 11 16q7 -3 24 -5l27 2l21 3q11 0 17.5 -5t8.5 -22zM792 601q3 -10 -6 -15l-18 -7l-21 1h-27l-23 1q-8 2 -17 8q-3 18 13 18l18 -1l12 3l18 1l20 1q13 0 19.5 -2t11.5 -8zM194 579q-8 -8 -21 -11.5t-30 -3.5h-23l-22 1l-19 -1v25l39 7l34 2
q21 0 36 -4zM795 559l-1 -13q-1 -5 -11 -5l-100 3q-6 9 2.5 18t22.5 6l14 -1l22 2l21 2q18 0 30 -12zM184 553l4 -12q0 -12 -8 -15t-19 -3l-13 1l-22 -1q-14 0 -22 -2q-14 0 -25 5q-1 16 10 23l15 -1l35 3l35 3zM795 511q-8 -4 -25 -7l-29 -2l-30 1l-28 1q-3 11 7 17l20 5
l14 -2l26 2l20 3q20 0 25 -18zM191 503q-9 -10 -28 -16l-39 -4h-18l-17 1q-6 2 -9 8q-1 5 3 11q26 6 54 6q30 0 54 -6zM785 469q-29 -8 -52 -8q-26 0 -53 8q0 9 7 12l15 4l19 -1q12 0 17 4l47 -4v-15zM194 463q-6 -8 -18 -13l-27 -3l-22 1l-22 1l-12 -1q-11 3 -7 11l37 7
l34 3q17 0 37 -6zM780 433l-29 -4h-23l-26 1q-9 0 -24 6q3 9 18 9h14q8 0 13 3l16 -1l18 2q20 0 23 -16zM199 421l-45 -10l-37 -3l-19 1l-4 15l41 3l41 3l18 -1zM770 403l-21 -5l-25 -1h-24l-22 1v8l33 3l28 4q18 0 31 -10zM199 394v-10l-36 -3l-27 -2q-16 0 -28 4
q3 12 24 12h19q11 0 17 3l15 -1q11 0 16 -3zM755 373q-6 -9 -20 -13l-33 -3h-22l-8 7l3 9h80zM203 354l-22 -8l-24 -3q-17 0 -29 6q3 4 11 7l18 2h21q12 0 20 3zM740 337q-2 -3 -13 -8l-18 -3l-13 1l-24 4l17 5l27 3zM209 324q-3 -12 -23 -12l-21 1l-12 -1l-2 11q5 3 8 3
l24 1zM138 646l-25 3zM485 886q-51 0 -95.5 -32.5t-63.5 -83.5q-30 -105 -30 -216q0 -59 7 -113t20 -102l37 -98q26 -57 68 -79q-42 62 -69 122q-13 30 -21.5 60.5t-13.5 62.5l-9 87l-1 67q0 94 21.5 167t80.5 125q41 19 84 19q30 0 60 -9q-10 9 -31.5 16t-43.5 7zM468 853
q-27 -3 -51 -21.5t-39 -43.5q-9 -25 -18 -55t-17 -67q-12 -65 -12 -132q0 -109 30.5 -204t93.5 -171l63 18q37 23 54 52t46 95q14 54 21.5 116.5t7.5 117.5q0 42 -3 77t-11 70q-13 66 -45 128l-57 15q-23 6 -46 6zM615 624q-25 -3 -35 -11.5t-15 -25.5l-4 -32l-1 -38l2 -79
l3 -55q0 -65 -19.5 -105t-77.5 -61l-25 1q-8 2 -15 11q-2 5 2 9l10 9q17 -12 37 -12q9 0 21 6l23 23q-2 3 -13 4h-14q-6 0 -6 9q16 0 28 11q12 8 20 24l3 19q0 29 -16.5 49.5t-35.5 37.5q-17 19 -37.5 27t-44.5 13q-10 0 -25 -8.5t-24 -5.5q-3 6 -3 11t5 10q9 9 22 9
q50 0 95 -28.5t73 -76.5l5 23l1 28q0 18 -2 35.5t-3 28.5l-5 59q0 33 9.5 55.5t39.5 40.5l16 -6q6 -2 6 -9zM498 683l-22 -13q-5 -4 -11 -16l1 -32q0 -11 -8 -14l-6 25l-3 20q0 18 6.5 24t17.5 10l13 4q8 0 12 -8zM558 785l8 -28q0 -8 -6 -14q-11 0 -14.5 19t-12.5 26.5
t-25 7.5q-10 0 -23 -4l-20 -4q-22 -14 -30 -35.5t-8 -47.5q0 -22 2 -31l9 -40q4 -6 6 -17.5t2 -22.5l-6 -5q-2 -2 -2 -10q4 -3 19 0l17 4q13 0 21 -12q6 -18 -14 -27.5t-23 -17.5q6 -3 19 0l16 4q8 0 13 -12l-8 -25l35 -69l-5 -6q-12 9 -24 36q-10 27 -28 34l12 23l-16 -3
l-15 -3q-9 0 -17 9q-3 9 0 17q5 9 21 18q8 0 19 10q-3 3 -16 5l-30 -3q-12 0 -14 12l3 16l8 12l-17 62l-4 43q0 24 6 40.5t19 31.5q11 15 23 22q2 1 14 5t19 6q36 5 67 -26z" />
    <glyph glyph-name="P" unicode="P" horiz-adv-x="943" 
d="M641 981q-41 7 -69 11t-57 4q-26 0 -74.5 2.5t-61.5 2.5l-166 -4l-170 -4l15 -22l52 -43l3 -749q-6 -12 -29 -31.5t-26 -39.5q19 -38 53 -56q33 -15 77 -15l78 6l73 7l36 -3l31 -31l-89 -4l-75 -1q-18 0 -36 -1t-36 -4l48 -4l32 -1l93 4l98 4l-7 7q-12 13 -22 21
q-27 24 -30 41l-3 324l8 17q172 0 255 21t140 64t87.5 98.5t30.5 119.5q0 42 -25 82.5t-67 75.5q-26 26 -71.5 52.5t-95.5 48.5zM892 422q-20 -38 -63.5 -61.5t-98.5 -39.5q0 -12 -8 -19q-11 -3 -20 9q-5 12 -5.5 13t-2.5 2l-4 -8l3 -15q-3 -6 -5 -8q-12 -2 -18 2l-17 14
l-120 -47q11 17 62 41t55 28q2 -1 5 -3t6.5 -7.5t10.5 -4.5l3 14q0 12 13 13q9 -9 21 -9l19 4l20 4l10 -2q32 9 60.5 27t40 33.5t11.5 24.5l-2 12l-2 12q0 7 10 14q19 3 19 -21l-1 -12zM583 371q0 -26 -19 -49t-46 -42l-13 3q-7 0 -18 -6l-15 -9q-5 -5 -7 -19l1 -13l2 -8
q17 -19 37 -19l16 4q0 20 12 28t31 8l32 -2l25 -2q13 0 17 2q22 -9 40.5 -21.5t27.5 -31.5q0 -10 -12 -22q-4 3 -20 30q-12 24 -33 30q-17 9 -34 9q-18 0 -53 -23t-53 -23q-14 0 -29 6q-22 -19 -38 -45q-8 -16 -10.5 -28t-2.5 -24l1 -11q1 -4 13.5 -10.5t13.5 -10.5l-4 -10
q-3 -6 -13 -7l-8 1l-13 11q-8 10 -8 34q0 18 4 30q3 14 15 36q2 9 18.5 27.5t16.5 30.5q0 10 -8 19q0 38 35 51l7 -1h4q21 0 35 13l24 28q9 13 11 22q0 7 -5 17l-5 13q0 8 18 8zM880 661q-30 -101 -123 -156t-212 -67l-175 -4l-10 -15v-314l-15 15v340q138 0 214.5 8.5
t156.5 47.5t115.5 104t35.5 117q0 41 -17 71q18 -18 27 -45t9 -56q0 -22 -6 -46zM761 861q20 -46 20 -89q0 -65 -43 -126.5t-124 -82.5q-39 -10 -88 -15t-114 -5h-78h-35l-37 -2l-10 -14v-348l58 -55l-216 -4q-1 9 16 29l19 21l-1 241q0 51 -0.5 118t-1.5 149l-1 253l-46 47
q15 0 73 2t101 2l133 5q80 0 140 -6q29 0 55.5 -5t71.5 -17q32 -15 61 -42q26 -23 47 -56zM228 873q1 -7 -7 -14q-8 -4 -15 -1l-16 4l-19 -1l-11 -1q-10 0 -17 4q-4 4 -2 18q6 9 17 13l28 4l17 -1l22 -1zM746 835v-17q-12 1 -40 -3l-36 -4q-18 0 -26.5 4.5t-14.5 19.5
q-2 7 1.5 12.5t10.5 6.5l14 -1l22 1q16 0 24 2q17 0 27 -5q11 -3 18 -16zM228 842q-14 0 -21 2l-21 2q-18 0 -26 -2l-16 -2v-20l3 -14h41l21 1q14 0 19 2v31zM571 901q20 -22 31.5 -56.5t11.5 -69.5q0 -32 -4 -49l-11 -48q-6 -31 -43.5 -60t-136.5 -29h-42l-40 1l-31 -1
q-14 0 -44 -6l-7 9v350l17 -1h18q10 0 34 1t38 1l67 4q47 0 81.5 -9t60.5 -37zM753 803l-35 3l-39 -3q-8 0 -18.5 -1.5t-26.5 -5.5q3 -2 4 -16q0 -11 7 -15h43h17h24l27 4v8zM228 765l-36 -3l-24 -3l-20 3q-7 3 -8 13l1 10l6 11q10 -2 30 2l30 4q24 0 24 -20zM753 757
l-16 -1h-12h-29q-30 0 -40 -2t-22 -8v-14q0 -7 7 -10l27 -1h30l29 1q15 0 26 4v31zM231 743q3 -21 -9 -27t-37 -6h-23h-11q-9 9 -10 23l3 13q26 7 44 7q26 0 43 -10zM742 707l4 -10l-9 -18l-40 -3l-44 -3l-31 3q0 18 12 25.5t31 7.5l31 -2l30 -2zM231 685q4 -11 -4 -17
q-6 -2 -21 -2l-11 1l-18 -1l-11 -1q-21 0 -25 16q6 21 44 21q35 0 46 -17zM710 657q6 -12 -5 -20l-21 -11l-92 4q-1 7 4 14l14 13h100zM228 623l-23 -2l-26 -2l-23 3q-8 3 -12 13q-3 12 11 15l15 4l58 -4v-27zM660 611q1 -6 -9 -13l-13 -9l-82 3q5 11 17.5 15.5t20 5.5
t22.5 1l22 -1q14 0 22 -2zM231 599q1 -15 -21 -19l-25 -3l-38 6q0 17 1.5 22.5t14.5 5.5l40 1q21 0 28 -13zM588 568q-51 -9 -92.5 -13.5t-92.5 -4.5l-170 -1l-26 -7q-12 -3 -29 -3l-24 3q-7 3 -8 10l1 10l4 11l5 -5l254 2l178 3v-5zM231 510l-56 -10q-18 0 -28 11
q3 9 13 13l24 4l24 -1q15 0 23 -2v-15zM228 481q2 -11 -10 -12q-12 0 -16 -4l-48 4q2 17 24 17l31 -3l9 1q6 0 7.5 -1t2.5 -2zM722 870l-30 -6l-24 -1l-54 3l-16 31l39 4l36 5q19 0 31 -8t18 -28zM225 434l-22 -1q-14 0 -22 -2q-17 0 -27 7q17 11 39 11q26 0 32 -15z
M221 398q-11 -8 -31 -8q-19 0 -34 8q5 14 26 14t28 -2q9 0 11 -12zM679 916l-26 2l-27 -1l-26 -1q-22 0 -38 6t-29 25q-25 8 -62 13l-66 4l-90 -4l-82 -3l-8 -41l-33 -3l-27 -4q-13 0 -19.5 5.5t-6.5 23.5l-17 12q-13 9 -12 19l174 2l124 3h58t41 -2q26 0 79 -6l57 -21
q25 -8 36 -29zM216 373l-4 -11q-3 -5 -10 -5h-22q-10 0 -17 7q3 10 21 10zM233 352q0 -8 -2 -10h-10l3 10q3 6 9 0zM209 337q1 -10 -7 -11l-15 -1l-17 1q-3 13 13 14l13 -1zM339 866l-1 -66v-66q0 -76 7 -132h15l-1 53l-1 61l1 69q0 19 8 57l64 1l67 1l43 -1q23 0 39 -4
q-21 17 -51.5 25.5t-63.5 8.5l-60 -4zM382 820v-216q-3 5 3 27.5t6 32.5q14 31 27 54t29 43q29 36 78 42q10 -2 18 -6.5t9 -15.5q-6 -9 -16 -10l-15 4l-18 4l-9 -2q-42 -27 -66 -76q-10 -24 -16 -49t-6 -50q65 0 96 7q34 6 54 34t30 62.5t10 68.5l-1 25q-10 6 -23 11.5
t-25 8.5q-24 6 -54 6l-61 -3zM509 703q-58 -24 -75 -84l25 28q21 27 35 34q3 3 12 5l13 -4l15 -3l6 3l2 13q-6 5 -14 6z" />
    <glyph glyph-name="Q" unicode="Q" horiz-adv-x="954" 
d="M742 822q22 0 42 -24l39 -46q37 -51 58 -118t21 -138q0 -120 -54 -219l-68 -111q26 -28 39.5 -50.5t13.5 -50.5l-2 -17l12 5q5 -10 5 -27q0 -29 -15 -50.5t-41 -29.5q-25 -6 -71 -12q-36 6 -69 27q-34 19 -60 50q-52 -19 -105 -19q-32 0 -65 7t-66 22q-63 28 -132 99.5
t-125 183.5t-56 226v27.5t4 36.5q3 29 24.5 100t99 161t151.5 109.5t110 19.5q84 0 157 -43q39 -22 75 -50t78 -69zM423 962l-22 1q-41 0 -79 -17zM430 965l109 -24q30 -16 45 -28q17 -10 26 -30q-3 -3 -17 -5l-22 1q-40 29 -75 45t-69 16l-26 -3q-29 0 -80 -33
q-24 -16 -42.5 -24t-33.5 -8q-14 0 -19 2q0 15 27 33l28 20q-69 -35 -121 -105t-76 -144.5t-24 -148.5q0 -107 43.5 -202t103 -145t112.5 -68q27 -8 52 -12t55 -4q45 0 83 8t76 27l41 -36q17 -14 34 -26q29 -20 66 -20q14 0 23.5 2t21 11t16.5 24l4 23q0 12 -4.5 20
t-17.5 11l-12 -12q-15 -6 -30 -6q-24 0 -42.5 11t-42.5 33l49 71q24 34 37.5 56t24.5 44q17 35 27 82q4 20 7 47.5t3 52.5q0 80 -21.5 151t-63.5 137q-54 68 -123 113q-34 21 -71 32t-81 11zM834 703q10 -22 16 -41.5t13 -48.5q9 -45 9 -97q0 -104 -39 -201t-111 -169
q9 -2 17 1l13 4l74 113q30 52 45.5 114.5t15.5 124.5q0 28 -3 54t-10 53q-12 49 -40 93zM331 54q31 -22 68.5 -33.5t78.5 -11.5q59 0 111 23l49 -48q27 -17 51 -27q11 -4 24.5 -7t27.5 -3q25 0 45 10.5t35 30t15 40.5l-2 14q-8 -22 -22.5 -40.5t-34.5 -24.5q-23 -10 -42 -10
q-33 0 -74 28l-75 54q-56 -24 -122 -24q-74 0 -133 29zM261 863l-11 -22q-5 -10 -17 -18l-48 8q5 15 22 24.5t36 9.5q14 0 18 -2zM231 815l-5 -25q-1 -9 -13 -10l-59 1q0 11 6.5 21t15.5 13l19 2l20 -1zM628 770l3 -20q1 -2 2 -4.5t4 -5.5l33 -1q31 0 45 7v7q-5 12 -15 18
t-25 6l-25 -3zM213 769l-3 -25q-1 -11 -13 -14l-18 3l-18 -1q-12 0 -18 -2l58 -9l2 -10q0 -14 -10 -24h-35q-11 0 -23 0.5t-32 3.5q2 16 7.5 24.5t17.5 11.5q10 0 12 0.5t3 2.5q-11 0 -16.5 2t-5.5 7l4 7q3 14 14.5 20t29.5 6l22 -1q14 0 22 -2zM735 709q-4 -7 -14 -11
l-21 -3l-19 1l-19 1l-11 -1l-8 7l-1 20l31 4l20 2q31 0 42 -20zM589 825q25 -62 40 -139t15 -155q0 -83 -15.5 -155t-49.5 -138l-10 -5q-1 1 -2 1q-8 4 -13 10q-8 10 -16 15l-15.5 10t-26 13t-39.5 8q-23 0 -41 -12l-11 -15l-4 -14l3 -11l3 -3q6 8 17 17q12 7 23 7
q8 0 15 -4q29 -9 48 -29q21 -18 30 -45q-17 -24 -40 -33t-55 -9h-15h-11q-8 2 -12 2l-26 3q-78 30 -116.5 97.5t-48.5 147.5q-4 36 -7 88t-3 103q0 119 33.5 207.5t125.5 127.5q35 11 62 11q50 0 94.5 -27t67.5 -74zM749 675v-18l-88 -5q-11 5 -11 22l1 11l32 2l29 4
q24 0 37 -16zM196 664l-6 -17q-2 -5 -12 -8q12 -2 12 -15l-1 -15q-10 -4 -30 -8l-35 -2h-25l-15 2l-2 12q0 23 20 23h25q17 0 25 3l-30 4h-15q-11 0 -16 2q-1 8 -1 11q0 4 2.5 13t16.5 10l16 -1l23 1l15 1q17 0 23.5 -3.5t9.5 -12.5zM763 631q-1 -9 -8 -15t-27 -6l-19 1
l-20 1q-12 0 -20 -3q-6 2 -9 7l-2 23l23 4l17 1l14 -1h14l28 3zM766 589q6 -16 -13 -19q-17 0 -20 -3l-18 1h-15l-25 1q-9 2 -15 8q0 19 19 19l40 4h24q17 0 23 -11zM183 562l-100 -4q-6 6 -7 14l3 10l40 5l51 1h14zM770 545q3 -12 -11 -13q-14 0 -16 -2l-15 1l-16 -1h-14
q-15 0 -22.5 2.5t-12.5 10.5q0 14 18 14l21 -1q11 0 16 4l12 -1h16q20 0 24 -14zM183 540l-3 -18l-99 -1v21q23 5 47 5q30 0 55 -7zM769 500q-7 -4 -21 -8l-26 -2l-28 1q-18 0 -27 2l-4 7q-3 6 1 10l23 4l28 1q33 0 54 -7v-8zM184 496q3 -10 -5 -14h-18l-14 2l-19 -2
q-15 0 -24 -2l-15 3q-6 3 -9 12q13 8 40 8l25 -1q16 0 26 -2l11 1zM765 472q-6 -9 -16 -12.5t-26 -3.5l-17 1l-19 1l-21 -3q-6 5 -5 14l22 7l27 2l28 -2zM189 454l-23 -10l-28 -2l-24 1l-27 1l-2 7l-1 8l51 2l36 3l15 -1zM756 433v-9q-21 -6 -47 -6q-18 0 -26.5 1t-25.5 7
l6 12h36l29 -1q16 0 28 -4zM192 420l-19 -10l-27 -2l-28 1q-16 0 -25 2q1 12 15 14l23 -2q8 0 11 2l29 1q13 0 21 -6zM748 396q-20 -6 -45 -6l-26 1l-20 3q0 5 10 8l12 3l15 -1l26 1l14 -1q7 0 14 -8zM194 381q-18 -4 -27.5 -4.5t-14.5 -0.5q-30 0 -45 5v12l22 -1h20l21 1
l24 -2v-10zM733 363q-22 -10 -50 -10q-19 0 -30 4q2 5 11 8t21 3q20 0 29 -2zM198 352l-21 -8l-23 -3q-15 0 -31 5v7l37 3q25 0 38 -4zM719 329q-9 -6 -23 -6l-23 2l-21 3l21 5l18 1q17 0 28 -5zM205 318l-21 -5l-20 -3q-13 0 -17 2q-1 12 9 13q17 0 19 2h20q8 0 10 -9z
M653 845q3 -9 -7 -13l-11 -4l31 -6q15 -6 18 -25q0 -10 -18 -13q-15 0 -23 -4q-12 -1 -19 3l-15 31q-3 10 7 11q13 0 16 3q-16 -3 -28.5 6.5t-22.5 29.5q0 10 16 11l15 -1q10 0 15 -2zM464 837q-30 0 -56 -20t-42 -51q-41 -112 -41 -248q0 -37 3 -71.5t10 -71.5
q14 -66 43 -125q8 15 20 30.5t26 21.5l25 5q16 0 33 -7l36 -12l51 -35q27 60 42 132.5t15 149.5q0 154 -52 276q-21 14 -58 20zM462 866q-38 0 -75 -26t-58 -65q-40 -117 -40 -243q0 -80 15.5 -156.5t49.5 -144.5q6 -19 24 -44q17 -20 39 -28q-37 49 -65 115q-24 65 -39 138
l-2 83l-1 52q0 100 19.5 170.5t81.5 120.5q37 16 76 16q32 0 61 -11q-6 4 -16 8.5t-28.5 9.5t-41.5 5zM472 187q-6 7 -14 8q-7 0 -14.5 -13t-15.5 -11l12 -14q3 -1 10 -1q8 0 13 2l23 9zM541 771q11 -9 11 -27l-2 -13l-15 -3q3 18 -7 30t-30 23q-28 3 -48 -13.5t-31 -42.5
v-46t2 -35q0 -11 4 -23t11 -28l-6 -10l-6 -11l12 -4l14 3l15 3q11 0 17 -14q3 -17 -16 -26.5t-20 -19.5l30 12q6 0 12 -6q4 -6 4 -9v-12l-8 -9l18 -36q14 -25 14 -43q-8 5 -23 34q-12 27 -30 33v10l12 14q-6 2 -16 -2l-14 -4q-7 0 -11 4.5t-6 14.5q0 12 3.5 16.5t18.5 10.5
q14 4 17 13l-13 4l-14 -4l-16 -3q-8 0 -15 7q-2 6 -2 9t2 9l12 16l-21 106l3 29q3 13 13.5 27.5t32.5 26.5q9 5 20.5 8t22.5 3q30 0 49 -22zM596 620v-10q-15 3 -28 -6.5t-19 -26.5l-4 -39l-1 -26l3 -66l3 -65q0 -48 -11 -84h-15q0 69 -36 104q-35 32 -54 42t-41 10l-21 -3
l-12 -12q-5 -3 -11 2q-6 3 -6 10q1 3 2 5.5t5 6.5q9 7 26 7q4 0 12.5 -1t23.5 -5t35 -15t47 -35t39 -54l5 26l1 28l-4 58l-4 58l3 42q3 18 12.5 38t29.5 20q12 0 20 -9zM484 673l-22 -15q-9 -7 -11 -19l3 -41q-10 1 -14 20l-3 21q0 13 8 24t21 18l9 -3q7 -2 9 -5z" />
    <glyph glyph-name="R" unicode="R" horiz-adv-x="946" 
d="M764 876q42 -36 70 -82q14 -23 21 -45t7 -46l-1 -19q0 -56 -33 -105t-88 -83q-18 -3 -45 -19l-28 -14q42 -84 89 -167l114 -190l-15 3l-34 53l-37 62l-70 127l-62 123q58 15 105.5 49.5t70.5 81.5q10 23 16 45.5t6 43.5q0 78 -57 140h-4l21 -69q11 -38 11 -64
q0 -22 -4.5 -38t-18.5 -35q-25 -52 -77 -83t-119 -46l-5 -9l132 -231q69 -117 144 -207l-11 -8l-299 5l-66 72q2 6 29 30t27 37t-11 24l-117 204q-5 6 -18 6l-20 -1l-12 -15l5 -351l34 -43l-45 -5l-52 -1l-70 1h-26h-26q-12 2 -17 2v7l214 1l-31 32l-25 5l-30 1l-57 -4
l-63 -3q-45 0 -74 12t-50 51q-6 17 10 34l31 33l-3 749l-57 72h100l101 1q27 0 77.5 -1t73.5 -1q65 0 132 -8q31 0 56.5 -7.5t49.5 -21.5q40 -23 131 -85zM421 397q10 -15 40.5 -86t61.5 -99v-10l-24 7l-82 177h-5l-4 -21l-1 -16q0 -15 5.5 -24t19.5 -13q4 -12 -8 -17
l-14 -7q22 -3 23 -17l-4 -19l-4 -18q0 -7 5 -15q0 -23 8 -41.5t40 -61.5q-3 -5 -15 -7q-19 30 -31 72q-4 18 -7 39.5t-3 41.5q0 10 -12 15q-12 3 -13 11l23 24q-9 3 -15 12l-4 22l1 23l3 28h16zM889 0l-273 5l-7 5l147 1l147 1zM679 910q-68 47 -146 66t-176 19
q-29 0 -48 -1q-93 -5 -115 -5l-127 -6l49 -53l1 -621l-3 -29v-19.5t2 -24.5l4 -38q0 -26 -7.5 -41.5t-31.5 -28.5l101 -5h106q0 9 -20 26q-20 15 -25 23l-3 356l27 6l31 2q25 0 34 -2q13 0 41 -7l17 -24q5 -10 7 -22l-2 -10l-63 -5l3 -351l30 -32l-6 339q11 15 38 15
q13 0 32 -4l125 -220q12 -11 14 -24q0 -11 -24 -35q-23 -20 -26 -30l231 -1l-52 48l-205 364l1 24q33 0 66 9.5t65 24.5q59 27 94.5 73t35.5 103q0 45 -21 78zM224 885q0 -13 -2 -21q0 -10 -14 -9l-11 1l-18 -1q-12 0 -19 -2q-23 0 -23 18l3 12q3 6 13 10l23 4q28 0 48 -12z
M715 827q7 -9 5 -26h-102l-10 14q-4 6 -2 17l23 3l33 3q35 0 53 -11zM223 820q2 -5 0 -9.5t-13 -9.5l-19 2l-22 -1q-13 0 -20 4t-9 19q0 18 20 18l28 -2l15 3q9 0 16 -6.5t4 -17.5zM723 757l-12 1l-31 -3l-31 -3q-29 0 -38 23v10l24 5l29 1l31 -1l28 -1v-32zM222 777
q-3 -17 -29 -17l-18 1l-11 1l-16 -3q-9 9 -10 20l3 8q12 6 32 6l17 -1l18 -1l11 1zM719 742q4 -7 -2 -18l-7 -16l-104 1q-3 16 4.5 26.5t25.5 7.5zM225 723q-17 -10 -41 -10q-25 0 -44 8q-3 12 3 20t20 7q3 -3 17 -3l26 1q11 0 16 -5q6 -3 3 -18zM697 692
q-5 -15 -19.5 -20.5t-32.5 -5.5l-22 1l-21 1l-12 -1l-3 10q0 11 11 14.5t30 5.5l19 1l19 1q18 0 31 -7zM224 685q-5 -6 -18 -11l-28 -3l-32 3q-6 5 -6 12q0 5 10 14l15 -1l26 1q11 0 20 -3.5t13 -11.5zM650 650q1 -8 -6 -14l-26 -13l-14 1l-27 -1q-22 0 -28 13q5 8 16 12.5
t28 6.5l32 -3zM223 642q-4 -8 -16 -14l-24 -4q-17 0 -23 2l-13 3q-1 1 -1 2q-4 7 -4 16q11 3 21.5 5t21.5 2q26 0 38 -12zM556 605q-4 -10 -23 -14l-34 -4q1 7 12 13l16 9q3 -3 15 -3zM222 592q-9 -9 -30 -9l-31 2l-10 -1l-7 15q0 6 8 10l14 -1l28 1q17 0 22 -3.5t6 -13.5z
M362 557q-15 -2 -42 -4t-61 -2q-71 0 -107 -6q-11 3 -8 21l37 3l38 1l38 -1h40l58 3zM462 555l-1 -14l-12 1l-27 -1q-13 0 -19 4.5t-7 19.5l16 4l22 3q24 0 28 -17zM482 510q-3 -9 -20 -9l-32 1l-9 10q-3 7 2 12l11 -1l23 1q19 0 25 -14zM212 506l-62 1v15l62 -1v-15z
M497 477l-1 -11l-29 -2q-19 0 -26 10q-3 5 4 8l9 4q28 0 43 -9zM213 471q-15 0 -22 -2l-10 -1q-14 0 -19.5 1t-15.5 7q10 10 31 10q15 0 22 -2l11 -3q3 -6 3 -10zM518 438v-7l-53 1q3 14 23 14q17 0 30 -8zM211 437q-9 -6 -27 -6l-33 1l-2 13h14l26 -1q14 0 22 -7zM203 397
l-50 1l1 12l14 -4l13 2l13 2q9 0 9 -13zM537 400q-3 -10 -18 -10q-11 0 -17 2l-10 3v9l23 1q11 0 22 -5zM560 864q11 -17 19 -42q3 -11 5 -24t2 -27q0 -21 -1 -31t-7 -30q-30 -52 -49.5 -77.5t-57.5 -34.5l-86 -5l-140 -2l-5 341l20 6l24 2l18 -1h18l26 3q43 0 74 -3t60 -11
q50 -12 80 -64zM510 364q7 2 15 -1l12 -3q5 0 11 7q-5 6 -13 6q-6 0 -14 -4zM199 366q-5 -6 -15 -6h-21l-7 10q21 0 28 -2q11 0 15 -2zM190 335v-7l-26 1q2 9 17 9q6 0 9 -3zM563 332q0 -6 -7 -7h-12v7h19zM644 906l-19 -10q3 -6 12 -6l21 3l12 -3l27 -32q-29 -12 -63 -12
q-23 0 -41 7l-17 31q3 6 14 6q9 0 14 6q-29 3 -88.5 33t-98.5 30l-21 -2l-167 -4q-6 -7 -7 -20v-13q0 -8 -3 -14l-31 -3l-26 -2l-15 1q3 18 -13 35l-29 33l33 5l36 1l33 -1h34h35l22 4q131 0 208 -11.5t138 -61.5zM332 854l1 -154l2 -91h15q8 0 13 3l-4 202l11 8l68 2l47 3
h17.5t19.5 -2q16 0 34 -8q-20 22 -52.5 31.5t-74.5 9.5l-50 -2zM556 798q-12 6 -34 11l-38 3h-24q-21 -3 -33 -4l-49 -3v-193l35 -5q10 3 27 32q17 25 30 35l19 10q6 3 14 3q9 0 16 -7l-1 -6l-6 -6q-24 3 -37 -9q-3 -3 -10 -12l-28 -36l25 3q12 2 18 8q44 20 66 63.5
t22 97.5zM486 781l-34 -23q-20 -12 -20 -36l1 -10q-10 2 -15 5l-8 -6l-3 -9q0 -5 9 -13l10 -9q-14 -3 -19 -15l-4 -31l-1 -16q9 6 15 33t24 30q-7 6 -14.5 9t-7.5 14l30 3q3 5 0 15l-3 13l18 21q9 9 19 13l20 -7q2 1 4.5 2t4.5 4q0 8 -6 10z" />
    <glyph glyph-name="S" unicode="S" horiz-adv-x="893" 
d="M596 958l-157 32q-22 4 -51.5 7t-55.5 3q-61 0 -114.5 -15.5t-97 -56.5t-54.5 -75l-10 -49l-2 -31q0 -60 33.5 -116t88.5 -97q24 -68 109 -98l147 -38q63 -22 99 -45q36 -21 43 -65q0 -30 -15 -53t-45 -49q-62 -37 -132 -37q-46 0 -82 18q-40 9 -126 81.5t-133 80.5
q8 -25 23.5 -131t88.5 -151l67 5q54 -17 123 -30t128 -13q82 0 151.5 23.5t114 65t61.5 87.5t17 96q0 54 -18 102q13 -8 21 -29l12 -39l6 -29l2 -30q0 -49 -21.5 -93.5t-61.5 -80.5q-44 -52 -111.5 -75t-146.5 -23q-46 0 -66 2t-57 9q-60 10 -101 21l-45 10q-23 0 -39 -16
l14 -2l25 3l30 2l134 -29q24 -4 56.5 -7t62.5 -3q56 0 107.5 12t105 51t91 96.5t37.5 124.5q0 70 -34 123.5t-83.5 92t-105.5 71.5q-50 29 -149.5 63t-122.5 70q-21 36 -21 48q0 27 19 52q22 17 52 26q14 4 27.5 6t33.5 2q23 0 35 -2q18 0 63 -7q10 -3 14 -5l14 -5l7 3
q-18 7 -38 13q-6 2 -27 7q-35 8 -69 8q-35 0 -68 -10t-57 -29l-14 -33l-4 -31l3 -22q6 -17 22 -33l29 -29q-26 7 -44 19.5t-37 37.5q-10 23 -10 43q0 21 10 44q20 35 63 56q43 19 87 19q76 0 118 -29q47 -29 127 -98t138 -87l9 7l-77 223h-7q3 -31 28 -104q12 -35 19 -58.5
t10 -40.5l-20 13q-21 48 -38.5 98.5t-32.5 106.5l-83 60zM447 807l-3 -10q-3 -4 -5 -5l-12 3q-16 0 -22 -11l-4 -17q0 -18 12.5 -34t33.5 -28q25 -10 45 -10q42 0 63 18t21 26q0 6 -15 15t-17 15q0 6 15 15q12 0 18 -7l12 -18q3 -23 -12 -38.5t-41 -27.5l-49 -10l42.5 -11.5
t47.5 -14.5q18 0 26 5l15 5q9 0 14 -8l6 -24q9 22 30 22l12 -4q6 -5 6 -16l-3 -19l16 2q23 0 36.5 -10t71.5 -71l2 -21q0 -17 -12 -19q-6 -1 -9 3l-6 11q3 5 5 15q0 8 -3 14q-2 8 -11 18q-21 22 -40 33.5t-41 11.5l-16 -2q-9 5 -9 13l2 14l-1 12l-11 -15q-8 -12 -15 -12
l-8 3q-9 1 -12 9t-3 21q-38 0 -66 4t-62 16q-58 19 -94 67q-6 12 -6 28q0 18 9 36l15 11q9 6 16 6q10 0 16 -9zM126 533l-7 -27q0 -9 10 -18q15 -23 56 -47q44 -22 51 -29l15 15q7 7 15 7q6 0 14 -7l8 -30l13 13q8 5 16 5q5 0 13 -6q12 -18 50.5 -30.5t53.5 -24.5t30 -36
q12 -19 17 -44q1 -16 -5 -26.5t-26 -27.5h-16q-6 0 -10 8q0 15 19 15q18 0 21 12l3 15q0 14 -6.5 27.5t-19 27.5t-31 20.5t-40.5 9.5q-23 -6 -38.5 -15.5t-24.5 -29.5q0 -6 7 -14l7 -13q0 -5 -6 -11l-10 1l-13 16q-1 4 -1 12q0 7 4 15l32 36l48 12q-3 8 -28.5 14.5
t-28.5 25.5q-6 0 -11.5 -12.5t-14.5 -12.5q-14 0 -19 18q0 17 -7 22q-7 0 -11 -10q-1 -10 -9 -12q-15 3 -35 17.5t-35 19.5q-30 15 -51 41.5t-21 57.5q0 6 11 7q8 0 11 -7zM596 943q1 1 11.5 3.5t15.5 3.5q18 0 18 -19l39 -131q-55 56 -130 94.5t-151 38.5q-33 0 -69 -9
q-34 -7 -67 -33q-28 -23 -47 -57q-8 -26 -8 -44q0 -23 13 -46q51 -61 150 -93l188 -58q99 -39 147 -117q15 -28 28 -66q5 -15 8 -32.5t3 -34.5q0 -38 -14 -63q-11 -52 -52 -91t-80 -52.5t-69 -18.5l-56 -4q-37 0 -76.5 5t-98.5 18l-125 26l-73 -7l-32 158q33 -25 59 -43
l51 -35q43 -27 104.5 -51t116.5 -24q53 0 106 22q36 26 61 65.5t25 81.5l-3 29q-29 96 -128 138q-84 23 -96 26q-40 11 -103 30q-102 30 -151 104q-40 48 -40 115q0 17 6 57t47.5 81.5t106.5 62.5q24 6 57 9l60 3q67 0 121 -11q27 -4 59.5 -12t67.5 -19zM210 528
q42 -48 163 -75t164 -61q-36 35 -173 79.5t-154 56.5zM216 882q0 -17 -9.5 -23.5t-25.5 -8.5l-22 2l-23 2l-13 -2q-7 4 -7 11t5.5 15.5t12.5 12.5h33q22 0 28 -2q8 0 21 -7zM210 713l-5 -5q15 0 30 -11t23 -25l-35 -3l-32 -1q-40 0 -68 7l-7 27l17 2l18 1q23 0 35 3l-42 3
q-31 0 -45 14l-2 17l4 8l10 -2h12l22 1l22 1q21 0 32 -8q11 -6 11 -29zM348 630l-189 3l-18 20l8 7l47 -4l33 1l34 1q29 0 50 -6q20 -4 35 -22zM511 585v-7l-290 12l-20 15l5 10l63 1l63 1q57 0 98.5 -6t80.5 -26zM571 560l14 -5q6 -3 8 -12l-4 -7l-66 4l-48 -1l-47 -1
q-45 0 -73 4.5t-60 20.5l5 10zM589 924q9 0 21 4l18 3l18 -47q7 -19 10 -43l-94 62q-37 24 -81 33q-38 15 -86 15q-23 0 -42.5 -3t-42.5 -11q-40 -12 -79 -39l-20 -1l-21 -1q-22 0 -37 8q37 31 93 50q29 8 56.5 12t61.5 4q41 0 83 -6zM186 837l3 -13q0 -17 -13 -24l-23 1
l-15 1l-22 -3l67 -10v-30l-18 -1h-18q-19 0 -29.5 1.5t-25.5 9.5q-3 10 3 20q7 8 21 10q-18 0 -18 20l3 15q13 10 30 10q13 0 30 -4zM643 503l-12 -9l-19 1q-15 0 -22 2l-29 -1h-28l-50 3q-19 3 -36 19l7 6l174 -6zM676 468q3 -6 -1 -10l-10 -4h-16h-25h-22q-8 2 -11 2
q-19 3 -47 12v8l34 1l34 1q37 0 64 -10zM695 419l-106 3v12l18 -1l23 1l24 1q15 0 26 -3.5t15 -12.5zM706 394v-5l-45 -4h-19l-26 4v12h21l22 1l26 -1q10 0 21 -7zM706 355h-78l3 9h75v-9zM710 319h-67q0 13 26 13l20 -1q11 0 17 -2l2 -4z" />
    <glyph glyph-name="T" unicode="T" horiz-adv-x="1016" 
d="M785 1000l-397 -3l-284 -2l-58 -169l27 -36q15 -18 31 -21q38 50 99 65q65 13 160 13l1 18q0 16 2 24v36q-19 3 -40.5 5t-46.5 2q-67 0 -120 -19l-82 -40q3 19 9 35l33 75l386 2l268 3l12 -5q7 -16 13 -35q1 -5 8.5 -31t10.5 -58q-72 48 -97 60.5t-50 15.5l-36 2l-20 1
q-61 0 -116 -13l1 -272l3 -265l2 -214l50 -52q-18 -2 -42.5 -4t-52.5 -2l-67 -1h-57q0 9 10 20l28 23l-1 326q0 54 -1 163t-1 165l-48 1l-33 2q-44 0 -77.5 -9t-57.5 -37l-22 -21q-6 -8 -8 -16h11q62 72 159 72q21 0 31.5 -1t32.5 -7l2 -369l3 -250l-56 -66q6 -10 27 -30
l44 -41h263l26 -19q-31 -5 -57.5 -8.5t-46.5 -3.5l-146 -1l51 -7l61 -2l71 1q12 0 36 1t36 1l16 10l-52 63l-1 232q0 43 -1 125.5t-1 121.5l-1 241l7 12l143 3l15 1q43 0 102 -51.5t71 -58.5v15l-16 86q-12 47 -33 76l14 -67l17 -77q-26 28 -43 82l-26 101zM770 976
q-47 0 -118.5 -1t-95.5 -1l-202 -3l-183 -2l-20 3q-24 0 -36 -35q-9 -34 -11 -36q33 24 82 35q47 9 107 9l40 -1h42q11 0 12 -10q0 -14 2 -21q0 -9 8 -13l20 -6l-17 -5q-6 -2 -9 -7v-18q0 -9 7 -17l14 2l24 -3l19 -2q12 0 24 6l4 17q0 28 -27 28l-8 -1l31 10q3 3 3 10l-3 22
q0 6 6 12l71 2l54 2q58 0 102 -12q43 -10 77 -43l3 4zM479 835l4 -17q0 -12 -7.5 -19t-18.5 -5q-8 2 -14 2q-7 -1 -11 -1l-20 -2q-21 0 -21 19q0 15 10 21.5t25 6.5l30 -3zM405 788q-7 -1 -10 -11l-4 -17q9 -14 31 -14h16h13q9 2 13 2q14 3 17.5 6.5t1.5 10.5q0 25 -28 25
l-19 -1l-20 -2zM789 588q17 -45 49.5 -85t75.5 -47l21 1q5 0 11 -10q0 -8 -9 -14q-5 -2 -19 -2q-83 33 -122 107q-34 70 -77 212q-6 6 -20 7h-14q-8 0 -13 3l-5 -12l6 -49q8 -74 8 -142q0 -65 7 -123t15 -110q13 -90 32 -135.5t42 -49t23 -14.5q0 -6 -4 -14l-12 -2
q-16 0 -29.5 9t-32.5 60q-16 50 -30 147l-14.5 115t-7.5 122q0 65 -6 121l-12 86l11 -1l20 1q14 0 22 2q15 0 23 -5q8 -3 11 -18zM331 756q0 -49 -3 -125t-3 -104q0 -44 -6.5 -87t-19.5 -101q-20 -98 -65 -184q-13 -17 -21.5 -23.5t-20.5 -7.5l-14 3q-10 10 -8 19q5 6 19 6
q18 0 24 3q52 76 70 199l33 237v162l-17 4q-18 0 -28.5 -17.5t-10.5 -38.5l-49 -168q-34 -93 -102 -140q-13 -3 -25 10q0 14 15 16l17 -1l12 3q54 59 87 161q16 64 28 107t21 71l45 9q16 0 22 -13zM483 734q3 -8 -2.5 -21.5t-18.5 -13.5l-9 2l-33 -2q-11 0 -16 2.5t-10 11.5
q0 16 8.5 21.5t24.5 5.5l30 -3zM276 591l-19 -10q2 -4 14.5 -13t12.5 -15l-4 -9q-2 -4 -11 -5l-12 1q-9 0 -13 -10l13 -7q12 -6 15 -14q-3 -12 -28 -12q0 -68 -21 -129t-69 -100q-4 -1 -14 7q-1 13 14.5 21.5t28 27t29.5 62.5q14 40 22 85q-8 8 -10 21q0 8 10 14h16
q-1 2 -2 3q-4 5 -9 9q-8 9 -10 16q3 8 5 10l35 9l-19 14q-6 6 -6 13q0 6 4 11q22 17 28.5 72t11.5 66h7zM707 709q1 -3 4 -19t3 -40q0 -45 37 -54q2 -3 2 -9q0 -7 -7 -10l-20 -8l17 -5q13 -2 18 -8q3 -12 -7 -19l-19 -8q15 0 18.5 -4t5.5 -17l-1 -21q0 -12 7 -19
q21 -55 37 -87.5t57 -43.5q6 -5 8 -15l-3 -7l-15 -3q-13 0 -27 15l-24 31l-56 125l7 17q0 5 -18 11q-15 3 -17 12l5 14l23 9l-24 5q-9 1 -14 11l11 17q6 9 18 9q-16 16 -23 33q-5 16 -18 101zM485 678q0 -22 -16 -22l-13 1l-18 -2l-17 -2q-13 0 -23 10q0 23 8 27h20
q16 0 24 2q24 0 35 -14zM485 638q0 -20 -13 -26l-15 1l-24 -1q-12 0 -18 2l-14 9q-5 11 1 16t20 8l11 -1l15 1l14 1q13 0 23 -10zM485 593q6 -12 -3.5 -18t-21.5 -3l-18 -1q-10 0 -16 -2q-13 0 -25 12q0 20 12 22l14 -1l27 1q13 0 19.5 -2t11.5 -8zM488 546
q-5 -7 -15.5 -10.5t-24.5 -3.5l-20 1l-18 1q-5 2 -6 7l1 12q12 7 34 7l33 -1l11 1zM485 513q2 -7 -1.5 -13t-10.5 -6h-18l-19 -1q-18 0 -30 6v16q20 4 29 4.5t14 0.5q22 0 36 -7zM485 471q3 -6 -2 -11l-11 -8l-66 4q-4 9 1 13l15 6zM479 421l-38 -3l-35 3q-3 11 9 12
q11 0 14 3l50 -5v-10zM476 388l-66 -4v12h66v-8zM472 353l-14 -6l-17 -2q-19 0 -31 8q7 10 23 10q8 0 19 -4zM460 330q2 -5 -1 -8.5t-11 -3.5l-31 4q0 9 15 9zM827 819q-14 3 -29.5 5t-33.5 2l-61 -2l-47 -2h-20l-12 1l-7 -13v-243q0 -38 1 -126t1 -139l1 -207q-28 9 -28 42
l-1 232l-1 260l-1 214h41q22 3 34 4l57 5q33 0 51 -5q22 -3 45 -19z" />
    <glyph glyph-name="U" unicode="U" horiz-adv-x="896" 
d="M833 935l-52 -46l3 -166l3 -165q0 -38 -1 -61q-4 -90 -4 -94q0 -34 -4.5 -66t-14.5 -80q-15 -77 -86.5 -140t-124.5 -75l-69 -12l-35 -2q-56 0 -108.5 18t-100.5 48q40 -40 98.5 -63.5t119.5 -23.5q41 0 80 10q95 29 171.5 100.5t94.5 162.5q5 45 8 102t3 117l-4 186
l-4 184q4 8 8.5 14t11.5 13q12 12 29 19q0 -13 -16.5 -27t-20.5 -26l-2 -54l-1 -41q0 -17 2.5 -71t2.5 -81l5 -144q0 -121 -19 -207t-77 -152t-170 -100q-48 -12 -100 -12q-61 0 -114.5 16t-102.5 51q-58 74 -93 143.5t-35 145.5v72q0 70 -1.5 141.5t-2.5 151.5q0 29 -6 96
t-6 106q-4 7 -28 28t-29 37l296 3l25 -25q21 -19 23 -33q0 -10 -12 -22q-15 -3 -31 -22l7 -582q3 -34 21.5 -62.5t47.5 -49.5l4 4q-21 26 -30 57l-13 81l-10 547q16 19 41 31q3 -9 -12 -24q-5 -5 -13 -15l-2 -2l8 -567q11 -55 25.5 -78.5t39.5 -40.5l18 -1q39 0 73.5 22.5
t55.5 59.5t29 88q6 48 6 118v44l-6 381l-85 84q2 10 20 10l16 -1l15 3l33 -4l51 4l53 4q39 0 63 -14q23 -11 35 -51zM567 866q3 -14 -8 -22l-10 4l-5 6l1 14q0 9 -10 13q-20 3 -35.5 -9.5t-25 -37.5t-9.5 -54q0 -38 12 -71l45 -97q-6 -8 -6 -15q0 -5 16 -11q16 -4 17 -13
l-4 -10q-3 -6 -13 -9t-10 -12l9 -4l20 4q5 0 11 -6q0 -23 -12 -28q15 -21 24 -55.5t9 -69.5l6 4l3 43q0 32 -12 106l-7 54.5t-4 42.5l1 34l7 28l15 13q6 5 16 2q3 -3 3.5 -6l1.5 -9q-18 3 -24 -12l-8 -26q0 -35 12.5 -114.5t12.5 -108.5q0 -32 -4.5 -56.5t-18.5 -51.5
q-13 -6 -38 -43q-22 -35 -43 -41l-33 -4q-15 0 -24 6l-3 12q0 7 2 9q6 3 20 -1l18 -5q8 0 16 9q21 18 30 44t9 59q0 52 -32 96.5t-83 62.5h-19v16q50 0 86 -42q32 -39 58 -102l3 -81q8 13 12 32l4 38l-3 40q0 8 -1 14t-8 22q-6 18 -13 21.5t-9 8.5l12 30l-18 -3
q-16 0 -21 12q0 12 4 19q5 5 19 11l-21 12q-9 7 -10 16q0 7 9 16q-22 33 -38 78q-13 46 -13 85q0 44 16 83q12 16 22 25t27 12q13 1 25.5 -6t21.5 -21zM574 977q17 -17 28 -29q16 -17 26 -30q24 -27 24 -55q0 -10 -5 -23h-4l4 -57q-4 -42 -5 -50v-30q0 -48 7 -126l7 -123
q0 -84 -21.5 -145.5t-82.5 -113.5q-33 -13 -60 -21q-15 -3 -28 -5t-29 -2q-37 0 -80 21t-67.5 67.5t-30.5 103.5l-10 552q0 22 17 36l36 29h-232l49 -56l8 -530q0 -150 117 -237q72 -48 171 -48q80 0 139.5 34t97.5 92t49 135l-6 503q0 30 23 57l44 55l-107 -2zM257 962
l-22 -24q-19 -21 -15 -42l-12 1l-22 -2l-22 -2q-20 0 -28 12q3 16 -10 29l-24 23l30 6l35 2l44 -1h21.5t24.5 -2zM723 966q-7 -5 -23.5 -33t-40.5 -28l-54 57l6 10h28l30 1q32 0 54 -7zM681 866q0 -11 -9 -16q-6 -2 -12.5 1t-6.5 17q0 9 4 18l10 5q6 0 10 -7zM227 866
q3 -11 -7 -17l-20 -5l-10 1l-32 -2q-22 0 -22 19q-6 19 13 19q17 0 22 3h14q15 0 24 2q12 0 15 -5t3 -15zM681 825q0 -13 -2 -18q0 -3 -2.5 -3.5t-7.5 1.5q-12 -4 -15 15v10q0 6 8 9l13 -3q6 -3 6 -11zM227 813q2 -6 -2 -11t-10 -4l-13 1l-16 -1l-18 -1l-21 3q-7 3 -11 13
q-1 11 7 17l20 5l13 -1h18q16 0 24.5 -2t8.5 -19zM684 762q-1 -4 -6.5 -7t-15.5 -3q-6 9 -6 22q0 8 6 16q6 2 9 2q7 0 10.5 -9.5t2.5 -20.5zM227 752l-21 -4l-22 -1q-31 0 -48 15q0 12 9 20q8 5 25 7l30 -3l27 -3v-31zM684 729l-3 -19h-19v30q21 3 22 -11zM230 718
q1 -10 -8 -13l-20 -4q-3 3 -17 3l-16 -1l-10 -1q-23 0 -20 23q8 13 35 13l28 -2l25 -2zM681 695q3 -5 3 -11v-16q-3 -3 -12 -3l-10 -1l-3 15q0 20 22 16zM227 688q3 -3 3 -10v-10q-11 -4 -24.5 -7t-26.5 -3q-17 0 -38 6v24h86zM687 634q-9 -15 -18 -12q-5 3 -7 12l1 7l3 6
q5 3 8 3q8 -3 12 -5t1 -11zM230 641l-3 -22l-86 3q-2 6 -2 9q0 6 7 9l23 6q6 -3 24 -3h20q13 0 17 -2zM687 600l-3 -19q-22 -3 -22 14q0 11 13 11q9 0 12 -6zM230 580l-28 -4l-32 -3q-18 0 -29 12q6 15 26 15l25 -3l20 -2q11 0 15 2l3 -8q3 -6 0 -9zM687 558q2 -9 -5 -16
q-6 -6 -13 0q-2 2 -4 12q0 9 7 10q9 0 15 -6zM232 549q-3 -4 -15 -11l-21 -3l-20 1l-20 1l-12 -1l-3 15q14 7 38 7h17q17 0 28 3zM687 520v-13q0 -7 -6 -10q-15 0 -16 13q2 8 4 10h18zM230 497l-21 -3l-24 -1q-24 0 -44 7q6 12 16 15l19 3l27 -3l27 -3v-15zM230 473
q3 -12 -8 -15h-17h-20l-16 -1q-19 0 -25 13l40 3l24 1zM684 463q-4 -3 -6 -3l-6 -1l-4 10q0 6 6 6q12 -3 10 -12zM224 424q-14 -7 -35 -7h-22h-13l-4 10l4 9h14l27 1q23 0 29 -13zM684 432q-7 -7 -12 -5v9l6 -1zM681 398v-5h-12l3 8q1 2 4 1t5 -4zM217 387q-10 -3 -31 -5
q-17 0 -32 5v10h14h15l16 1l18 -1v-10zM212 359q0 -9 -13 -9h-12q-7 0 -9 -2h-8l-7 5q6 11 27 11q13 0 22 -5z" />
    <glyph glyph-name="V" unicode="V" horiz-adv-x="1001" 
d="M920 948q-10 -19 -47 -45t-48 -50q-55 -166 -103 -296l-93 -254q-45 -119 -106 -257q-17 -6 -29 -6q-24 0 -50 24l-46 47l-265 765q0 32 -42.5 72.5t-45.5 45.5l301 2l51 -53l-32 -42l160 -439q7 0 11 11l8 31l-139 395l15 15q6 6 14 3l-16 -29q29 -89 62.5 -180.5
t70.5 -178.5q12 24 29 68l18 46l45 129l43 136q-10 12 -48 42l-50 44l4 5l141 -1q22 0 68.5 -1t71.5 -1zM839 983l-219 4l50 -44q18 -15 32 -42l-53 -150l-78 -220l-33.5 -93l-37.5 -96l-16 -15q-31 94 -70 197l-79 212q-16 42 -34.5 97l-33.5 103q4 10 19 22l28 22h-240
l54 -48l284 -811h57l85 218l97 267l109 305zM583 901q4 -16 7 -37t3 -40q0 -42 -11 -87t-31 -91l-33 75q-13 34 -13 61q0 24 6.5 35.5t13.5 11.5h14l5 -9q-2 -3 -3 -4q-4 -6 -9 -9q-12 -8 -12 -13l-3 -22q0 -18 12 -50l19 -44q14 31 24.5 71.5t10.5 70.5q0 32 -9 59
q-7 26 -30 52l-12 -14q-5 -6 -13 -6l-11 2q-3 2 -5 9l1 10q12 12 26 12q16 0 31.5 -12.5t21.5 -30.5zM943 908q-59 -21 -87 -88l-52 -141l-81 -224q-44 -122 -47 -131q-20 -55 -42 -109q-25 -68 -38 -100l-45 -111l-14 -3l-17 -1q-16 0 -27 7l46 9l106 261l106 280l83 228
q24 69 58.5 100.5t50.5 34.5v-12zM177 615l-3 -12q0 -7 17 -16q17 -6 13 -23q-3 -6 -14 -7q-8 0 -13 -9q6 -5 19 -7l12 1q14 0 17 -17l-18 -25q35 -74 73 -184l71 -205l-13 -2q-18 0 -33.5 16.5t-18.5 36.5q-47 114 -65 149q-18 39 -57 93q-36 54 -90 93q49 -6 80 -55
l50 -80l119 -237h7q-6 33 -21 81t-40 111l-53 144q-6 20 -15.5 26.5t-11.5 12.5l3 8q2 3 11 7t9 14q-3 3 -9 3l-11 -2l-12 -2q-9 0 -15 9q-3 15 12 24l16 11q-29 8 -29 36l1 8l-46 69q-29 38 -65 56q3 10 13 11q7 0 22 -9q27 -27 43 -53zM955 699q0 -14 -19 -20
q-18 -4 -22 -10l-27 -32q-11 -13 -17 -24t-6 -19t9 -22q2 -7 -1.5 -12.5t-11.5 -8.5l-12 3l-12 3q-5 0 -11 -6q1 -8 16 -17q13 -6 10 -18q-3 -9 -19 -10h-12q-33 -53 -51 -95l-62 -146q-45 -109 -68 -154h19q16 19 36 50.5l41 66.5q45 75 81.5 125.5t87.5 87.5l8 1h6
q16 0 28 -8q0 -22 -28 -22q-26 0 -35 -6q-38 -38 -71 -83l-77 -116q-46 -73 -73 -109l-39 -3l61 139l70 162q24 57 54 117l22 5q9 1 6 11l-13 10q-10 7 -7 18q5 9 13 9l20 -3q5 0 11 6l-16 19q4 5 12 20q14 25 20 37q22 44 51 64l15 -1q8 0 13 -9zM161 892l6 -21q3 -9 8 -14
l31 -3l33 3l21 3v9q0 20 -11 26t-22 6t-16 -0.5t-21 -4.5zM737 901l4 -17q0 -18 -16 -27h-19l-2 12q0 11 5.5 21.5t18.5 12.5zM718 848l4 -15q0 -17 -16 -27q-10 -1 -23 11l9 23q4 9 15 11zM275 822q5 -12 -12 -15q-14 -1 -19 -6l34 -6q17 -6 17 -26q-7 -5 -24 -10l-30 -3
l-19 1q-5 0 -13 9q-3 6 -5 19q-4 8 1 11l14 5l-26 10q-7 6 -9 21q5 6 12.5 9t21.5 3l24 -1q16 0 25 -2zM702 797l3 -11q0 -10 -4.5 -15.5t-14.5 -11.5h-15l-3 13q0 11 5.5 19.5t16.5 8.5zM267 971q0 -9 -16 -24q-15 -12 -15 -23q0 -6 4 -13l-24 -2l-29 -2q-15 0 -26 4
q-9 5 -15 16l-37 44l57 2l48 3q16 0 29.5 -1t23.5 -4zM311 725q-3 -17 -29 -17l-18 1l-18 1l-11 -1l-10 12l-3 13q0 6 6 12h17l20 1q25 0 33.5 -4.5t12.5 -17.5zM686 741q3 -15 -6.5 -22t-24.5 -4q-3 5 -3 11q0 15 15 20q16 0 19 -5zM801 975l-41 -46q-17 -18 -35 -18
l-67 60l28 5l34 1l40 -1zM323 687v-16l-29 -3l-20 -2l-20 3q-7 3 -14 14q4 5 17 10.5t36 5.5h21zM671 695q3 -9 -3 -18q-6 -6 -17 -10l-16 11q0 9 6.5 15t16.5 6q8 0 13 -4zM342 630q-12 -7 -35 -7h-23h-12q-12 2 -12 17l3 8h25l24 2q26 0 30 -20zM650 648q4 -6 1 -15
q-3 -8 -12 -10l-16 4q-3 8 2 15t17 8zM358 592q-6 -14 -29 -14l-41 1l-8 9q-2 4 -1 11l22 1q15 0 23 2q23 0 34 -10zM635 599q0 -16 -17 -20q-8 0 -14 6q2 9 4.5 13t11.5 6q10 3 15 -5zM370 553v-9q-14 -7 -35 -7l-21 1l-16 3v16l20 1q14 0 22 2q17 0 30 -7zM618 544
q-3 -3 -9 -3h-14q-3 4 -3 6v6l10 3l8 2q8 0 8 -14zM386 500q-14 -7 -35 -7l-21 1l-16 3v12q0 5 9 7l19 -1l20 2q24 0 24 -17zM602 509q0 -9 -7 -16l-19 4q0 15 13 15zM398 458l-23 -4l-23 2l-22 2q-3 6 1 9l11 5l56 -3v-11zM586 458h-23q0 8 6 11t17 3v-14zM570 430v-5h-19
q0 9 10 9q7 -2 9 -4zM409 421l-32 -3l-17 1l-14 6q4 3 18 5l17 -2l19 -2l9 1v-6zM421 395v-5l-31 -4q-19 0 -32 4q8 6 28 6l20 -1h15zM551 390l-7 5h7v-5zM430 358q-9 -7 -25 -7h-18h-10q3 11 22 11q11 0 16 -2zM428 323l-25 -8q-8 3 -10 5q3 9 11 9l10 -2zM525 323h-9v7h9
v-7zM240 801l-15 3z" />
    <glyph glyph-name="W" unicode="W" horiz-adv-x="1244" 
d="M1101 996l26 -33l22 -32l-91 -87l-213 -790q-10 -13 -35 -13l-23 2l-24 4l-48 62l-95 338l-125 -445q-13 0 -21 -2h-19l-41 3l73 9l127 477l-7 18l-4 20l-10 -10l-131 -472q-11 -6 -32 -6l-19 1l-19 1l-51 62l-215 818q-7 8 -33.5 28t-32.5 36l56 4l41 1l49 -1h51h12
l43 1q24 0 43 4q16 -10 30 -27t20 -35l-35 -34q18 -84 39 -167t47 -171l16 46l-68 277q4 1 13.5 13.5t20.5 12.5q2 -10 -10 -17.5t-14 -15.5q13 -63 27 -117.5t35 -116.5l49 163l52 187l17 5l19 3q35 0 78.5 -54t55.5 -61l39 -187q15 -64 41 -136l19 58l-43 158l-22 95l5 -1
l61 -215q14 33 24 67l45 184l-94 83l25 4l29 1h39h24l14 3zM1176 889l-81 -68l-222 -814l-11 -4l-17 -1q-19 0 -28 2l-19 3l27 5l38 2l223 811q16 22 34 36l56 44v-16zM131 651q18 -33 38 -82q15 -40 24 -81q8 -3 12.5 -5.5t5.5 -9.5l-3 -7l-15 -10q-4 -3 -1 -10l36 -11
q3 -6 -5 -17l-7 -14q4 -6 7 -8l42 -143l37 -137q-7 -4 -19 -6t-24 -2l-71 168q-44 94 -102 158q0 8 2.5 12.5t11.5 9.5l16 -7l54 -112l59 -135q36 -82 44 -83h14v24l-72 246q-8 3 -11 5.5t-5 9.5q3 7 5 9l9 8q5 3 -1 9q-18 0 -24 1.5t-10 11.5q-3 8 1 12l19 15q-11 0 -17 7
l-4 22q0 20 -6 29q-25 66 -48 106.5t-64 73.5q-2 2 -2 10q1 6 7 7q25 -3 41 -31zM1187 675q1 -10 -10 -19l-21 -11q-31 -37 -49 -78t-41 -106q7 -7 7 -16q0 -6 -4 -9l-27 -8q0 -6 12 -15q12 -7 9 -20q-8 -12 -23 -12l-11 1q11 -8 11 -17q0 -4 -2 -8.5t-10 -15t-28 -70.5
l-52 -158h19q31 90 80 170.5t117 135.5h9l-1 -12q-67 -51 -114 -129q-21 -35 -41.5 -78.5t-38.5 -92.5q-6 -6 -19 -6h-23l-7 7l88 240q10 3 8 15l-15 16q1 11 17 14t21 7l-14 14q-6 6 -6 12q3 8 5 10q14 0 19 6l4 19q0 22 6 31l25 59.5t25 54.5q20 45 57 80q17 -2 18 -11z
M651 171q0 -44 -9.5 -73t-41.5 -42l-21 5q-7 1 -6 13l10 7q7 -4 11 -8.5t10 -4.5q18 18 25.5 41.5t7.5 50.5q0 30 -6 54q-2 12 -7 30t-13 42q-7 -5 -11 -20l-5 -26q-3 -4 6 -14q9 -8 2 -15q-12 -1 -20 14l22 93q21 -24 29.5 -56.5t16.5 -90.5zM856 978q9 -10 37.5 -32.5
t37.5 -44.5l-115 -446q-6 -25 -13 -37q-4 -11 -15 -13l-79 286l-74 288l-49 1l-54 -194l-51 -193l-45 -180l-19 -17q-19 79 -46 170l-54 194q-24 88 -43 171l51 45l-118 -1q-20 0 -60 -1t-60 -1l42 -39q15 -14 15 -38l212 -781l41 -1l50 170l58 214l48 176l16 15l10 -8
l145 -561l52 -1l58 214l68 261l58 226l-3 -3q-5 -9 -22 -11l-16 3l1 19q6 14 30 14q5 2 10 -1.5t4 -10.5l5 27l-8 -10q-11 0 -16 1.5t-11 9.5q-3 18 9 36q6 6 13 6q9 0 16 -8t5 -14q9 26 37 53l53 50l-29 2h-25l-94 -3zM643 878l2 -22l-12 -4l-20 -1l-45 1l-2 11q0 16 13 23
q4 2 15 5t24 6q15 -3 19 -6t6 -13zM266 866l-1 -12q-18 -7 -38 -7l-21 1l-22 1q-9 6 -12 12l-1 22l28 4l29 3q17 0 26 -5q9 -3 12 -19zM654 817v-10h-95q-5 11 4 21t23 9l16 -3l18 2l17 2q17 0 17 -21zM277 820q3 -9 -4 -13l-14 -5l-14 2l-19 -1l-11 -1q-14 0 -21 3.5
t-11 16.5v8l27 3l32 4q24 0 35 -17zM944 781l-8 -18q-6 -7 -18 -7h-8l-1 11q0 11 3.5 18t13.5 8q15 6 18 -12zM669 767q-4 -11 -12 -8l-111 2q-4 4 -1 14l7 13q20 5 44 5l31 -1l32 -1zM289 767v-8q-11 2 -31 -2l-30 -4q-13 0 -20 5t-10 18q-3 8 7.5 10.5t12.5 4.5l13 -2
l33 2q14 0 19.5 -4.5t5.5 -19.5zM921 710l-19 -5q-6 6 -6 15q0 13 7 21q8 6 13 6q12 0 12 -19q0 -11 -7 -18zM668 744l7 -10l4 -10q-1 -2 -2 -4.5t-4 -4.5l-26 -4l-31 -1h-19h-16q-10 2 -14 2l-34 3q-3 8 0 17l13 14zM304 721l-4 -12l-19 3l-27 -3l-18 -2q-24 0 -24 26l26 3
l27 3q16 0 24.5 -3.5t14.5 -14.5zM1036 967q-9 -3 -35 -31.5t-41 -29.5l-13 3q-5 10 -25 27.5t-27 32.5l44 1l46 1h22zM912 671l-26 1q0 22 14 23q15 3 15 -14zM691 682q-9 -14 -34 -14h-19q-10 0 -18 0.5t-14 1.5l-10 19q25 7 42 7l22 -1l26 -1zM631 924l-1 -15l-28 -4
q-16 0 -23 10l10 31q6 26 27 21zM538 690l2 -12q0 -15 -11 -15h-12l3 21q0 9 8 9zM315 670l-32 -3l-26 -2h-13q-5 0 -17 6q0 11 8 15l21 4l20 -1l20 -2q8 0 12 2q3 -8 4.5 -10t2.5 -9zM899 626l-12 -1q-9 0 -13 8q0 9 6 13.5t10 4.5q3 0 9 -2v-23zM700 633v-7l-18 2l-22 -2
l-21 -2q-12 0 -25 7q-3 9 3 12l16 6l17 -4l16 1q12 0 18 2q14 0 16 -15zM525 647q4 -4 1 -14q-3 -7 -10 -13q-9 0 -9 11l1 7l7 8q5 3 10 1zM326 636v-12l-34 -3l-22 -3q-18 0 -32 11v12l55 8q11 0 19 -3q7 -1 14 -10zM892 599q0 -12 -14 -13l-8 3h-6q-3 16 15 16q7 0 13 -6z
M711 595q-3 -5 -5 -7t-7 -1l-12 1l-31 -1l-19 1q-7 2 -12 8q11 4 37 7l46 2zM334 596q-3 -9 -10 -12.5t-20 -3.5l-19 1q-12 0 -19 2l-10 -1l-4 8l1 10l26 3l28 3q17 0 27 -10zM516 598q0 -11 -7 -15l-12 4v9q3 6 11 6q6 -2 8 -4zM723 552l-55 -8q-18 0 -29 10q0 9 7 9
q14 0 16 2h34q23 0 27 -13zM876 558l-9 -12l-8 2l-5 5q3 9 14 9q6 -2 8 -4zM505 548q-4 -1 -7.5 -2t-7.5 -2l-4 4l14 15q7 -7 5 -15zM348 547l-16 -5l-22 -1l-26 1l-21 3l1 8l26 3l31 4l16 -3q5 -1 11 -10zM867 522q6 -8 -4 -14l-12 -4l-7 4q-3 8 4 11t19 3zM734 513l-53 -9
q-15 0 -27 12q11 3 21.5 5t21.5 2q26 0 37 -10zM496 517l-3 -8l-4 -5q-5 3 -9 3q0 7 5 11q4 3 11 -1zM358 513q1 -12 -8 -13l-14 1q-6 0 -9 -3h-28q-18 0 -21 13l28 3l29 3q12 0 23 -4zM743 469l-33 -3l-22 -2q-14 0 -25 4q6 11 30 11l25 -2l25 -2v-6zM859 473v-6h-16
q-8 0 -8 10zM483 473l-3 -5h-7v7q6 5 10 -2zM366 463l-16 3l-24 -3l-15 -2q-14 0 -18 14l14 -2l19 1l20 2l20 -3v-10zM846 434q-2 -6 -18 -6l-4 3q9 9 15 9q6 -4 7 -6zM748 436q-13 -10 -42 -10q-22 0 -35 5l13 6l17 2l23 -1q16 0 24 -2zM375 429l-3 -5l-68 -6q0 16 23 16
l26 -1l16 3zM469 434q0 -3 -0.5 -5t-1.5 -3h-7l2 7q3 3 7 1zM762 392l-28 -3l-25 1l-27 1l-1 9l35 3l22 -1q11 0 24 -4v-6zM831 401q-1 -9 -7 -10l-10 2q-3 2 -2 8h19zM390 396q-18 -7 -34 -7l-20 1l-21 1q12 10 35 10l16 -1q11 0 24 -4zM460 395l-9 6l9 -1v-5zM762 364
q-6 -9 -26 -9l-22 2l-19 4q8 9 27 9l22 -3zM820 358l-12 1v8h12v-9zM394 356l-17 -2h-15l-32 3v7l65 -2zM452 355l-12 7l12 -1v-6zM814 333v-5h-15q-3 8 6 8q6 0 9 -3zM758 325h-20q-21 0 -31 5q6 6 21 6l12 -1l18 -1v-9zM391 325q-3 -6 -17 -6l-26 2q3 9 17 9q10 0 14 -2z
M440 328l-3 -5l-9 5h12zM279 965l-22 -27q-6 -9 -6 -19l3 -13l-37 -3l-30 -2l-18 1q-3 17 -20 31q-16 16 -35 24l4 7h21h18h16h13h12h35l36 1h10z" />
    <glyph glyph-name="X" unicode="X" horiz-adv-x="1000" 
d="M860 937v-14q-56 -39 -95.5 -88.5t-94 -133.5t-76.5 -111v-16q20 -30 45 -74.5l50 -91.5l102 -191q51 -94 103 -163l-12 -12l-319 5l-59 70q4 9 28.5 31t24.5 39l-4 13l-82 141q-36 -34 -81 -96l-83 -116l83 -112l-11 -10l-223 8v7l73 -2l63 -2l39 1h19q12 3 18 4l-10 14
q-5 8 -22 12l-50 4l-63 -4l-51 -3q-44 0 -77 15q-29 15 -50 56q12 23 49 57l42 41l226 318q-39 80 -73 140q-31 60 -75 132l-83 142l-55 53l311 -4q7 -3 25 -21.5t26 -22.5l-32 -44l98 -169l9 3l7 9q-13 33 -30 63q-15 30 -51 81q6 3 14.5 13.5t19.5 12.5q5 -7 -6 -18
l-12 -12l36 -60q26 -46 38 -62l104 142l-37 39q-23 24 -34 43l251 -8zM897 905l-103 -102l-161 -225l321 -572l-68 -4l-48 -1l-123 2l-90 2l-5 5l12 7l295 -4l5 5l-308 555q31 58 84 130l103 137q15 9 40.5 32.5t45.5 32.5zM199 696l20 2q6 -5 6 -12q-3 -11 -5 -15l-4 -14
q3 -3 13 1l14 5q6 0 12 -7l-8 -30l17 -2q12 0 17 -15q-1 -14 21 -41q24 -24 24 -36q0 -7 -5 -13l-16 -15q-40 22 -69 33t-65 11q-7 0 -19 -9q-8 -6 -16 -8l-11 3q5 15 17.5 21.5t27.5 6.5l28 -2h20q19 -3 28 -8q13 -5 26 -13t28 -16q9 0 9 8t-8 19q-12 6 -23 34t-28 30
l-15 -3q-1 6 3 17t2 20q-6 0 -15 -6t-16 -3q-6 5 -6 12l7 25l3 4q-17 0 -50.5 28t-56.5 28l-17 -3l-6 9q11 8 28 10q18 0 47 -21zM762 573l63 -33q19 -7 43 -7l19 1l18 7l6 -5q-6 -11 -18 -19q-8 -3 -25 -5q-11 0 -31 6l-27 8l-48 35q-39 28 -56 52l-16 -18l26 -49t20 -35
q18 -29 50 -42l3 -28l21 6l9 -3l-2 -11q0 -18 32 -44q33 -24 40 -37l27 -6q12 -2 19 -11q-4 -14 -16 -13q-26 0 -59 36q-30 36 -53 40q-2 3 -4 13q0 9 4 14l2 4q-3 5 -17 -1l-16 -5q-8 0 -10 12l11 22q-31 15 -56 55l-45 75q0 10 7 21l13 17q16 -2 33 -20zM589 979
q6 -10 30 -33q23 -20 29 -39l-158 -228l-28 -27l-45 75l-32 54l-81 145q-3 14 21 35l27 21q-28 3 -57.5 5t-61.5 2l-64 -1l-64 -1l53 -48l223 -403l-93 -132q-61 -90 -111 -156q-45 -61 -102 -116l78 -2l49 -1q42 0 69 4l-62 74l111 157q47 65 89 113q23 -29 55 -88l49 -93
l39 -71q19 -35 19 -51q0 -13 -7.5 -23.5t-28.5 -19.5l103 -3l93 -3h24h24l14 2l-52 40l-92 155l-83 145l-71 131l89 129q59 89 103 146q19 25 46 52.5t55 49.5l-36 2h-30l-33 -1h-33zM438 380l-158 -225l10 -12h9l157 214l-5 16q-4 8 -13 7zM317 865q-18 -9 -47 -9l-25 1
l-20 3q-19 16 -19 40l11 -1l30 2l25 2q22 0 33.5 -8t11.5 -30zM639 839l-7 -20q-3 -9 -12 -15h-15l10 27q5 9 17 9zM346 817q-15 -12 -47 -12q-19 0 -27 1t-23 7l-1.5 4.5t-6.5 9t-8 15.5q1 2 2 4.5t5 4.5l10 -2h12l21 1l22 1q20 0 30.5 -6.5t10.5 -27.5zM374 775l-1 -9
l-21 -5l-24 -1l-45 3l-15 16q-3 5 -3 10l2 8l28 1l28 2q17 0 30.5 -5t20.5 -20zM604 789q3 -8 -1 -15t-15 -15q-16 0 -19 4q6 26 35 26zM572 747q5 -9 -4 -19l-16 -14h-12q0 33 32 33zM396 716l-34 -3l-25 -2q-16 0 -27 4l-18 28q11 6 30 6l33 -1l23 3q9 -3 15 -14t3 -21z
M742 958q-9 -4 -26 -28.5t-31 -24.5l-15 4l-32 51l32 1h12q7 0 21 2q25 0 39 -5zM422 684l-1 -8q-9 0 -17.5 -2t-14.5 -3l-30 -4q-12 0 -22 3.5t-16 24.5q0 9 10 9l17 -2l8 3l13 -1h18q15 0 23.5 -3.5t11.5 -16.5zM540 696q3 -6 -3.5 -16t-16.5 -14q-12 0 -15 7
q3 11 11.5 18t23.5 5zM451 641q3 -14 -12 -17l-23 -1l-13 2l-27 -1q-13 0 -19.5 4.5t-9.5 19.5v5l12 -1l30 2l23 3q13 0 22 -4q8 -2 17 -12zM513 647q-3 -11 -7.5 -15.5t-12.5 -4.5l-12 1q-3 7 2 14.5t14 11.5q9 0 16 -7zM300 968q-1 -4 -2.5 -7.5t-7 -13.5t-7.5 -20
q0 -10 5 -15l-34 -4l-32 2l-31 4q-3 12 -19.5 30.5t-19.5 28.5zM477 602q0 -11 -9 -17l-21 -4l-63 4q-11 6 -11 18q0 8 8 9l15 1h12l34 -3q12 -2 18.5 -3t16.5 -5zM494 550l-18 -8l-17 -1q-16 0 -26 2l-25 4q-9 9 -11 15l28 4l29 4q15 0 23.5 -4t16.5 -16zM515 519v-10
l-44 -4l-38 1h-14h-11q-9 2 -13 2l1 15l36 2l37 2l18 -1q11 0 28 -7zM534 474q-13 -8 -30 -8l-26 3l-29 8v7l31 1l24 3q22 0 30 -14zM384 483q5 -12 -9 -12l-15 4q3 5 11 8h13zM551 434l-18 -2h-14q-32 0 -48 5q2 5 11 8t21 3q13 0 21 -2l27 -3v-9zM355 448q1 -7 -4 -11
l-8 -4l-12 5q0 9 13 10h11zM569 399l-15 -1h-13q-29 0 -46 4q12 9 33 9l41 -1v-11zM335 411q3 -9 -2 -11h-13h-9q-1 8 7 11h17zM678 887q0 -9 -7 -17l-16 -16h-18l13 23q7 11 18 13zM580 372q-3 -6 -15 -11l-17 -2q-30 0 -30 15zM307 373q-1 -7 -2.5 -9t-6.5 -1h-10
q-3 5 0 9l10 4q6 0 9 -3zM585 334q1 -6 -5 -9.5t-17 -1.5q-15 0 -19 7l12 6q6 3 14 3q7 0 15 -5zM275 333h-16l1 11l15 -1v-10z" />
    <glyph glyph-name="Y" unicode="Y" horiz-adv-x="974" 
d="M899 939q-60 -50 -108 -117t-107 -167q-55 -96 -90 -145l-12 -382q5 -14 11 -21l21 -18l20 226q0 33 3.5 103.5t3.5 101.5l209 334q9 4 35 32t45 28q-58 -49 -99 -109q-44 -65 -99 -164q-59 -105 -80 -137l-22 -422q6 -15 24 -36l33 -38l-20 -8l-150 3l-138 4
q15 3 31.5 5t26.5 3l75 3l72 -1l71 -1l-27 25l-284 5l-30 31q-23 23 -28 42q39 11 53.5 40.5t14.5 70.5l-1 33l-1 31q0 21 4 33l1 206l-240 404l-73 56l7 5l337 1l26 -36q6 -11 4 -24l-13 -10l-10 -9q19 -46 37 -75l96 -153l16 19l-105 192l10 9q6 0 6 -6l-4 -12l3 -7
l96 -156q27 29 57 75l57 90q-4 19 -40.5 51.5t-42.5 51.5l167 -3l111 -2l25 -28q9 -12 15 -27zM109 877l90 -150q25 -43 55 -115t42 -141q19 -9 21 -14l4 -11l-3 -11q-19 -3 -35 -9q-13 -3 -13 -21l39 -12q16 -5 16 -23q-2 -11 -16.5 -14.5t-18.5 -7.5q8 -11 8 -30
q0 -18 -9 -50l-17 -50q-20 -48 -43.5 -78t-62.5 -36q-13 -3 -26 9q1 15 17 16l20 -1q9 0 33.5 15.5t45.5 63t33 116.5l-16 10q-6 5 -6 13l1 6q4 3 7 4l12 6q16 6 23 14l-41 15q-16 6 -16 25l1 8l57 26q-33 15 -48 82t-21 77q-31 76 -58 123q-25 49 -63 103l25 -135
q13 -75 13 -128q0 -34 -1.5 -47.5t-7.5 -46t-26 -73.5l-22 -22q-8 -6 -21 -8l-9 1q-5 7 -7 16q22 7 40 23t25 40q15 60 15 133q0 37 -3 68.5t-11 67.5q-15 72 -41 141l7 16zM916 809q-56 -139 -75.5 -202t-19.5 -145q0 -27 2 -46.5t9 -48.5q0 -22 29.5 -30t29.5 -31
q-5 -5 -18 -7q-11 0 -27.5 18.5t-27.5 52.5q-5 16 -8 35t-3 39q0 60 19 130l31 116l33 87l-40 -58l-61 -95q-43 -71 -73 -141q0 -9 11 -21q5 -5 9 -11q1 -2 3 -5q0 -5 -13 -11h-18l-14 2q-12 0 -16 -13l25 -9q21 -6 22 -20q0 -15 -19 -19q-16 0 -23 -10l5 -26l1 -33l-1 -24
v-23q0 -29 9 -66t20.5 -57.5t30.5 -37.5q6 -3 24 -3q19 0 24 -5q5 -3 6 -8l1 -5q0 -5 -10 -11l-14 -6q-31 9 -55.5 39.5t-43.5 101.5l1 143q-7 4 -8 17q0 19 17 19l12 2l11 5q0 11 -23 17.5t-23 18.5q0 7 5.5 16t15.5 9l25 -3q8 0 13 5q-19 5 -19 24l3 19l45 96
q39 82 141 230q17 0 20 -11zM226 514l4 -39l2 -36q0 -51 -14 -89.5t-49 -62.5l-18 1q-6 4 -8 8l34 24q31 22 31 49q9 44 9 91q0 55 -12.5 120.5t-31.5 121.5q5 -9 11 -21.5t12 -30.5zM609 985l78 -81q-91 -149 -190 -294h-9q-85 129 -120 191l-36 67l-35 69l46 47l-148 -1
q-19 0 -54 -1t-51 -1l13 -12l15 -9l254 -423l1 -182l-4 -43l1 -35l1 -37q0 -47 -10.5 -74.5t-46.5 -43.5h238l-52 45q0 17 2 85t2 119l5 144l133 223q22 24 75.5 122t113.5 124h-28h-24h-21h-18h-16h-14h-12h-39l-38 1h-12zM311 870v-9l-39 -4l-33 -3q-19 0 -31.5 5.5
t-22.5 21.5v14l33 3l41 4q20 0 33 -6.5t19 -25.5zM718 895q2 -13 -4.5 -22t-22.5 -22l-17 4l13 33q6 9 19 10zM689 835l-15 -24q-6 -9 -19 -9l-12 3q-3 5 6 20l10 15l11 2l11 3q5 0 8 -10zM322 847l-31 1q-19 0 -29 2q-28 0 -48 -10l15 -30q6 -9 21 -9l-4 -21q3 -13 16 -22
q14 -7 30 -7l-4 -4q-7 0 -13 -6q-3 -6 2 -13q3 -7 10 -13l16 -10l19 -1h21l35 3q14 3 26 12q-3 11 -13 21q-8 10 -20 11l5 7q0 25 -21 33l-41 9l8 4l11 -1q6 0 11 4q2 3 2 12zM788 969q-4 -10 -33 -37l-31 -29q-13 -6 -20 11q-4 16 -13 20l-18 15q-13 10 -13 22l43 2l39 2
q20 0 46 -6zM657 792q-2 -16 -10 -26t-23 -12l-14 7l16 26q5 6 19 8zM626 742l-11 -26q-3 -9 -21 -9h-13q0 8 6 20.5t18 17.5q2 2 9 2t12 -5zM304 969q0 -10 -14 -24q-11 -13 -13 -19l3 -11q-22 -10 -48 -10l-32 2l-30 4q-7 14 -27 36l-20 25h45l47 1h39zM429 669
q-18 -13 -49 -13h-14q-7 0 -21 2l-23 3l-19 26l23 10l25 3l28 -3l35 -6zM591 688q0 -13 -16 -28l-23 4q2 13 6.5 21.5t17.5 9.5l11 -1q4 -4 4 -6zM453 623l-20 -6l-24 -2l-22 1l-23 1l-15 -1q-12 9 -15 25l47 7l57 2q14 -12 15 -27zM561 648q4 -10 -2.5 -20.5t-19.5 -14.5
h-12q-4 4 -4 7q3 13 9.5 21.5t18.5 8.5zM532 604q3 -8 -0.5 -17.5t-15.5 -11.5q-14 1 -20 7q1 9 9 15t19 8zM475 579l-7 -5l-95 1q-12 8 -12 19q0 6 7 10q7 0 10 -2h13h19l20 1q21 0 30 -5q11 -3 15 -19zM503 554q-5 -13 -17 -18l-30 -4h-25h-15q-18 0 -28 13q0 8 9 11l23 4
l42 -1q23 0 41 -5zM483 499l-80 -2l1 16l79 -1v-13zM477 459l-74 -2v16l17 -2l17 1q12 0 18 2q17 0 22 -15zM478 431q-14 -7 -36 -7l-40 1q5 13 28 13q17 0 27 -2h19zM472 389l-67 -3v15l67 -5v-7zM468 357q-6 -6 -25 -6l-20 1l-12 1l1 9l13 -1h16l13 -1zM458 326v-6l-20 -3
q-14 0 -22 4q6 9 22 9l8 -1zM341 750l-12 2zM278 800l1 4h-13zM323 750l-26 3z" />
    <glyph glyph-name="Z" unicode="Z" horiz-adv-x="933" 
d="M864 939q-6 -16 -34 -37q-27 -18 -34 -29l-410 -671l-16 -24q4 -6 15 -8l12 3l131 205l151 246l135 224l37 34q23 17 39 22l-75 -72l-203 -336l-67 -111l-65 -105l-63 -100q39 -9 75 -9q80 0 154 39.5t142 108.5q20 -8 37 -26q8 -7 18 -19.5t17 -22.5l-75 -212l-667 4
q-21 15 -43 37t-33 40l59 45l402 655l-34 7l-38 2l-46 -2l-46 -4q-46 -11 -84.5 -38t-59.5 -66h-7q31 73 101 95t172 22h49q12 9 13 22l-69 5l-51 2q-80 0 -141 -23t-97 -88q-16 7 -30 23l-27 33l50 185l12 5l645 -12zM438 780q-28 -37 -92 -141q-58 -98 -97.5 -152
t-99.5 -99q-6 -6 -19 -6l-21 1q-5 3 -7 15q69 0 127 76l86 132l108 167q-5 8 -23 8l-20 1q-76 -74 -122.5 -115.5t-106.5 -67.5q-23 0 -36.5 4.5t-23.5 20.5l1 11q5 4 7 4q9 1 16 -10l10 -13q25 0 45 6.5t43 23.5l68 58q9 6 48.5 47t67.5 41q14 0 20.5 -2t20.5 -10zM380 754
q-3 -22 -23 -46l-36 -46l-14 -3q-9 0 -14 -6l5 -13l5 -13q0 -6 -10 -10l-24 9q-6 -6 2 -15l8 -11q-2 -7 -4 -9q-17 3 -31 -17q-12 -21 -20 -24q-8 -10 -20 -15l-24 -4l-10 16q6 8 27 8l11 -1q8 5 23 25q11 17 26 23l-3 12l-3 13q0 8 7 12l13 -5l14 -1q-5 6 -7 13q0 8 10 15
l26 14l24 34q23 32 42 45zM850 637q0 -18 -15 -20l-14 2l-16 2q-5 0 -25 -8.5t-39 -30.5t-46 -64l-194 -295q6 -5 22 -7l21 3l125 114q82 67 151 67q32 0 64 -13q6 -5 7 -16q-4 -3 -12 -5q-5 0 -20.5 11t-24.5 15q-86 0 -154.5 -61.5t-125.5 -122.5q-12 -5 -29 -5l-22 2
l-21 4l80 126l88 131l86 128q18 18 41.5 32.5t47.5 14.5q14 0 25 -4zM754 473l-54 -33q-30 -23 -30 -49l-28 8q-6 -3 -7 -11l6 -24l-17 1l-12 -3q0 -26 -35.5 -68.5t-43.5 -59.5q18 6 36 30l41 51l15 31q6 12 18 12l13 -3l-4 14q0 9 19 12q20 0 20 12q0 7 -5 16l20 18l22 14
q9 6 21 6h14l12 1l9 8q0 8 -9 13zM824 10l-19 -10q-36 0 -121 1t-91 1l-241 4l-210 2l13 10l657 -6q15 34 36.5 103.5t36.5 106.5q0 -34 -30 -117zM789 977q-33 0 -112.5 1t-84.5 1l-226 4l-196 2l-40 -148q45 48 97 72.5t123 24.5l83 1l52 2q54 0 95 -7l-146 -248l-56 -93
l-62 -100l-68 -108l-139 -225l-44 -37h658l55 162l-62 -48q-52 -44 -124.5 -61t-156.5 -17l-99 2l-71 2l-5 11l150 241l173 281l145 233zM745 968l-328 2l-229 3l-14 -38q-10 -27 -13 -44l62 41q20 12 46 18l347 -2q3 -8 -2 -19l-11 -19l18 -6l23 -2h21l12 2l72 60zM581 736
q0 -18 -7 -24.5t-24 -6.5l-29 2l-21 3l-17 -3q-5 6 1.5 14t6.5 13l15 3l21 2l26 -1q18 0 28 -2zM552 689q0 -15 -7 -22t-22 -7l-27 2l-18 3q-8 0 -12 -2h-12l4 19q1 4 9 10h44zM671 887q0 -16 -8 -28t-24 -12l-66 2q-6 9 4 21l10 17l19 -1l24 1q16 0 24 2zM526 645
q-2 -15 -12.5 -20.5t-27.5 -5.5h-16l-14 1l-22 -3q-3 2 -5 10q0 6 5 11l15 7q9 3 24 3l28 -2zM493 594q-5 -19 -30 -19l-55 3q-3 6 -3 9q0 7 10 10l25 4l29 -1q10 0 24 -6zM461 552q5 -12 -12 -15l-18 -3q-3 2 -8.5 3t-19.5 1q-20 0 -20 10l17 4l12 1l18 -1l19 -1zM437 511
q-9 -15 -31 -15l-26 2l-25 1q6 16 29 16zM638 831q3 -11 -7 -21l-13 -13l-74 6q0 17 6 25q7 5 24 7l29 -3l24 -2zM413 469q-10 -13 -32 -13q-17 0 -26 2l-22 5q0 12 11 12l12 -1l10 3l13 -1l19 -1q9 0 15 -6zM387 432l-27 -5l-21 -2q-15 0 -26 4q18 7 43 7q19 0 31 -4z
M362 393q-11 -6 -30 -6l-22 1l-11 3q6 6 22 7l23 -3zM331 359q-3 -9 -18 -9h-11q-6 0 -20 2l-3 4q16 7 32 7q12 0 20 -4zM306 320l-15 -3l-20 1v9l35 -2v-5zM609 786q5 -8 -2 -16l-13 -15l-79 -1q-6 8 2 18l14 13l17 -1l27 1l18 2z" />
    <glyph glyph-name="a" unicode="a" horiz-adv-x="988" 
 />
    <glyph glyph-name="b" unicode="b" horiz-adv-x="945" 
 />
    <glyph glyph-name="c" unicode="c" horiz-adv-x="949" 
 />
    <glyph glyph-name="d" unicode="d" horiz-adv-x="1005" 
 />
    <glyph glyph-name="e" unicode="e" horiz-adv-x="876" 
 />
    <glyph glyph-name="f" unicode="f" horiz-adv-x="858" 
 />
    <glyph glyph-name="g" unicode="g" horiz-adv-x="916" 
 />
    <glyph glyph-name="h" unicode="h" horiz-adv-x="1020" 
 />
    <glyph glyph-name="i" unicode="i" horiz-adv-x="468" 
 />
    <glyph glyph-name="j" unicode="j" horiz-adv-x="683" 
 />
    <glyph glyph-name="k" unicode="k" horiz-adv-x="975" 
 />
    <glyph glyph-name="l" unicode="l" horiz-adv-x="814" 
 />
    <glyph glyph-name="m" unicode="m" horiz-adv-x="1122" 
 />
    <glyph glyph-name="n" unicode="n" horiz-adv-x="913" 
 />
    <glyph glyph-name="o" unicode="o" horiz-adv-x="976" 
 />
    <glyph glyph-name="p" unicode="p" horiz-adv-x="943" 
 />
    <glyph glyph-name="q" unicode="q" horiz-adv-x="954" 
 />
    <glyph glyph-name="r" unicode="r" horiz-adv-x="946" 
 />
    <glyph glyph-name="s" unicode="s" horiz-adv-x="893" 
 />
    <glyph glyph-name="t" unicode="t" horiz-adv-x="1016" 
 />
    <glyph glyph-name="u" unicode="u" horiz-adv-x="896" 
 />
    <glyph glyph-name="v" unicode="v" horiz-adv-x="1001" 
 />
    <glyph glyph-name="w" unicode="w" horiz-adv-x="1244" 
 />
    <glyph glyph-name="x" unicode="x" horiz-adv-x="1000" 
 />
    <glyph glyph-name="y" unicode="y" horiz-adv-x="974" 
 />
    <glyph glyph-name="z" unicode="z" horiz-adv-x="933" 
 />
    <glyph glyph-name="bullet" unicode="&#x2022;" 
 />
    <glyph glyph-name="nonbreakingspace" unicode="&#xa0;" 
 />
    <glyph glyph-name="ydieresis" unicode="&#xff;" horiz-adv-x="375" 
d="M301 976l-75 -197q-5 -14 -16 -14q-9 0 -9 11l-1 130q0 12 13 12q11 0 11 -12l2 -60l52 137q3 8 12 8q5 0 9 -4.5t2 -10.5zM366 753q-5 -5 -12.5 -7t-15.5 -2q-3 0 -15 1t-20 1q-12 0 -29 -3q-15 -5 -15 7l2 8q10 27 38 47.5t35 39.5q1 8 3 17q0 6 -4 7q-5 3 -13 3
q-10 0 -15.5 -3.5t-2.5 -10t-2 -12t-13 -5.5q-5 0 -7 6.5t-2 9.5q0 16 15.5 26.5t34.5 10.5q13 0 21 -6q13 -12 13 -25q0 -8 -3 -19q-7 -22 -30 -41q-28 -23 -36 -35q12 0 26 -1t15 -1q10 0 14.5 4.5t8.5 4.5q13 0 13 -14q0 -5 -4 -8zM169 788l-53 -8q-12 -2 -12 11l19 144
q2 11 12 11q5 0 9.5 -4.5t3.5 -10.5l-18 -125l38 4q13 3 13 -11q0 -13 -12 -11z" />
  </font>
</defs>
</svg>
